<svg xmlns="http://www.w3.org/2000/svg" xmlns:xlink="http://www.w3.org/1999/xlink" width="800" height="242">
  <rect width="100%" height="100%" fill="#ffffff"/>
  <defs>
    <g id="a0"><radialGradient id="g0" cx=".5" cy=".5" fx=".33" fy=".33" r=".66"><stop offset="0%" stop-color="#7187fa"/><stop offset="100%" stop-color="#2b45c7"/></radialGradient><circle cx="0" cy="0" r="7.4" fill="url(#g0)" stroke="#090909" stroke-width="1.4"/></g>
    <g id="a1"><radialGradient id="g1" cx=".5" cy=".5" fx=".33" fy=".33" r=".66"><stop offset="0%" stop-color="#c6c6c6"/><stop offset="100%" stop-color="#8e8e8e"/></radialGradient><circle cx="0" cy="0" r="7.9" fill="url(#g1)" stroke="#131313" stroke-width="1.4"/></g>
    <g id="a2"><radialGradient id="g2" cx=".5" cy=".5" fx=".33" fy=".33" r=".66"><stop offset="0%" stop-color="#c4c4c4"/><stop offset="100%" stop-color="#8b8b8b"/></radialGradient><circle cx="0" cy="0" r="7.9" fill="url(#g2)" stroke="#090909" stroke-width="1.4"/></g>
    <g id="a3"><radialGradient id="g3" cx=".5" cy=".5" fx=".33" fy=".33" r=".66"><stop offset="0%" stop-color="#ff5555"/><stop offset="100%" stop-color="#cc0b0b"/></radialGradient><circle cx="0" cy="0" r="7.1" fill="url(#g3)" stroke="#010101" stroke-width="1.4"/></g>
    <g id="a4"><radialGradient id="g4" cx=".5" cy=".5" fx=".33" fy=".33" r=".66"><stop offset="0%" stop-color="#ffffff"/><stop offset="100%" stop-color="#cccccc"/></radialGradient><circle cx="0" cy="0" r="4.2" fill="url(#g4)" stroke="#010101" stroke-width="1.4"/></g>
    <g id="a6"><radialGradient id="g6" cx=".5" cy=".5" fx=".33" fy=".33" r=".66"><stop offset="0%" stop-color="#c3c3c3"/><stop offset="100%" stop-color="#888888"/></radialGradient><circle cx="0" cy="0" r="7.9" fill="url(#g6)" stroke="#000000" stroke-width="1.4"/></g>
    <g id="a10"><radialGradient id="g10" cx=".5" cy=".5" fx=".33" fy=".33" r=".66"><stop offset="0%" stop-color="#ffffff"/><stop offset="100%" stop-color="#cdcdcd"/></radialGradient><circle cx="0" cy="0" r="4.2" fill="url(#g10)" stroke="#0b0b0b" stroke-width="1.4"/></g>
    <g id="a11"><radialGradient id="g11" cx=".5" cy=".5" fx=".33" fy=".33" r=".66"><stop offset="0%" stop-color="#7489fa"/><stop offset="100%" stop-color="#2f47c8"/></radialGradient><circle cx="0" cy="0" r="7.4" fill="url(#g11)" stroke="#0f0f0f" stroke-width="1.4"/></g>
    <g id="a12"><radialGradient id="g12" cx=".5" cy=".5" fx=".33" fy=".33" r=".66"><stop offset="0%" stop-color="#c4c4c4"/><stop offset="100%" stop-color="#8a8a8a"/></radialGradient><circle cx="0" cy="0" r="7.9" fill="url(#g12)" stroke="#070707" stroke-width="1.4"/></g>
    <g id="a13"><radialGradient id="g13" cx=".5" cy=".5" fx=".33" fy=".33" r=".66"><stop offset="0%" stop-color="#c5c5c5"/><stop offset="100%" stop-color="#8d8d8d"/></radialGradient><circle cx="0" cy="0" r="7.9" fill="url(#g13)" stroke="#0f0f0f" stroke-width="1.4"/></g>
    <g id="a14"><radialGradient id="g14" cx=".5" cy=".5" fx=".33" fy=".33" r=".66"><stop offset="0%" stop-color="#ff6464"/><stop offset="100%" stop-color="#d02020"/></radialGradient><circle cx="0" cy="0" r="7.1" fill="url(#g14)" stroke="#212121" stroke-width="1.4"/></g>
    <g id="a15"><radialGradient id="g15" cx=".5" cy=".5" fx=".33" fy=".33" r=".66"><stop offset="0%" stop-color="#ffffff"/><stop offset="100%" stop-color="#d0d0d0"/></radialGradient><circle cx="0" cy="0" r="4.2" fill="url(#g15)" stroke="#212121" stroke-width="1.4"/></g>
    <g id="a17"><radialGradient id="g17" cx=".5" cy=".5" fx=".33" fy=".33" r=".66"><stop offset="0%" stop-color="#cacaca"/><stop offset="100%" stop-color="#969696"/></radialGradient><circle cx="0" cy="0" r="7.9" fill="url(#g17)" stroke="#2b2b2b" stroke-width="1.4"/></g>
    <g id="a21"><radialGradient id="g21" cx=".5" cy=".5" fx=".33" fy=".33" r=".66"><stop offset="0%" stop-color="#7287fa"/><stop offset="100%" stop-color="#2c45c7"/></radialGradient><circle cx="0" cy="0" r="7.4" fill="url(#g21)" stroke="#0a0a0a" stroke-width="1.4"/></g>
    <g id="a22"><radialGradient id="g22" cx=".5" cy=".5" fx=".33" fy=".33" r=".66"><stop offset="0%" stop-color="#c6c6c6"/><stop offset="100%" stop-color="#8e8e8e"/></radialGradient><circle cx="0" cy="0" r="7.9" fill="url(#g22)" stroke="#131313" stroke-width="1.4"/></g>
    <g id="a23"><radialGradient id="g23" cx=".5" cy=".5" fx=".33" fy=".33" r=".66"><stop offset="0%" stop-color="#c4c4c4"/><stop offset="100%" stop-color="#8b8b8b"/></radialGradient><circle cx="0" cy="0" r="7.9" fill="url(#g23)" stroke="#090909" stroke-width="1.4"/></g>
    <g id="a24"><radialGradient id="g24" cx=".5" cy=".5" fx=".33" fy=".33" r=".66"><stop offset="0%" stop-color="#ff5555"/><stop offset="100%" stop-color="#cc0b0b"/></radialGradient><circle cx="0" cy="0" r="7.1" fill="url(#g24)" stroke="#010101" stroke-width="1.4"/></g>
    <g id="a25"><radialGradient id="g25" cx=".5" cy=".5" fx=".33" fy=".33" r=".66"><stop offset="0%" stop-color="#ffffff"/><stop offset="100%" stop-color="#cccccc"/></radialGradient><circle cx="0" cy="0" r="4.2" fill="url(#g25)" stroke="#010101" stroke-width="1.4"/></g>
    <g id="a27"><radialGradient id="g27" cx=".5" cy=".5" fx=".33" fy=".33" r=".66"><stop offset="0%" stop-color="#c3c3c3"/><stop offset="100%" stop-color="#888888"/></radialGradient><circle cx="0" cy="0" r="7.9" fill="url(#g27)" stroke="#000000" stroke-width="1.4"/></g>
    <g id="a31"><radialGradient id="g31" cx=".5" cy=".5" fx=".33" fy=".33" r=".66"><stop offset="0%" stop-color="#7489fa"/><stop offset="100%" stop-color="#2f48c8"/></radialGradient><circle cx="0" cy="0" r="7.4" fill="url(#g31)" stroke="#0f0f0f" stroke-width="1.4"/></g>
    <g id="a32"><radialGradient id="g32" cx=".5" cy=".5" fx=".33" fy=".33" r=".66"><stop offset="0%" stop-color="#c4c4c4"/><stop offset="100%" stop-color="#8a8a8a"/></radialGradient><circle cx="0" cy="0" r="7.9" fill="url(#g32)" stroke="#070707" stroke-width="1.4"/></g>
    <g id="a33"><radialGradient id="g33" cx=".5" cy=".5" fx=".33" fy=".33" r=".66"><stop offset="0%" stop-color="#c5c5c5"/><stop offset="100%" stop-color="#8d8d8d"/></radialGradient><circle cx="0" cy="0" r="7.9" fill="url(#g33)" stroke="#101010" stroke-width="1.4"/></g>
    <g id="a34"><radialGradient id="g34" cx=".5" cy=".5" fx=".33" fy=".33" r=".66"><stop offset="0%" stop-color="#ff6464"/><stop offset="100%" stop-color="#d02121"/></radialGradient><circle cx="0" cy="0" r="7.1" fill="url(#g34)" stroke="#222222" stroke-width="1.4"/></g>
    <g id="a35"><radialGradient id="g35" cx=".5" cy=".5" fx=".33" fy=".33" r=".66"><stop offset="0%" stop-color="#ffffff"/><stop offset="100%" stop-color="#d0d0d0"/></radialGradient><circle cx="0" cy="0" r="4.2" fill="url(#g35)" stroke="#222222" stroke-width="1.4"/></g>
    <g id="a37"><radialGradient id="g37" cx=".5" cy=".5" fx=".33" fy=".33" r=".66"><stop offset="0%" stop-color="#cacaca"/><stop offset="100%" stop-color="#969696"/></radialGradient><circle cx="0" cy="0" r="7.9" fill="url(#g37)" stroke="#2c2c2c" stroke-width="1.4"/></g>
    <g id="a41"><radialGradient id="g41" cx=".5" cy=".5" fx=".33" fy=".33" r=".66"><stop offset="0%" stop-color="#7287fa"/><stop offset="100%" stop-color="#2c45c7"/></radialGradient><circle cx="0" cy="0" r="7.4" fill="url(#g41)" stroke="#0a0a0a" stroke-width="1.4"/></g>
    <g id="a42"><radialGradient id="g42" cx=".5" cy=".5" fx=".33" fy=".33" r=".66"><stop offset="0%" stop-color="#c6c6c6"/><stop offset="100%" stop-color="#8e8e8e"/></radialGradient><circle cx="0" cy="0" r="7.9" fill="url(#g42)" stroke="#141414" stroke-width="1.4"/></g>
    <g id="a43"><radialGradient id="g43" cx=".5" cy=".5" fx=".33" fy=".33" r=".66"><stop offset="0%" stop-color="#c4c4c4"/><stop offset="100%" stop-color="#8b8b8b"/></radialGradient><circle cx="0" cy="0" r="7.9" fill="url(#g43)" stroke="#0a0a0a" stroke-width="1.4"/></g>
    <g id="a44"><radialGradient id="g44" cx=".5" cy=".5" fx=".33" fy=".33" r=".66"><stop offset="0%" stop-color="#ff5555"/><stop offset="100%" stop-color="#cc0b0b"/></radialGradient><circle cx="0" cy="0" r="7.1" fill="url(#g44)" stroke="#010101" stroke-width="1.4"/></g>
    <g id="a45"><radialGradient id="g45" cx=".5" cy=".5" fx=".33" fy=".33" r=".66"><stop offset="0%" stop-color="#c3c3c3"/><stop offset="100%" stop-color="#888888"/></radialGradient><circle cx="0" cy="0" r="7.9" fill="url(#g45)" stroke="#000000" stroke-width="1.4"/></g>
    <g id="a46"><radialGradient id="g46" cx=".5" cy=".5" fx=".33" fy=".33" r=".66"><stop offset="0%" stop-color="#c4c4c4"/><stop offset="100%" stop-color="#8b8b8b"/></radialGradient><circle cx="0" cy="0" r="7.9" fill="url(#g46)" stroke="#0a0a0a" stroke-width="1.4"/></g>
    <g id="a47"><radialGradient id="g47" cx=".5" cy=".5" fx=".33" fy=".33" r=".66"><stop offset="0%" stop-color="#c3c3c3"/><stop offset="100%" stop-color="#888888"/></radialGradient><circle cx="0" cy="0" r="7.9" fill="url(#g47)" stroke="#000000" stroke-width="1.4"/></g>
    <g id="a48"><radialGradient id="g48" cx=".5" cy=".5" fx=".33" fy=".33" r=".66"><stop offset="0%" stop-color="#c4c4c4"/><stop offset="100%" stop-color="#8b8b8b"/></radialGradient><circle cx="0" cy="0" r="7.9" fill="url(#g48)" stroke="#0a0a0a" stroke-width="1.4"/></g>
    <g id="a49"><radialGradient id="g49" cx=".5" cy=".5" fx=".33" fy=".33" r=".66"><stop offset="0%" stop-color="#cecece"/><stop offset="100%" stop-color="#9e9e9e"/></radialGradient><circle cx="0" cy="0" r="7.9" fill="url(#g49)" stroke="#434343" stroke-width="1.4"/></g>
    <g id="a50"><radialGradient id="g50" cx=".5" cy=".5" fx=".33" fy=".33" r=".66"><stop offset="0%" stop-color="#d5d5d5"/><stop offset="100%" stop-color="#adadad"/></radialGradient><circle cx="0" cy="0" r="7.9" fill="url(#g50)" stroke="#727272" stroke-width="1.4"/></g>
    <g id="a51"><radialGradient id="g51" cx=".5" cy=".5" fx=".33" fy=".33" r=".66"><stop offset="0%" stop-color="#cecece"/><stop offset="100%" stop-color="#9d9d9d"/></radialGradient><circle cx="0" cy="0" r="7.9" fill="url(#g51)" stroke="#434343" stroke-width="1.4"/></g>
    <g id="a52"><radialGradient id="g52" cx=".5" cy=".5" fx=".33" fy=".33" r=".66"><stop offset="0%" stop-color="#ffffff"/><stop offset="100%" stop-color="#cccccc"/></radialGradient><circle cx="0" cy="0" r="4.2" fill="url(#g52)" stroke="#000000" stroke-width="1.4"/></g>
    <g id="a61"><radialGradient id="g61" cx=".5" cy=".5" fx=".33" fy=".33" r=".66"><stop offset="0%" stop-color="#7489fa"/><stop offset="100%" stop-color="#2f48c8"/></radialGradient><circle cx="0" cy="0" r="7.4" fill="url(#g61)" stroke="#0f0f0f" stroke-width="1.4"/></g>
    <g id="a62"><radialGradient id="g62" cx=".5" cy=".5" fx=".33" fy=".33" r=".66"><stop offset="0%" stop-color="#c4c4c4"/><stop offset="100%" stop-color="#8a8a8a"/></radialGradient><circle cx="0" cy="0" r="7.9" fill="url(#g62)" stroke="#070707" stroke-width="1.4"/></g>
    <g id="a63"><radialGradient id="g63" cx=".5" cy=".5" fx=".33" fy=".33" r=".66"><stop offset="0%" stop-color="#c5c5c5"/><stop offset="100%" stop-color="#8d8d8d"/></radialGradient><circle cx="0" cy="0" r="7.9" fill="url(#g63)" stroke="#0f0f0f" stroke-width="1.4"/></g>
    <g id="a64"><radialGradient id="g64" cx=".5" cy=".5" fx=".33" fy=".33" r=".66"><stop offset="0%" stop-color="#ff6464"/><stop offset="100%" stop-color="#d02020"/></radialGradient><circle cx="0" cy="0" r="7.1" fill="url(#g64)" stroke="#212121" stroke-width="1.4"/></g>
    <g id="a65"><radialGradient id="g65" cx=".5" cy=".5" fx=".33" fy=".33" r=".66"><stop offset="0%" stop-color="#ffffff"/><stop offset="100%" stop-color="#d0d0d0"/></radialGradient><circle cx="0" cy="0" r="4.2" fill="url(#g65)" stroke="#222222" stroke-width="1.4"/></g>
    <g id="a67"><radialGradient id="g67" cx=".5" cy=".5" fx=".33" fy=".33" r=".66"><stop offset="0%" stop-color="#cacaca"/><stop offset="100%" stop-color="#969696"/></radialGradient><circle cx="0" cy="0" r="7.9" fill="url(#g67)" stroke="#2b2b2b" stroke-width="1.4"/></g>
    <g id="a71"><radialGradient id="g71" cx=".5" cy=".5" fx=".33" fy=".33" r=".66"><stop offset="0%" stop-color="#7187fa"/><stop offset="100%" stop-color="#2b45c7"/></radialGradient><circle cx="0" cy="0" r="7.4" fill="url(#g71)" stroke="#090909" stroke-width="1.4"/></g>
    <g id="a72"><radialGradient id="g72" cx=".5" cy=".5" fx=".33" fy=".33" r=".66"><stop offset="0%" stop-color="#c6c6c6"/><stop offset="100%" stop-color="#8e8e8e"/></radialGradient><circle cx="0" cy="0" r="7.9" fill="url(#g72)" stroke="#131313" stroke-width="1.4"/></g>
    <g id="a73"><radialGradient id="g73" cx=".5" cy=".5" fx=".33" fy=".33" r=".66"><stop offset="0%" stop-color="#c4c4c4"/><stop offset="100%" stop-color="#8b8b8b"/></radialGradient><circle cx="0" cy="0" r="7.9" fill="url(#g73)" stroke="#090909" stroke-width="1.4"/></g>
    <g id="a74"><radialGradient id="g74" cx=".5" cy=".5" fx=".33" fy=".33" r=".66"><stop offset="0%" stop-color="#ff5555"/><stop offset="100%" stop-color="#cc0b0b"/></radialGradient><circle cx="0" cy="0" r="7.1" fill="url(#g74)" stroke="#010101" stroke-width="1.4"/></g>
    <g id="a75"><radialGradient id="g75" cx=".5" cy=".5" fx=".33" fy=".33" r=".66"><stop offset="0%" stop-color="#ffffff"/><stop offset="100%" stop-color="#cccccc"/></radialGradient><circle cx="0" cy="0" r="4.2" fill="url(#g75)" stroke="#010101" stroke-width="1.4"/></g>
    <g id="a77"><radialGradient id="g77" cx=".5" cy=".5" fx=".33" fy=".33" r=".66"><stop offset="0%" stop-color="#c3c3c3"/><stop offset="100%" stop-color="#888888"/></radialGradient><circle cx="0" cy="0" r="7.9" fill="url(#g77)" stroke="#000000" stroke-width="1.4"/></g>
    <g id="a81"><radialGradient id="g81" cx=".5" cy=".5" fx=".33" fy=".33" r=".66"><stop offset="0%" stop-color="#7388fa"/><stop offset="100%" stop-color="#2e47c8"/></radialGradient><circle cx="0" cy="0" r="7.4" fill="url(#g81)" stroke="#0e0e0e" stroke-width="1.4"/></g>
    <g id="a82"><radialGradient id="g82" cx=".5" cy=".5" fx=".33" fy=".33" r=".66"><stop offset="0%" stop-color="#c4c4c4"/><stop offset="100%" stop-color="#8a8a8a"/></radialGradient><circle cx="0" cy="0" r="7.9" fill="url(#g82)" stroke="#060606" stroke-width="1.4"/></g>
    <g id="a83"><radialGradient id="g83" cx=".5" cy=".5" fx=".33" fy=".33" r=".66"><stop offset="0%" stop-color="#c5c5c5"/><stop offset="100%" stop-color="#8c8c8c"/></radialGradient><circle cx="0" cy="0" r="7.9" fill="url(#g83)" stroke="#0e0e0e" stroke-width="1.4"/></g>
    <g id="a84"><radialGradient id="g84" cx=".5" cy=".5" fx=".33" fy=".33" r=".66"><stop offset="0%" stop-color="#ff6363"/><stop offset="100%" stop-color="#d01f1f"/></radialGradient><circle cx="0" cy="0" r="7.1" fill="url(#g84)" stroke="#1f1f1f" stroke-width="1.4"/></g>
    <g id="a85"><radialGradient id="g85" cx=".5" cy=".5" fx=".33" fy=".33" r=".66"><stop offset="0%" stop-color="#ffffff"/><stop offset="100%" stop-color="#d0d0d0"/></radialGradient><circle cx="0" cy="0" r="4.2" fill="url(#g85)" stroke="#202020" stroke-width="1.4"/></g>
    <g id="a87"><radialGradient id="g87" cx=".5" cy=".5" fx=".33" fy=".33" r=".66"><stop offset="0%" stop-color="#c9c9c9"/><stop offset="100%" stop-color="#959595"/></radialGradient><circle cx="0" cy="0" r="7.9" fill="url(#g87)" stroke="#292929" stroke-width="1.4"/></g>
    <g id="a91"><radialGradient id="g91" cx=".5" cy=".5" fx=".33" fy=".33" r=".66"><stop offset="0%" stop-color="#7187fa"/><stop offset="100%" stop-color="#2b44c7"/></radialGradient><circle cx="0" cy="0" r="7.4" fill="url(#g91)" stroke="#080808" stroke-width="1.4"/></g>
    <g id="a92"><radialGradient id="g92" cx=".5" cy=".5" fx=".33" fy=".33" r=".66"><stop offset="0%" stop-color="#c5c5c5"/><stop offset="100%" stop-color="#8d8d8d"/></radialGradient><circle cx="0" cy="0" r="7.9" fill="url(#g92)" stroke="#111111" stroke-width="1.4"/></g>
    <g id="a93"><radialGradient id="g93" cx=".5" cy=".5" fx=".33" fy=".33" r=".66"><stop offset="0%" stop-color="#c4c4c4"/><stop offset="100%" stop-color="#8a8a8a"/></radialGradient><circle cx="0" cy="0" r="7.9" fill="url(#g93)" stroke="#080808" stroke-width="1.4"/></g>
    <g id="a94"><radialGradient id="g94" cx=".5" cy=".5" fx=".33" fy=".33" r=".66"><stop offset="0%" stop-color="#ff5555"/><stop offset="100%" stop-color="#cc0a0a"/></radialGradient><circle cx="0" cy="0" r="7.1" fill="url(#g94)" stroke="#010101" stroke-width="1.4"/></g>
    <g id="a95"><radialGradient id="g95" cx=".5" cy=".5" fx=".33" fy=".33" r=".66"><stop offset="0%" stop-color="#ffffff"/><stop offset="100%" stop-color="#cccccc"/></radialGradient><circle cx="0" cy="0" r="4.2" fill="url(#g95)" stroke="#010101" stroke-width="1.4"/></g>
    <g id="a97"><radialGradient id="g97" cx=".5" cy=".5" fx=".33" fy=".33" r=".66"><stop offset="0%" stop-color="#c3c3c3"/><stop offset="100%" stop-color="#888888"/></radialGradient><circle cx="0" cy="0" r="7.9" fill="url(#g97)" stroke="#000000" stroke-width="1.4"/></g>
    <g id="a101"><radialGradient id="g101" cx=".5" cy=".5" fx=".33" fy=".33" r=".66"><stop offset="0%" stop-color="#ff5b5b"/><stop offset="100%" stop-color="#cd1313"/></radialGradient><circle cx="0" cy="0" r="7.1" fill="url(#g101)" stroke="#0e0e0e" stroke-width="1.4"/></g>
    <g id="a102"><radialGradient id="g102" cx=".5" cy=".5" fx=".33" fy=".33" r=".66"><stop offset="0%" stop-color="#ffffff"/><stop offset="100%" stop-color="#cfcfcf"/></radialGradient><circle cx="0" cy="0" r="4.2" fill="url(#g102)" stroke="#1c1c1c" stroke-width="1.4"/></g>
  </defs>
  <use x="422.8" y="50.8" xlink:href="#a50"/>
  <line x1="429.2" y1="49.5" x2="444.1" y2="46.4" stroke="#323232" stroke-width="3.5" stroke-linecap="round"/>
  <line x1="418.7" y1="55.9" x2="409.2" y2="67.8" stroke="#323232" stroke-width="3.5" stroke-linecap="round"/>
  <use x="450.5" y="45.1" xlink:href="#a49"/>
  <line x1="452.8" y1="48.9" x2="458.2" y2="57.7" stroke="#121212" stroke-width="3.5" stroke-linecap="round"/>
  <use x="405.2" y="72.9" xlink:href="#a51"/>
  <line x1="407.4" y1="76.8" x2="412.8" y2="85.7" stroke="#121212" stroke-width="3.5" stroke-linecap="round"/>
  <use x="315.4" y="195.1" xlink:href="#a37"/>
  <line x1="315.3" y1="189.2" x2="315.2" y2="173.1" stroke="#0c0c0c" stroke-width="3.5" stroke-linecap="round"/>
  <use x="475.0" y="196.7" xlink:href="#a67"/>
  <line x1="475.1" y1="190.8" x2="475.2" y2="174.7" stroke="#0c0c0c" stroke-width="3.5" stroke-linecap="round"/>
  <use x="154.8" y="195.2" xlink:href="#a17"/>
  <line x1="154.7" y1="189.3" x2="154.6" y2="173.2" stroke="#0b0b0b" stroke-width="3.5" stroke-linecap="round"/>
  <use x="635.6" y="200.1" xlink:href="#a87"/>
  <line x1="635.6" y1="194.2" x2="635.8" y2="178.1" stroke="#0b0b0b" stroke-width="3.5" stroke-linecap="round"/>
  <use x="341.2" y="122.7" xlink:href="#a34"/>
  <line x1="341.6" y1="128.7" x2="342.2" y2="141.6" stroke="#0d0d0d" stroke-width="3.5" stroke-linecap="round"/>
  <use x="291.8" y="129.0" xlink:href="#a35"/>
  <line x1="291.4" y1="132.4" x2="290.0" y2="143.3" stroke="#0d0d0d" stroke-width="3.5" stroke-linecap="round"/>
  <use x="452.9" y="130.1" xlink:href="#a65"/>
  <line x1="452.4" y1="133.5" x2="450.7" y2="144.3" stroke="#0d0d0d" stroke-width="3.5" stroke-linecap="round"/>
  <use x="502.4" y="124.8" xlink:href="#a64"/>
  <line x1="502.6" y1="130.9" x2="502.9" y2="143.8" stroke="#0d0d0d" stroke-width="3.5" stroke-linecap="round"/>
  <use x="180.6" y="122.7" xlink:href="#a14"/>
  <line x1="180.9" y1="128.8" x2="181.6" y2="141.7" stroke="#0d0d0d" stroke-width="3.5" stroke-linecap="round"/>
  <use x="131.2" y="129.1" xlink:href="#a15"/>
  <line x1="130.8" y1="132.5" x2="129.4" y2="143.4" stroke="#0d0d0d" stroke-width="3.5" stroke-linecap="round"/>
  <use x="613.5" y="133.5" xlink:href="#a85"/>
  <line x1="613.0" y1="136.9" x2="611.3" y2="147.8" stroke="#0c0c0c" stroke-width="3.5" stroke-linecap="round"/>
  <use x="663.0" y="128.3" xlink:href="#a84"/>
  <line x1="663.2" y1="134.3" x2="663.5" y2="147.2" stroke="#0c0c0c" stroke-width="3.5" stroke-linecap="round"/>
  <use x="772.1" y="133.6" xlink:href="#a102"/>
  <line x1="771.8" y1="137.1" x2="770.9" y2="149.7" stroke="#0b0b0b" stroke-width="3.5" stroke-linecap="round"/>
  <use x="395.6" y="141.7" xlink:href="#a42"/>
  <line x1="389.8" y1="145.7" x2="375.0" y2="155.9" stroke="#080808" stroke-width="3.5" stroke-linecap="round"/>
  <line x1="401.2" y1="145.8" x2="416.9" y2="157.1" stroke="#080808" stroke-width="3.5" stroke-linecap="round"/>
  <line x1="395.7" y1="135.8" x2="395.9" y2="119.6" stroke="#030303" stroke-width="3.5" stroke-linecap="round"/>
  <use x="234.8" y="141.9" xlink:href="#a22"/>
  <line x1="229.1" y1="145.8" x2="214.3" y2="156.0" stroke="#080808" stroke-width="3.5" stroke-linecap="round"/>
  <line x1="240.6" y1="145.8" x2="256.5" y2="156.8" stroke="#080808" stroke-width="3.5" stroke-linecap="round"/>
  <line x1="234.9" y1="136.0" x2="235.0" y2="119.9" stroke="#030303" stroke-width="3.5" stroke-linecap="round"/>
  <use x="74.2" y="142.0" xlink:href="#a1"/>
  <line x1="68.5" y1="145.9" x2="53.7" y2="156.1" stroke="#070707" stroke-width="3.5" stroke-linecap="round"/>
  <line x1="80.0" y1="145.9" x2="95.9" y2="156.9" stroke="#070707" stroke-width="3.5" stroke-linecap="round"/>
  <line x1="74.3" y1="136.1" x2="74.4" y2="120.0" stroke="#030303" stroke-width="3.5" stroke-linecap="round"/>
  <use x="556.2" y="145.2" xlink:href="#a72"/>
  <line x1="550.3" y1="149.0" x2="535.3" y2="158.9" stroke="#080808" stroke-width="3.5" stroke-linecap="round"/>
  <line x1="561.8" y1="149.2" x2="577.5" y2="160.5" stroke="#070707" stroke-width="3.5" stroke-linecap="round"/>
  <line x1="556.3" y1="139.3" x2="556.7" y2="123.2" stroke="#030303" stroke-width="3.5" stroke-linecap="round"/>
  <use x="716.8" y="148.6" xlink:href="#a92"/>
  <line x1="710.9" y1="152.4" x2="695.9" y2="162.3" stroke="#070707" stroke-width="3.5" stroke-linecap="round"/>
  <line x1="722.4" y1="152.7" x2="738.1" y2="164.0" stroke="#070707" stroke-width="3.5" stroke-linecap="round"/>
  <line x1="716.9" y1="142.7" x2="717.3" y2="126.6" stroke="#020202" stroke-width="3.5" stroke-linecap="round"/>
  <use x="342.6" y="148.3" xlink:href="#a33"/>
  <line x1="349.1" y1="151.0" x2="363.4" y2="157.1" stroke="#070707" stroke-width="3.5" stroke-linecap="round"/>
  <line x1="336.8" y1="152.3" x2="320.9" y2="163.3" stroke="#060606" stroke-width="3.5" stroke-linecap="round"/>
  <use x="182.0" y="148.4" xlink:href="#a13"/>
  <line x1="188.5" y1="151.1" x2="202.8" y2="157.2" stroke="#070707" stroke-width="3.5" stroke-linecap="round"/>
  <line x1="176.2" y1="152.4" x2="160.3" y2="163.4" stroke="#060606" stroke-width="3.5" stroke-linecap="round"/>
  <use x="503.1" y="150.5" xlink:href="#a63"/>
  <line x1="509.5" y1="153.4" x2="523.8" y2="159.8" stroke="#070707" stroke-width="3.5" stroke-linecap="round"/>
  <line x1="497.3" y1="154.3" x2="481.1" y2="165.0" stroke="#060606" stroke-width="3.5" stroke-linecap="round"/>
  <use x="449.8" y="150.4" xlink:href="#a61"/>
  <line x1="443.6" y1="152.8" x2="429.1" y2="158.6" stroke="#070707" stroke-width="3.5" stroke-linecap="round"/>
  <line x1="455.1" y1="154.2" x2="469.6" y2="164.7" stroke="#060606" stroke-width="3.5" stroke-linecap="round"/>
  <use x="289.2" y="149.4" xlink:href="#a31"/>
  <line x1="283.1" y1="151.9" x2="268.8" y2="158.0" stroke="#070707" stroke-width="3.5" stroke-linecap="round"/>
  <line x1="294.6" y1="153.1" x2="309.4" y2="163.3" stroke="#060606" stroke-width="3.5" stroke-linecap="round"/>
  <use x="128.6" y="149.4" xlink:href="#a11"/>
  <line x1="122.5" y1="152.0" x2="108.1" y2="158.1" stroke="#060606" stroke-width="3.5" stroke-linecap="round"/>
  <line x1="134.0" y1="153.2" x2="148.8" y2="163.4" stroke="#060606" stroke-width="3.5" stroke-linecap="round"/>
  <use x="663.7" y="154.0" xlink:href="#a83"/>
  <line x1="670.1" y1="156.8" x2="684.4" y2="163.2" stroke="#060606" stroke-width="3.5" stroke-linecap="round"/>
  <line x1="657.9" y1="157.8" x2="641.7" y2="168.4" stroke="#050505" stroke-width="3.5" stroke-linecap="round"/>
  <use x="610.4" y="153.8" xlink:href="#a81"/>
  <line x1="604.2" y1="156.3" x2="589.7" y2="162.0" stroke="#060606" stroke-width="3.5" stroke-linecap="round"/>
  <line x1="615.7" y1="157.7" x2="630.2" y2="168.2" stroke="#050505" stroke-width="3.5" stroke-linecap="round"/>
  <use x="770.5" y="155.7" xlink:href="#a101"/>
  <line x1="764.7" y1="158.4" x2="750.1" y2="165.1" stroke="#060606" stroke-width="3.5" stroke-linecap="round"/>
  <use x="27.9" y="150.8" xlink:href="#a10"/>
  <line x1="31.3" y1="152.3" x2="42.2" y2="157.1" stroke="#050505" stroke-width="3.5" stroke-linecap="round"/>
  <use x="369.6" y="159.7" xlink:href="#a41"/>
  <line x1="370.4" y1="165.1" x2="371.9" y2="174.9" stroke="#020202" stroke-width="3.5" stroke-linecap="round"/>
  <use x="460.5" y="61.4" xlink:href="#a48"/>
  <line x1="456.5" y1="66.5" x2="447.0" y2="78.4" stroke="#020202" stroke-width="3.5" stroke-linecap="round"/>
  <use x="208.9" y="159.8" xlink:href="#a21"/>
  <line x1="209.7" y1="165.8" x2="211.2" y2="176.7" stroke="#020202" stroke-width="3.5" stroke-linecap="round"/>
  <use x="422.5" y="161.2" xlink:href="#a43"/>
  <line x1="422.0" y1="167.9" x2="421.0" y2="180.8" stroke="#020202" stroke-width="3.5" stroke-linecap="round"/>
  <use x="415.1" y="89.5" xlink:href="#a46"/>
  <line x1="421.5" y1="88.1" x2="436.5" y2="84.9" stroke="#020202" stroke-width="3.5" stroke-linecap="round"/>
  <line x1="411.0" y1="94.7" x2="400.0" y2="108.6" stroke="#010101" stroke-width="3.5" stroke-linecap="round"/>
  <use x="262.3" y="160.7" xlink:href="#a23"/>
  <line x1="262.0" y1="167.5" x2="261.3" y2="180.4" stroke="#020202" stroke-width="3.5" stroke-linecap="round"/>
  <use x="529.8" y="162.5" xlink:href="#a71"/>
  <line x1="530.5" y1="168.6" x2="531.6" y2="179.5" stroke="#020202" stroke-width="3.5" stroke-linecap="round"/>
  <use x="48.3" y="159.9" xlink:href="#a0"/>
  <line x1="49.1" y1="165.9" x2="50.5" y2="176.8" stroke="#020202" stroke-width="3.5" stroke-linecap="round"/>
  <use x="101.7" y="160.8" xlink:href="#a2"/>
  <line x1="101.3" y1="167.6" x2="100.7" y2="180.5" stroke="#020202" stroke-width="3.5" stroke-linecap="round"/>
  <use x="583.1" y="164.6" xlink:href="#a73"/>
  <line x1="582.6" y1="171.3" x2="581.7" y2="184.2" stroke="#020202" stroke-width="3.5" stroke-linecap="round"/>
  <use x="690.4" y="165.9" xlink:href="#a91"/>
  <line x1="691.1" y1="172.0" x2="692.2" y2="182.9" stroke="#020202" stroke-width="3.5" stroke-linecap="round"/>
  <use x="743.7" y="168.1" xlink:href="#a93"/>
  <line x1="743.2" y1="174.8" x2="742.3" y2="187.7" stroke="#020202" stroke-width="3.5" stroke-linecap="round"/>
  <use x="315.2" y="167.2" xlink:href="#a32"/>
  <use x="475.3" y="168.8" xlink:href="#a62"/>
  <use x="154.6" y="167.3" xlink:href="#a12"/>
  <use x="635.9" y="172.2" xlink:href="#a82"/>
  <use x="420.5" y="186.8" xlink:href="#a44"/>
  <use x="261.0" y="186.4" xlink:href="#a24"/>
  <use x="211.6" y="180.1" xlink:href="#a25"/>
  <use x="532.0" y="182.9" xlink:href="#a75"/>
  <use x="100.4" y="186.5" xlink:href="#a3"/>
  <use x="51.0" y="180.2" xlink:href="#a4"/>
  <use x="581.2" y="190.3" xlink:href="#a74"/>
  <use x="692.6" y="186.3" xlink:href="#a95"/>
  <use x="741.8" y="193.7" xlink:href="#a94"/>
  <use x="442.9" y="83.5" xlink:href="#a47"/>
  <use x="372.4" y="178.0" xlink:href="#a52"/>
  <use x="395.9" y="113.7" xlink:href="#a45"/>
  <use x="235.1" y="114.0" xlink:href="#a27"/>
  <use x="556.9" y="117.3" xlink:href="#a77"/>
  <use x="74.5" y="114.1" xlink:href="#a6"/>
  <use x="717.5" y="120.7" xlink:href="#a97"/>
</svg>