<svg xmlns="http://www.w3.org/2000/svg" xmlns:xlink="http://www.w3.org/1999/xlink" width="800" height="447">
  <rect width="100%" height="100%" fill="#ffffff"/>
  <defs>
    <g id="a0"><radialGradient id="g0" cx=".5" cy=".5" fx=".33" fy=".33" r=".66"><stop offset="0%" stop-color="#6e84fa"/><stop offset="100%" stop-color="#2640c6"/></radialGradient><circle cx="0" cy="0" r="18.7" fill="url(#g0)" stroke="#000000" stroke-width="3.5"/></g>
    <g id="a1"><radialGradient id="g1" cx=".5" cy=".5" fx=".33" fy=".33" r=".66"><stop offset="0%" stop-color="#c3c3c3"/><stop offset="100%" stop-color="#888888"/></radialGradient><circle cx="0" cy="0" r="19.8" fill="url(#g1)" stroke="#000000" stroke-width="3.5"/></g>
    <g id="a2"><radialGradient id="g2" cx=".5" cy=".5" fx=".33" fy=".33" r=".66"><stop offset="0%" stop-color="#ffffff"/><stop offset="100%" stop-color="#cccccc"/></radialGradient><circle cx="0" cy="0" r="10.4" fill="url(#g2)" stroke="#000000" stroke-width="3.5"/></g>
    <g id="a3"><radialGradient id="g3" cx=".5" cy=".5" fx=".33" fy=".33" r=".66"><stop offset="0%" stop-color="#6e84fa"/><stop offset="100%" stop-color="#2640c6"/></radialGradient><circle cx="0" cy="0" r="18.7" fill="url(#g3)" stroke="#000000" stroke-width="3.5"/></g>
    <g id="a4"><radialGradient id="g4" cx=".5" cy=".5" fx=".33" fy=".33" r=".66"><stop offset="0%" stop-color="#c3c3c3"/><stop offset="100%" stop-color="#888888"/></radialGradient><circle cx="0" cy="0" r="19.8" fill="url(#g4)" stroke="#000000" stroke-width="3.5"/></g>
    <g id="a5"><radialGradient id="g5" cx=".5" cy=".5" fx=".33" fy=".33" r=".66"><stop offset="0%" stop-color="#c3c3c3"/><stop offset="100%" stop-color="#888888"/></radialGradient><circle cx="0" cy="0" r="19.8" fill="url(#g5)" stroke="#000000" stroke-width="3.5"/></g>
    <g id="a6"><radialGradient id="g6" cx=".5" cy=".5" fx=".33" fy=".33" r=".66"><stop offset="0%" stop-color="#c3c3c3"/><stop offset="100%" stop-color="#888888"/></radialGradient><circle cx="0" cy="0" r="19.8" fill="url(#g6)" stroke="#000000" stroke-width="3.5"/></g>
    <g id="a7"><radialGradient id="g7" cx=".5" cy=".5" fx=".33" fy=".33" r=".66"><stop offset="0%" stop-color="#6e84fa"/><stop offset="100%" stop-color="#2640c6"/></radialGradient><circle cx="0" cy="0" r="18.7" fill="url(#g7)" stroke="#000000" stroke-width="3.5"/></g>
    <g id="a8"><radialGradient id="g8" cx=".5" cy=".5" fx=".33" fy=".33" r=".66"><stop offset="0%" stop-color="#ffffff"/><stop offset="100%" stop-color="#cccccc"/></radialGradient><circle cx="0" cy="0" r="10.4" fill="url(#g8)" stroke="#000000" stroke-width="3.5"/></g>
    <g id="a9"><radialGradient id="g9" cx=".5" cy=".5" fx=".33" fy=".33" r=".66"><stop offset="0%" stop-color="#ffffff"/><stop offset="100%" stop-color="#cccccc"/></radialGradient><circle cx="0" cy="0" r="10.4" fill="url(#g9)" stroke="#000000" stroke-width="3.5"/></g>
    <g id="a10"><radialGradient id="g10" cx=".5" cy=".5" fx=".33" fy=".33" r=".66"><stop offset="0%" stop-color="#6e84fa"/><stop offset="100%" stop-color="#2640c6"/></radialGradient><circle cx="0" cy="0" r="18.7" fill="url(#g10)" stroke="#000000" stroke-width="3.5"/></g>
    <g id="a11"><radialGradient id="g11" cx=".5" cy=".5" fx=".33" fy=".33" r=".66"><stop offset="0%" stop-color="#c3c3c3"/><stop offset="100%" stop-color="#888888"/></radialGradient><circle cx="0" cy="0" r="19.8" fill="url(#g11)" stroke="#000000" stroke-width="3.5"/></g>
    <g id="a12"><radialGradient id="g12" cx=".5" cy=".5" fx=".33" fy=".33" r=".66"><stop offset="0%" stop-color="#ffffff"/><stop offset="100%" stop-color="#cccccc"/></radialGradient><circle cx="0" cy="0" r="10.4" fill="url(#g12)" stroke="#000000" stroke-width="3.5"/></g>
    <g id="a13"><radialGradient id="g13" cx=".5" cy=".5" fx=".33" fy=".33" r=".66"><stop offset="0%" stop-color="#6e84fa"/><stop offset="100%" stop-color="#2640c6"/></radialGradient><circle cx="0" cy="0" r="18.7" fill="url(#g13)" stroke="#000000" stroke-width="3.5"/></g>
    <g id="a14"><radialGradient id="g14" cx=".5" cy=".5" fx=".33" fy=".33" r=".66"><stop offset="0%" stop-color="#ffffff"/><stop offset="100%" stop-color="#cccccc"/></radialGradient><circle cx="0" cy="0" r="10.4" fill="url(#g14)" stroke="#000000" stroke-width="3.5"/></g>
    <g id="a15"><radialGradient id="g15" cx=".5" cy=".5" fx=".33" fy=".33" r=".66"><stop offset="0%" stop-color="#6e84fa"/><stop offset="100%" stop-color="#2640c6"/></radialGradient><circle cx="0" cy="0" r="18.7" fill="url(#g15)" stroke="#000000" stroke-width="3.5"/></g>
    <g id="a16"><radialGradient id="g16" cx=".5" cy=".5" fx=".33" fy=".33" r=".66"><stop offset="0%" stop-color="#ffffff"/><stop offset="100%" stop-color="#cccccc"/></radialGradient><circle cx="0" cy="0" r="10.4" fill="url(#g16)" stroke="#000000" stroke-width="3.5"/></g>
    <g id="a17"><radialGradient id="g17" cx=".5" cy=".5" fx=".33" fy=".33" r=".66"><stop offset="0%" stop-color="#c3c3c3"/><stop offset="100%" stop-color="#888888"/></radialGradient><circle cx="0" cy="0" r="19.8" fill="url(#g17)" stroke="#000000" stroke-width="3.5"/></g>
    <g id="a18"><radialGradient id="g18" cx=".5" cy=".5" fx=".33" fy=".33" r=".66"><stop offset="0%" stop-color="#ff5555"/><stop offset="100%" stop-color="#cc0a0a"/></radialGradient><circle cx="0" cy="0" r="17.8" fill="url(#g18)" stroke="#000000" stroke-width="3.5"/></g>
    <g id="a19"><radialGradient id="g19" cx=".5" cy=".5" fx=".33" fy=".33" r=".66"><stop offset="0%" stop-color="#6e84fa"/><stop offset="100%" stop-color="#2640c6"/></radialGradient><circle cx="0" cy="0" r="18.7" fill="url(#g19)" stroke="#000000" stroke-width="3.5"/></g>
    <g id="a20"><radialGradient id="g20" cx=".5" cy=".5" fx=".33" fy=".33" r=".66"><stop offset="0%" stop-color="#ffffff"/><stop offset="100%" stop-color="#cccccc"/></radialGradient><circle cx="0" cy="0" r="10.4" fill="url(#g20)" stroke="#000000" stroke-width="3.5"/></g>
    <g id="a21"><radialGradient id="g21" cx=".5" cy=".5" fx=".33" fy=".33" r=".66"><stop offset="0%" stop-color="#c3c3c3"/><stop offset="100%" stop-color="#888888"/></radialGradient><circle cx="0" cy="0" r="19.8" fill="url(#g21)" stroke="#000000" stroke-width="3.5"/></g>
    <g id="a22"><radialGradient id="g22" cx=".5" cy=".5" fx=".33" fy=".33" r=".66"><stop offset="0%" stop-color="#ffffff"/><stop offset="100%" stop-color="#cccccc"/></radialGradient><circle cx="0" cy="0" r="10.4" fill="url(#g22)" stroke="#000000" stroke-width="3.5"/></g>
    <g id="a23"><radialGradient id="g23" cx=".5" cy=".5" fx=".33" fy=".33" r=".66"><stop offset="0%" stop-color="#c3c3c3"/><stop offset="100%" stop-color="#888888"/></radialGradient><circle cx="0" cy="0" r="19.8" fill="url(#g23)" stroke="#000000" stroke-width="3.5"/></g>
    <g id="a24"><radialGradient id="g24" cx=".5" cy=".5" fx=".33" fy=".33" r=".66"><stop offset="0%" stop-color="#c3c3c3"/><stop offset="100%" stop-color="#888888"/></radialGradient><circle cx="0" cy="0" r="19.8" fill="url(#g24)" stroke="#000000" stroke-width="3.5"/></g>
    <g id="a25"><radialGradient id="g25" cx=".5" cy=".5" fx=".33" fy=".33" r=".66"><stop offset="0%" stop-color="#ffffff"/><stop offset="100%" stop-color="#cccccc"/></radialGradient><circle cx="0" cy="0" r="10.4" fill="url(#g25)" stroke="#000000" stroke-width="3.5"/></g>
    <g id="a26"><radialGradient id="g26" cx=".5" cy=".5" fx=".33" fy=".33" r=".66"><stop offset="0%" stop-color="#ffffff"/><stop offset="100%" stop-color="#cccccc"/></radialGradient><circle cx="0" cy="0" r="10.4" fill="url(#g26)" stroke="#000000" stroke-width="3.5"/></g>
    <g id="a27"><radialGradient id="g27" cx=".5" cy=".5" fx=".33" fy=".33" r=".66"><stop offset="0%" stop-color="#ffffff"/><stop offset="100%" stop-color="#d5d5d5"/></radialGradient><circle cx="0" cy="0" r="10.4" fill="url(#g27)" stroke="#434343" stroke-width="3.5"/></g>
    <g id="a28"><radialGradient id="g28" cx=".5" cy=".5" fx=".33" fy=".33" r=".66"><stop offset="0%" stop-color="#c3c3c3"/><stop offset="100%" stop-color="#888888"/></radialGradient><circle cx="0" cy="0" r="19.8" fill="url(#g28)" stroke="#000000" stroke-width="3.5"/></g>
    <g id="a29"><radialGradient id="g29" cx=".5" cy=".5" fx=".33" fy=".33" r=".66"><stop offset="0%" stop-color="#ff5555"/><stop offset="100%" stop-color="#cc0a0a"/></radialGradient><circle cx="0" cy="0" r="17.8" fill="url(#g29)" stroke="#000000" stroke-width="3.5"/></g>
  </defs>
  <use x="656.6" y="357.2" xlink:href="#a27"/>
  <line x1="658.7" y1="352.0" x2="666.0" y2="333.8" stroke="#090909" stroke-width="8.7" stroke-linecap="round"/>
  <use x="728.8" y="311.4" xlink:href="#a25"/>
  <line x1="719.6" y1="313.3" x2="687.4" y2="320.3" stroke="#000000" stroke-width="8.7" stroke-linecap="round"/>
  <use x="670.0" y="324.0" xlink:href="#a24"/>
  <line x1="660.2" y1="309.1" x2="634.5" y2="269.7" stroke="#000000" stroke-width="8.7" stroke-linecap="round"/>
  <line x1="666.0" y1="333.8" x2="658.7" y2="352.0" stroke="#000000" stroke-width="8.7" stroke-linecap="round"/>
  <use x="96.3" y="165.0" xlink:href="#a14"/>
  <line x1="102.9" y1="171.7" x2="123.5" y2="192.8" stroke="#000000" stroke-width="8.7" stroke-linecap="round"/>
  <use x="135.3" y="204.8" xlink:href="#a13"/>
  <line x1="138.2" y1="222.1" x2="132.6" y2="262.9" stroke="#000000" stroke-width="6.1" stroke-linecap="round" stroke-dasharray="6.1,12.2"/>
  <line x1="127.8" y1="220.7" x2="122.2" y2="261.4" stroke="#000000" stroke-width="6.1" stroke-linecap="round"/>
  <line x1="151.1" y1="197.2" x2="191.5" y2="191.2" stroke="#000000" stroke-width="6.1" stroke-linecap="round"/>
  <line x1="152.6" y1="207.5" x2="193.0" y2="201.6" stroke="#000000" stroke-width="6.1" stroke-linecap="round" stroke-dasharray="6.1,12.2"/>
  <use x="70.9" y="304.4" xlink:href="#a12"/>
  <line x1="79.4" y1="300.5" x2="108.7" y2="287.2" stroke="#000000" stroke-width="8.7" stroke-linecap="round"/>
  <use x="496.5" y="71.7" xlink:href="#a18"/>
  <line x1="505.4" y1="85.0" x2="523.8" y2="112.5" stroke="#000000" stroke-width="8.7" stroke-linecap="round"/>
  <use x="124.9" y="279.8" xlink:href="#a11"/>
  <line x1="142.9" y1="284.7" x2="174.5" y2="304.0" stroke="#000000" stroke-width="6.1" stroke-linecap="round" stroke-dasharray="6.1,12.2"/>
  <line x1="137.4" y1="293.6" x2="169.1" y2="313.0" stroke="#000000" stroke-width="6.1" stroke-linecap="round"/>
  <use x="209.9" y="193.8" xlink:href="#a4"/>
  <line x1="214.5" y1="175.8" x2="234.7" y2="142.1" stroke="#000000" stroke-width="6.1" stroke-linecap="round"/>
  <line x1="223.5" y1="181.2" x2="243.7" y2="147.4" stroke="#000000" stroke-width="6.1" stroke-linecap="round" stroke-dasharray="6.1,12.2"/>
  <line x1="221.9" y1="208.0" x2="238.8" y2="246.5" stroke="#000000" stroke-width="6.1" stroke-linecap="round"/>
  <line x1="212.3" y1="212.3" x2="229.2" y2="250.8" stroke="#000000" stroke-width="6.1" stroke-linecap="round" stroke-dasharray="6.1,12.2"/>
  <use x="247.8" y="130.3" xlink:href="#a3"/>
  <line x1="265.2" y1="127.5" x2="302.9" y2="132.9" stroke="#000000" stroke-width="6.1" stroke-linecap="round"/>
  <line x1="263.7" y1="137.9" x2="301.4" y2="143.3" stroke="#000000" stroke-width="6.1" stroke-linecap="round" stroke-dasharray="6.1,12.2"/>
  <use x="633.0" y="73.4" xlink:href="#a20"/>
  <line x1="629.2" y1="82.0" x2="617.1" y2="109.1" stroke="#000000" stroke-width="8.7" stroke-linecap="round"/>
  <use x="354.2" y="91.6" xlink:href="#a2"/>
  <line x1="348.9" y1="99.3" x2="330.1" y2="126.0" stroke="#000000" stroke-width="8.7" stroke-linecap="round"/>
  <use x="186.1" y="317.3" xlink:href="#a10"/>
  <line x1="194.7" y1="301.9" x2="224.7" y2="273.5" stroke="#000000" stroke-width="6.1" stroke-linecap="round" stroke-dasharray="6.1,12.2"/>
  <line x1="201.9" y1="309.5" x2="231.9" y2="281.1" stroke="#000000" stroke-width="6.1" stroke-linecap="round"/>
  <use x="241.2" y="265.0" xlink:href="#a5"/>
  <line x1="259.3" y1="260.7" x2="301.7" y2="262.9" stroke="#000000" stroke-width="6.1" stroke-linecap="round" stroke-dasharray="6.1,12.2"/>
  <line x1="258.8" y1="271.2" x2="301.1" y2="273.4" stroke="#000000" stroke-width="6.1" stroke-linecap="round"/>
  <use x="446.0" y="200.8" xlink:href="#a16"/>
  <line x1="455.3" y1="200.3" x2="488.3" y2="198.3" stroke="#000000" stroke-width="8.7" stroke-linecap="round"/>
  <use x="319.9" y="140.6" xlink:href="#a1"/>
  <line x1="333.2" y1="153.6" x2="352.5" y2="187.4" stroke="#000000" stroke-width="6.1" stroke-linecap="round"/>
  <line x1="324.1" y1="158.7" x2="343.4" y2="192.6" stroke="#000000" stroke-width="6.1" stroke-linecap="round" stroke-dasharray="6.1,12.2"/>
  <use x="319.2" y="269.1" xlink:href="#a6"/>
  <line x1="323.6" y1="251.0" x2="343.3" y2="216.6" stroke="#000000" stroke-width="6.1" stroke-linecap="round" stroke-dasharray="6.1,12.2"/>
  <line x1="332.7" y1="256.3" x2="352.4" y2="221.8" stroke="#000000" stroke-width="6.1" stroke-linecap="round"/>
  <line x1="328.4" y1="284.5" x2="348.3" y2="318.0" stroke="#000000" stroke-width="8.7" stroke-linecap="round"/>
  <use x="356.2" y="204.6" xlink:href="#a0"/>
  <use x="533.7" y="127.3" xlink:href="#a17"/>
  <line x1="551.5" y1="126.7" x2="593.5" y2="125.1" stroke="#000000" stroke-width="8.7" stroke-linecap="round"/>
  <line x1="531.8" y1="145.8" x2="516.2" y2="183.8" stroke="#000000" stroke-width="6.1" stroke-linecap="round"/>
  <line x1="522.1" y1="141.9" x2="506.5" y2="179.8" stroke="#000000" stroke-width="6.1" stroke-linecap="round"/>
  <use x="512.1" y="322.0" xlink:href="#a29"/>
  <line x1="515.0" y1="305.4" x2="531.1" y2="275.6" stroke="#000000" stroke-width="6.1" stroke-linecap="round"/>
  <line x1="524.3" y1="310.4" x2="540.4" y2="280.6" stroke="#000000" stroke-width="6.1" stroke-linecap="round"/>
  <use x="712.9" y="176.7" xlink:href="#a22"/>
  <line x1="703.6" y1="178.2" x2="671.4" y2="183.4" stroke="#000000" stroke-width="8.7" stroke-linecap="round"/>
  <use x="610.3" y="124.5" xlink:href="#a19"/>
  <line x1="619.9" y1="138.2" x2="643.5" y2="171.6" stroke="#000000" stroke-width="8.7" stroke-linecap="round"/>
  <use x="505.0" y="197.3" xlink:href="#a15"/>
  <line x1="513.7" y1="211.7" x2="535.0" y2="247.1" stroke="#000000" stroke-width="8.7" stroke-linecap="round"/>
  <use x="356.9" y="332.4" xlink:href="#a7"/>
  <line x1="348.3" y1="346.9" x2="333.3" y2="372.1" stroke="#000000" stroke-width="8.7" stroke-linecap="round"/>
  <line x1="373.7" y1="332.4" x2="404.1" y2="332.3" stroke="#000000" stroke-width="8.7" stroke-linecap="round"/>
  <use x="328.5" y="380.2" xlink:href="#a8"/>
  <use x="413.5" y="332.2" xlink:href="#a9"/>
  <use x="544.2" y="262.4" xlink:href="#a28"/>
  <line x1="562.0" y1="260.7" x2="606.9" y2="256.5" stroke="#000000" stroke-width="8.7" stroke-linecap="round"/>
  <use x="653.8" y="186.2" xlink:href="#a21"/>
  <line x1="651.7" y1="204.7" x2="636.5" y2="240.4" stroke="#000000" stroke-width="6.1" stroke-linecap="round"/>
  <line x1="642.0" y1="200.6" x2="626.9" y2="236.3" stroke="#000000" stroke-width="6.1" stroke-linecap="round"/>
  <use x="624.7" y="254.8" xlink:href="#a23"/>
  <use x="656.6" y="357.2" xlink:href="#a26"/>
  <path d="M 433.2 115.6 C 433.5 116.1 433.7 116.6 433.9 117.0 C 434.1 117.5 434.4 118.0 434.5 118.5 C 434.6 119.0 434.7 119.5 434.7 120.0 C 434.8 120.6 434.8 121.1 434.9 121.6 C 434.9 122.1 434.9 122.6 434.9 123.1 C 434.9 123.6 434.9 124.1 434.9 124.6 C 434.9 125.1 434.8 125.6 434.8 126.1 C 434.7 126.6 434.7 127.1 434.6 127.6 C 434.5 128.1 434.4 128.6 434.2 129.1 C 434.0 129.6 433.8 130.1 433.5 130.6 C 433.2 131.1 432.9 131.6 432.4 132.0 C 432.0 132.5 431.5 132.9 431.1 133.4 C 430.6 133.8 430.2 134.2 429.7 134.7 C 429.2 135.1 428.7 135.5 428.1 135.9 C 427.5 136.3 427.0 136.8 426.3 137.1 C 425.6 137.4 424.7 137.6 423.9 137.8 C 423.0 138.0 422.1 138.2 421.1 138.3 C 420.2 138.4 419.3 138.3 418.4 138.2 C 417.5 138.1 416.6 138.0 415.8 137.7 C 415.0 137.5 414.2 137.2 413.6 136.8 C 413.0 136.4 412.6 135.9 412.2 135.4 C 411.9 135.0 411.6 134.5 411.4 134.0 C 411.2 133.5 411.2 133.0 411.1 132.5 C 411.0 132.0 411.0 131.5 411.0 131.0 C 410.9 130.5 410.9 130.0 410.9 129.5 C 410.9 128.9 410.9 128.4 410.9 127.9 C 410.9 127.4 410.9 126.9 410.9 126.4 C 410.9 125.9 410.9 125.4 410.9 124.9 C 410.9 124.4 410.9 123.9 410.9 123.4 C 410.9 122.9 410.9 122.4 410.9 121.9 C 410.9 121.3 410.9 120.8 410.9 120.3 C 410.9 119.8 410.9 119.3 410.9 118.8 C 410.9 118.3 410.9 117.8 410.9 117.3 C 410.9 116.8 410.9 116.3 410.9 115.8 C 410.9 115.3 410.9 114.8 410.9 114.3 C 410.9 113.7 410.9 113.2 410.9 112.7 C 410.9 112.2 410.9 111.7 410.9 111.2 C 410.9 110.7 410.9 110.2 410.9 109.7 C 410.9 109.2 410.9 108.7 410.9 108.2 C 410.9 107.7 410.9 107.2 410.9 106.7 C 410.9 106.1 410.9 105.6 410.9 105.1 C 410.9 104.6 410.9 104.1 410.9 103.6 C 410.9 103.1 410.9 102.6 410.8 102.1 C 410.8 101.6 410.8 101.1 410.7 100.6 C 410.6 100.1 410.4 99.6 410.2 99.1 C 410.1 98.6 409.9 98.1 409.6 97.6 C 409.3 97.1 409.0 96.6 408.6 96.2 C 408.2 95.7 407.8 95.3 407.4 94.8 C 407.0 94.3 406.6 93.9 406.4 93.4 C 406.1 92.9 405.9 92.4 405.7 91.9 C 405.5 91.4 405.3 90.9 405.2 90.4 C 405.1 89.9 405.1 89.4 405.0 88.9 C 405.0 88.4 404.9 87.9 404.9 87.4 C 404.9 86.9 404.9 86.4 404.9 85.9 C 404.9 85.4 404.9 84.9 404.9 84.3 C 404.9 83.8 404.9 83.3 404.9 82.8 C 404.9 82.3 404.9 81.8 404.9 81.3 C 404.9 80.8 404.9 80.3 404.9 79.8 C 404.9 79.3 404.9 78.8 404.9 78.3 C 404.9 77.8 404.9 77.3 404.9 76.7 C 405.0 76.2 405.0 75.7 405.0 75.2 C 405.0 74.7 405.1 74.2 405.2 73.7 C 405.2 73.2 405.3 72.7 405.5 72.2 C 405.7 71.7 406.0 71.2 406.4 70.8 C 406.8 70.3 407.2 69.8 407.8 69.5 C 408.5 69.1 409.3 68.8 410.1 68.6 C 410.9 68.4 411.9 68.2 412.8 68.1 C 413.7 68.0 414.6 68.1 415.5 68.2 C 416.4 68.3 417.4 68.4 418.2 68.7 C 419.0 68.9 419.8 69.2 420.4 69.6 C 420.9 70.0 421.3 70.5 421.6 71.0 C 422.0 71.4 422.2 71.9 422.5 72.4 C 422.7 72.9 422.7 73.4 422.8 73.9 C 423.0 74.4 423.1 74.9 423.3 75.4 C 423.4 75.9 423.6 76.4 423.9 76.9 C 424.1 77.4 424.3 77.9 424.7 78.4 C 425.0 78.8 425.4 79.3 425.8 79.7 C 426.2 80.2 426.7 80.7 427.0 81.1 C 427.3 81.6 427.6 82.1 427.8 82.6 C 428.0 83.1 428.3 83.6 428.4 84.1 C 428.6 84.6 428.6 85.1 428.7 85.6 C 428.8 86.1 428.8 86.6 428.8 87.1 C 428.9 87.6 428.9 88.1 428.9 88.6 C 428.9 89.1 428.9 89.6 428.9 90.1 C 428.9 90.6 428.9 91.1 428.9 91.7 C 428.9 92.2 428.9 92.7 428.9 93.2 C 428.9 93.7 428.9 94.2 428.9 94.7 C 428.9 95.2 428.9 95.7 428.9 96.2 C 428.9 96.7 428.9 97.2 428.9 97.7 C 428.9 98.2 428.9 98.7 428.9 99.3 C 428.9 99.8 428.9 100.3 428.9 100.8 C 428.9 101.3 428.9 101.8 428.9 102.3 C 428.9 102.8 428.9 103.3 428.9 103.8 C 428.9 104.3 428.9 104.8 428.9 105.3 C 428.9 105.8 428.9 106.3 428.9 106.9 C 429.0 107.4 429.0 107.9 429.1 108.4 C 429.1 108.9 429.2 109.4 429.4 109.9 C 429.5 110.4 429.7 110.9 430.0 111.4 C 430.2 111.9 430.5 112.3 430.8 112.8 C 431.1 113.3 431.6 113.7 432.0 114.2 C 432.4 114.7 432.8 115.1 433.2 115.6 Z" fill="#34c730" fill-rule="evenodd" stroke="none" opacity="1.000"/>
  <path d="M 292.9 208.3 C 293.1 208.8 293.2 209.3 293.3 209.8 C 293.3 210.3 293.2 210.8 293.1 211.3 C 293.1 211.8 293.2 212.4 293.0 212.9 C 292.8 213.3 292.3 213.8 291.9 214.3 C 291.4 214.7 290.9 215.1 290.3 215.5 C 289.7 215.9 289.1 216.3 288.4 216.6 C 287.7 216.9 286.8 217.2 286.1 217.5 C 285.4 217.9 284.8 218.3 284.0 218.6 C 283.2 218.8 282.3 218.9 281.4 219.1 C 280.5 219.2 279.5 219.4 278.6 219.4 C 277.7 219.4 276.9 219.3 276.0 219.1 C 275.2 219.0 274.2 218.8 273.4 218.5 C 272.6 218.3 271.8 218.0 271.1 217.7 C 270.3 217.4 269.7 217.0 268.9 216.7 C 268.1 216.4 267.1 216.3 266.4 216.0 C 265.7 215.7 265.1 215.3 264.5 214.8 C 264.0 214.4 263.5 214.0 263.2 213.5 C 262.9 213.0 262.8 212.5 262.7 212.0 C 262.6 211.5 262.5 211.0 262.7 210.5 C 262.8 210.0 263.0 209.5 263.3 209.0 C 263.7 208.6 264.2 208.1 264.8 207.7 C 265.3 207.3 265.9 206.9 266.4 206.5 C 266.9 206.1 267.3 205.6 267.8 205.2 C 268.3 204.8 269.0 204.4 269.5 204.0 C 270.1 203.5 270.5 203.0 271.2 202.7 C 271.9 202.4 272.6 202.1 273.5 202.0 C 274.3 201.8 275.3 201.8 276.3 201.8 C 277.2 201.7 278.2 201.6 279.1 201.6 C 280.1 201.5 281.0 201.4 281.9 201.4 C 282.9 201.4 283.8 201.5 284.7 201.5 C 285.7 201.6 286.7 201.7 287.5 201.8 C 288.4 202.0 289.2 202.2 289.8 202.5 C 290.4 202.8 291.0 203.3 291.3 203.8 C 291.7 204.3 291.7 204.8 291.9 205.3 C 292.0 205.8 292.1 206.3 292.3 206.8 C 292.5 207.3 292.8 207.8 292.9 208.3 Z M 283.4 196.4 C 284.1 196.6 284.5 197.4 284.4 197.8 C 284.2 198.2 283.3 198.6 282.5 198.8 C 281.7 199.0 280.6 198.9 279.6 198.9 C 278.6 198.9 277.6 198.9 276.7 198.9 C 275.7 198.8 274.6 198.8 273.7 198.6 C 272.9 198.5 271.7 198.3 271.4 197.9 C 271.1 197.5 271.4 196.8 271.9 196.5 C 272.5 196.2 273.7 196.2 274.7 196.1 C 275.6 196.0 276.6 195.9 277.6 195.9 C 278.6 195.9 279.6 196.0 280.5 196.1 C 281.5 196.2 282.8 196.1 283.4 196.4 Z" fill="#732007" fill-rule="evenodd" stroke="none" opacity="1.000"/>
  <path d="M 421.8 185.0 C 422.1 185.4 422.3 185.9 422.6 186.4 C 422.8 186.9 423.0 187.4 423.1 187.9 C 423.3 188.4 423.3 189.0 423.4 189.5 C 423.4 190.0 423.5 190.5 423.5 191.0 C 423.5 191.5 423.5 192.0 423.5 192.5 C 423.5 193.0 423.5 193.5 423.5 194.1 C 423.5 194.6 423.5 195.1 423.5 195.6 C 423.5 196.1 423.5 196.6 423.5 197.1 C 423.5 197.6 423.5 198.1 423.5 198.6 C 423.5 199.2 423.5 199.7 423.5 200.2 C 423.5 200.7 423.5 201.2 423.5 201.7 C 423.5 202.2 423.5 202.7 423.5 203.2 C 423.5 203.7 423.5 204.3 423.5 204.8 C 423.5 205.3 423.5 205.8 423.5 206.3 C 423.5 206.8 423.5 207.3 423.5 207.8 C 423.5 208.3 423.5 208.8 423.5 209.4 C 423.5 209.9 423.5 210.4 423.5 210.9 C 423.5 211.4 423.5 211.9 423.5 212.4 C 423.5 212.9 423.5 213.4 423.5 213.9 C 423.5 214.5 423.5 215.0 423.5 215.5 C 423.5 216.0 423.5 216.5 423.5 217.0 C 423.5 217.5 423.5 218.0 423.5 218.5 C 423.5 219.0 423.5 219.6 423.4 220.1 C 423.4 220.6 423.3 221.1 423.2 221.6 C 423.1 222.1 423.0 222.6 422.7 223.1 C 422.4 223.6 422.0 224.0 421.5 224.5 C 421.0 224.9 420.5 225.4 419.8 225.7 C 419.1 226.0 418.2 226.2 417.3 226.4 C 416.4 226.6 415.5 226.8 414.6 226.9 C 413.7 227.0 412.7 227.0 411.8 227.0 C 410.8 227.0 409.8 227.1 408.9 227.0 C 408.0 226.9 407.1 226.7 406.2 226.6 C 405.3 226.4 404.4 226.2 403.6 226.0 C 402.8 225.7 402.1 225.4 401.4 225.0 C 400.8 224.6 400.3 224.2 399.7 223.8 C 399.2 223.3 398.7 222.9 398.2 222.5 C 397.8 222.0 397.3 221.6 396.9 221.1 C 396.4 220.7 395.9 220.2 395.5 219.8 C 395.2 219.3 394.9 218.8 394.7 218.3 C 394.4 217.8 394.2 217.3 394.0 216.8 C 393.9 216.3 393.8 215.8 393.7 215.3 C 393.7 214.8 393.6 214.3 393.6 213.8 C 393.6 213.3 393.6 212.7 393.5 212.2 C 393.5 211.7 393.5 211.2 393.5 210.7 C 393.5 210.2 393.5 209.7 393.5 209.2 C 393.5 208.7 393.5 208.2 393.5 207.6 C 393.5 207.1 393.5 206.6 393.5 206.1 C 393.5 205.6 393.5 205.1 393.5 204.6 C 393.5 204.1 393.5 203.6 393.5 203.1 C 393.5 202.5 393.5 202.0 393.5 201.5 C 393.5 201.0 393.5 200.5 393.5 200.0 C 393.5 199.5 393.5 199.0 393.5 198.5 C 393.5 198.0 393.5 197.4 393.5 196.9 C 393.5 196.4 393.5 195.9 393.5 195.4 C 393.5 194.9 393.5 194.4 393.5 193.9 C 393.5 193.4 393.5 192.9 393.5 192.3 C 393.5 191.8 393.6 191.3 393.6 190.8 C 393.6 190.3 393.6 189.8 393.7 189.3 C 393.8 188.8 393.8 188.3 394.0 187.8 C 394.1 187.3 394.3 186.8 394.6 186.3 C 394.8 185.8 395.0 185.3 395.4 184.8 C 395.7 184.3 396.2 183.9 396.7 183.4 C 397.1 183.0 397.6 182.5 398.0 182.1 C 398.5 181.7 399.0 181.2 399.5 180.8 C 400.0 180.4 400.6 179.9 401.2 179.6 C 401.8 179.2 402.5 178.8 403.3 178.5 C 404.1 178.3 405.0 178.2 405.9 178.0 C 406.9 177.8 407.8 177.6 408.7 177.6 C 409.6 177.6 410.5 177.9 411.4 178.1 C 412.3 178.2 413.3 178.3 414.1 178.6 C 414.9 178.9 415.5 179.3 416.1 179.7 C 416.7 180.1 417.2 180.5 417.7 180.9 C 418.2 181.4 418.7 181.8 419.2 182.3 C 419.6 182.7 420.1 183.1 420.6 183.6 C 421.0 184.0 421.5 184.5 421.8 185.0 Z" fill="#1c2f68" fill-rule="evenodd" stroke="none" opacity="1.000"/>
  <path d="M 450.2 267.3 C 450.6 267.7 450.8 268.2 451.0 268.7 C 451.3 269.2 451.5 269.7 451.6 270.2 C 451.8 270.7 451.9 271.2 451.9 271.7 C 452.0 272.2 452.0 272.7 452.0 273.2 C 452.1 273.7 452.1 274.3 452.1 274.8 C 452.1 275.3 452.1 275.8 452.1 276.3 C 452.1 276.8 452.1 277.3 452.1 277.8 C 452.1 278.3 452.1 278.8 452.1 279.3 C 452.1 279.8 452.0 280.4 452.0 280.9 C 451.9 281.4 451.9 281.9 451.8 282.4 C 451.6 282.9 451.5 283.4 451.2 283.9 C 451.0 284.4 450.6 284.8 450.1 285.3 C 449.6 285.7 449.0 286.1 448.3 286.4 C 447.6 286.7 446.6 286.9 445.7 287.1 C 444.8 287.3 443.9 287.5 443.0 287.5 C 442.1 287.5 441.1 287.2 440.2 287.1 C 439.4 286.9 438.4 286.7 437.6 286.5 C 436.9 286.2 436.2 285.8 435.6 285.4 C 435.0 285.0 434.5 284.6 434.0 284.2 C 433.5 283.7 433.0 283.3 432.6 282.9 C 432.1 282.4 431.6 282.0 431.1 281.6 C 430.6 281.1 430.1 280.7 429.6 280.2 C 429.2 279.8 428.7 279.4 428.2 278.9 C 427.7 278.5 427.2 278.1 426.6 277.7 C 426.0 277.2 425.4 276.9 424.8 276.5 C 424.1 276.2 423.3 275.8 422.6 275.5 C 421.9 275.2 421.1 274.9 420.4 274.5 C 419.7 274.2 419.0 273.8 418.4 273.4 C 417.8 273.1 417.4 272.6 416.8 272.2 C 416.3 271.8 415.8 271.3 415.4 270.9 C 414.9 270.4 414.5 270.0 414.1 269.5 C 413.6 269.1 413.1 268.6 412.7 268.2 C 412.3 267.7 412.0 267.2 411.7 266.8 C 411.5 266.3 411.3 265.8 411.1 265.3 C 411.0 264.8 410.8 264.3 410.8 263.8 C 410.8 263.2 410.8 262.7 410.9 262.2 C 410.9 261.7 411.0 261.2 411.2 260.7 C 411.5 260.2 411.8 259.8 412.3 259.3 C 412.8 258.9 413.3 258.4 414.0 258.1 C 414.7 257.8 415.5 257.5 416.4 257.3 C 417.2 257.1 418.1 256.9 419.1 256.8 C 420.0 256.7 420.9 256.7 421.9 256.6 C 422.8 256.6 423.8 256.6 424.7 256.6 C 425.7 256.6 426.6 256.7 427.5 256.8 C 428.5 256.9 429.4 257.0 430.3 257.2 C 431.2 257.3 432.1 257.5 432.9 257.7 C 433.8 257.9 434.6 258.2 435.5 258.4 C 436.3 258.7 437.1 258.9 438.0 259.2 C 438.8 259.4 439.6 259.7 440.4 259.9 C 441.2 260.2 442.0 260.5 442.7 260.8 C 443.4 261.2 444.1 261.5 444.6 261.9 C 445.2 262.3 445.7 262.8 446.2 263.2 C 446.7 263.7 447.1 264.1 447.6 264.5 C 448.1 265.0 448.5 265.4 448.9 265.9 C 449.4 266.3 449.9 266.8 450.2 267.3 Z" fill="#40a528" fill-rule="evenodd" stroke="none" opacity="1.000"/>
  <path d="M 461.6 310.3 C 462.0 310.7 462.1 311.2 462.4 311.7 C 462.6 312.2 462.8 312.7 462.9 313.2 C 463.0 313.7 463.0 314.2 463.1 314.7 C 463.1 315.2 463.2 315.7 463.2 316.2 C 463.2 316.7 463.2 317.3 463.2 317.8 C 463.2 318.3 463.2 318.8 463.2 319.3 C 463.2 319.8 463.2 320.3 463.2 320.8 C 463.2 321.3 463.2 321.8 463.2 322.3 C 463.2 322.8 463.2 323.3 463.2 323.8 C 463.2 324.3 463.2 324.8 463.2 325.3 C 463.2 325.8 463.2 326.3 463.2 326.8 C 463.2 327.3 463.2 327.9 463.2 328.4 C 463.2 328.9 463.2 329.4 463.2 329.9 C 463.2 330.4 463.2 330.9 463.2 331.4 C 463.2 331.9 463.2 332.4 463.2 332.9 C 463.2 333.4 463.2 333.9 463.2 334.4 C 463.2 334.9 463.2 335.4 463.2 335.9 C 463.2 336.4 463.2 336.9 463.2 337.4 C 463.2 337.9 463.2 338.5 463.1 339.0 C 463.1 339.5 463.1 340.0 463.0 340.5 C 462.9 341.0 462.8 341.5 462.6 342.0 C 462.4 342.5 462.2 343.0 461.8 343.4 C 461.5 343.9 461.2 344.4 460.7 344.8 C 460.2 345.2 459.5 345.6 458.8 345.9 C 458.2 346.3 457.5 346.7 456.8 347.0 C 456.1 347.3 455.4 347.7 454.5 347.9 C 453.7 348.1 452.8 348.2 451.8 348.3 C 450.9 348.4 450.0 348.6 449.1 348.6 C 448.1 348.6 447.2 348.5 446.3 348.3 C 445.4 348.2 444.5 348.0 443.7 347.7 C 443.0 347.5 442.2 347.1 441.7 346.7 C 441.1 346.3 440.7 345.9 440.4 345.4 C 440.0 344.9 439.7 344.4 439.6 343.9 C 439.4 343.5 439.4 342.9 439.3 342.4 C 439.2 341.9 439.2 341.4 439.2 340.9 C 439.1 340.4 439.1 339.9 439.1 339.4 C 439.1 338.9 439.1 338.4 439.1 337.9 C 439.1 337.4 439.1 336.9 439.1 336.4 C 439.1 335.9 439.1 335.4 439.1 334.9 C 439.1 334.4 439.1 333.9 439.1 333.4 C 439.1 332.9 439.1 332.3 439.1 331.8 C 439.1 331.3 439.1 330.8 439.1 330.3 C 439.1 329.8 439.1 329.3 439.1 328.8 C 439.1 328.3 439.1 327.8 439.1 327.3 C 439.1 326.8 439.1 326.3 439.1 325.8 C 439.1 325.3 439.1 324.8 439.1 324.3 C 439.1 323.8 439.1 323.3 439.1 322.8 C 439.1 322.2 439.1 321.7 439.1 321.2 C 439.1 320.7 439.1 320.2 439.1 319.7 C 439.1 319.2 439.1 318.7 439.1 318.2 C 439.1 317.7 439.1 317.2 439.1 316.7 C 439.1 316.2 439.1 315.7 439.1 315.2 C 439.1 314.7 439.1 314.2 439.1 313.7 C 439.2 313.2 439.2 312.7 439.3 312.2 C 439.3 311.7 439.3 311.1 439.5 310.6 C 439.6 310.1 439.7 309.6 440.0 309.2 C 440.3 308.7 440.8 308.2 441.2 307.8 C 441.7 307.4 442.3 306.9 443.0 306.6 C 443.7 306.3 444.7 306.2 445.5 306.0 C 446.4 305.8 447.3 305.6 448.2 305.5 C 449.1 305.5 450.1 305.7 451.0 305.8 C 451.9 305.9 452.9 305.9 453.8 306.0 C 454.6 306.2 455.4 306.6 456.1 306.9 C 456.9 307.2 457.6 307.5 458.2 307.9 C 458.9 308.2 459.6 308.6 460.2 309.0 C 460.7 309.4 461.2 309.8 461.6 310.3 Z" fill="#236854" fill-rule="evenodd" stroke="none" opacity="1.000"/>
  <path d="M 579.1 206.3 C 579.2 206.6 578.3 206.9 577.6 207.1 C 576.9 207.2 575.6 207.3 574.7 207.2 C 573.9 207.1 573.2 206.9 572.6 206.6 C 572.0 206.3 571.7 205.6 571.0 205.4 C 570.3 205.1 569.1 205.1 568.3 204.8 C 567.5 204.6 566.9 204.2 566.1 203.9 C 565.3 203.7 564.4 203.5 563.5 203.3 C 562.7 203.1 561.8 202.9 561.0 202.7 C 560.2 202.4 559.4 202.0 558.7 201.7 C 558.0 201.3 557.2 201.0 556.8 200.6 C 556.4 200.1 556.5 199.6 556.4 199.0 C 556.4 198.5 556.1 198.0 556.3 197.5 C 556.6 197.1 557.4 196.7 558.0 196.3 C 558.6 195.9 559.3 195.5 559.8 195.1 C 560.3 194.7 560.8 194.2 561.1 193.8 C 561.4 193.3 561.5 192.8 561.8 192.3 C 562.0 191.8 562.3 191.3 562.7 190.8 C 563.1 190.4 563.6 189.9 564.2 189.5 C 564.7 189.1 565.8 188.8 566.2 188.4 C 566.6 188.0 566.5 187.4 566.5 186.9 C 566.6 186.4 566.2 185.9 566.4 185.4 C 566.5 184.9 567.0 184.3 567.6 184.0 C 568.3 183.7 569.5 183.8 570.4 183.7 C 571.3 183.7 572.3 183.5 573.3 183.6 C 574.2 183.6 575.0 183.9 575.9 184.1 C 576.8 184.2 577.9 184.3 578.7 184.5 C 579.5 184.7 580.1 185.1 580.8 185.5 C 581.5 185.8 582.2 186.2 582.9 186.5 C 583.6 186.9 584.3 187.2 585.0 187.6 C 585.6 187.9 586.1 188.4 586.7 188.8 C 587.3 189.2 588.1 189.5 588.7 189.9 C 589.3 190.3 590.0 190.7 590.4 191.1 C 590.7 191.6 590.7 192.1 590.7 192.6 C 590.8 193.1 590.9 193.7 590.7 194.2 C 590.5 194.6 590.0 195.1 589.5 195.5 C 589.0 195.9 588.3 196.3 587.6 196.7 C 587.0 197.0 586.1 197.3 585.6 197.7 C 585.1 198.2 585.2 198.8 584.8 199.2 C 584.3 199.7 583.6 200.0 583.0 200.4 C 582.4 200.8 581.9 201.3 581.4 201.7 C 580.8 202.1 580.3 202.6 579.6 202.9 C 578.9 203.3 577.8 203.4 577.4 203.8 C 576.9 204.2 576.8 204.8 577.1 205.2 C 577.4 205.6 579.0 206.0 579.1 206.3 Z" fill="#712609" fill-rule="evenodd" stroke="none" opacity="1.000"/>
  <path d="M 200.0 246.0 C 200.4 246.4 200.6 246.9 200.8 247.4 C 201.1 247.9 201.3 248.4 201.5 248.9 C 201.6 249.4 201.7 249.9 201.7 250.4 C 201.8 250.9 201.8 251.4 201.9 251.9 C 201.9 252.4 201.9 252.9 201.8 253.4 C 201.8 254.0 201.8 254.5 201.7 255.0 C 201.6 255.5 201.5 256.0 201.4 256.5 C 201.2 257.0 201.0 257.5 200.7 257.9 C 200.5 258.4 200.2 258.9 199.8 259.4 C 199.4 259.8 198.9 260.3 198.5 260.7 C 198.1 261.2 197.6 261.6 197.1 262.1 C 196.7 262.5 196.2 262.9 195.7 263.3 C 195.1 263.8 194.6 264.2 194.0 264.6 C 193.3 264.9 192.6 265.3 191.8 265.5 C 191.0 265.8 190.1 266.0 189.2 266.1 C 188.3 266.3 187.4 266.5 186.5 266.6 C 185.6 266.6 184.6 266.6 183.7 266.6 C 182.7 266.7 181.8 266.7 180.9 266.7 C 179.9 266.7 179.0 266.7 178.0 266.6 C 177.1 266.6 176.1 266.6 175.2 266.5 C 174.3 266.4 173.4 266.2 172.5 266.0 C 171.6 265.8 170.7 265.7 170.0 265.4 C 169.2 265.1 168.5 264.7 167.9 264.4 C 167.3 264.0 166.8 263.6 166.3 263.1 C 165.7 262.7 165.3 262.3 164.8 261.8 C 164.3 261.4 163.9 260.9 163.5 260.5 C 163.0 260.0 162.5 259.6 162.2 259.1 C 161.8 258.7 161.6 258.2 161.4 257.7 C 161.1 257.2 160.9 256.7 160.8 256.2 C 160.6 255.7 160.5 255.2 160.5 254.7 C 160.4 254.2 160.4 253.7 160.3 253.2 C 160.3 252.7 160.3 252.2 160.4 251.7 C 160.4 251.2 160.4 250.7 160.5 250.2 C 160.6 249.6 160.7 249.1 160.8 248.7 C 161.0 248.2 161.2 247.7 161.5 247.2 C 161.7 246.7 162.0 246.2 162.4 245.7 C 162.7 245.3 163.2 244.8 163.6 244.4 C 164.1 243.9 164.5 243.5 164.9 243.0 C 165.3 242.6 165.7 242.1 166.1 241.6 C 166.5 241.2 166.9 240.7 167.3 240.3 C 167.7 239.8 168.1 239.4 168.6 238.9 C 169.1 238.5 169.6 238.1 170.0 237.6 C 170.5 237.2 171.0 236.7 171.5 236.3 C 172.0 235.9 172.5 235.4 173.0 235.0 C 173.6 234.6 174.1 234.2 174.8 233.9 C 175.6 233.6 176.4 233.3 177.3 233.1 C 178.1 232.9 179.1 232.7 180.0 232.7 C 180.9 232.6 181.8 232.7 182.7 232.8 C 183.6 232.9 184.5 233.0 185.4 233.3 C 186.2 233.5 187.0 233.7 187.7 234.1 C 188.4 234.4 188.9 234.8 189.5 235.3 C 190.0 235.7 190.5 236.1 191.0 236.5 C 191.5 237.0 191.9 237.4 192.4 237.8 C 192.9 238.3 193.4 238.7 193.8 239.2 C 194.3 239.6 194.7 240.1 195.1 240.5 C 195.5 241.0 195.9 241.4 196.3 241.9 C 196.7 242.3 197.1 242.8 197.5 243.3 C 197.9 243.7 198.4 244.2 198.8 244.6 C 199.2 245.1 199.7 245.5 200.0 246.0 Z" fill="#7b0b02" fill-rule="evenodd" stroke="none" opacity="1.000"/>
</svg>