<svg xmlns="http://www.w3.org/2000/svg" xmlns:xlink="http://www.w3.org/1999/xlink" width="736" height="800">
  <rect width="100%" height="100%" fill="#ffffff"/>
  <defs>
    <g id="a0"><radialGradient id="g0" cx=".5" cy=".5" fx=".33" fy=".33" r=".66"><stop offset="0%" stop-color="#c3c3c3"/><stop offset="100%" stop-color="#888888"/></radialGradient><circle cx="0" cy="0" r="16.3" fill="url(#g0)" stroke="#000000" stroke-width="2.9"/></g>
    <g id="a1"><radialGradient id="g1" cx=".5" cy=".5" fx=".33" fy=".33" r=".66"><stop offset="0%" stop-color="#dcdcdc"/><stop offset="100%" stop-color="#bababa"/></radialGradient><circle cx="0" cy="0" r="16.3" fill="url(#g1)" stroke="#9b9b9b" stroke-width="2.9"/></g>
    <g id="a2"><radialGradient id="g2" cx=".5" cy=".5" fx=".33" fy=".33" r=".66"><stop offset="0%" stop-color="#dcdcdc"/><stop offset="100%" stop-color="#bababa"/></radialGradient><circle cx="0" cy="0" r="16.3" fill="url(#g2)" stroke="#9b9b9b" stroke-width="2.9"/></g>
    <g id="a3"><radialGradient id="g3" cx=".5" cy=".5" fx=".33" fy=".33" r=".66"><stop offset="0%" stop-color="#c3c3c3"/><stop offset="100%" stop-color="#888888"/></radialGradient><circle cx="0" cy="0" r="16.3" fill="url(#g3)" stroke="#000000" stroke-width="2.9"/></g>
    <g id="a4"><radialGradient id="g4" cx=".5" cy=".5" fx=".33" fy=".33" r=".66"><stop offset="0%" stop-color="#dadada"/><stop offset="100%" stop-color="#b6b6b6"/></radialGradient><circle cx="0" cy="0" r="16.3" fill="url(#g4)" stroke="#8d8d8d" stroke-width="2.9"/></g>
    <g id="a5"><radialGradient id="g5" cx=".5" cy=".5" fx=".33" fy=".33" r=".66"><stop offset="0%" stop-color="#c3c3c3"/><stop offset="100%" stop-color="#888888"/></radialGradient><circle cx="0" cy="0" r="16.3" fill="url(#g5)" stroke="#000000" stroke-width="2.9"/></g>
    <g id="a6"><radialGradient id="g6" cx=".5" cy=".5" fx=".33" fy=".33" r=".66"><stop offset="0%" stop-color="#c3c3c3"/><stop offset="100%" stop-color="#888888"/></radialGradient><circle cx="0" cy="0" r="16.3" fill="url(#g6)" stroke="#000000" stroke-width="2.9"/></g>
    <g id="a7"><radialGradient id="g7" cx=".5" cy=".5" fx=".33" fy=".33" r=".66"><stop offset="0%" stop-color="#dadada"/><stop offset="100%" stop-color="#b6b6b6"/></radialGradient><circle cx="0" cy="0" r="16.3" fill="url(#g7)" stroke="#8d8d8d" stroke-width="2.9"/></g>
    <g id="a8"><radialGradient id="g8" cx=".5" cy=".5" fx=".33" fy=".33" r=".66"><stop offset="0%" stop-color="#d5d5d5"/><stop offset="100%" stop-color="#acacac"/></radialGradient><circle cx="0" cy="0" r="16.3" fill="url(#g8)" stroke="#707070" stroke-width="2.9"/></g>
    <g id="a9"><radialGradient id="g9" cx=".5" cy=".5" fx=".33" fy=".33" r=".66"><stop offset="0%" stop-color="#c3c3c3"/><stop offset="100%" stop-color="#888888"/></radialGradient><circle cx="0" cy="0" r="16.3" fill="url(#g9)" stroke="#000000" stroke-width="2.9"/></g>
    <g id="a10"><radialGradient id="g10" cx=".5" cy=".5" fx=".33" fy=".33" r=".66"><stop offset="0%" stop-color="#c3c3c3"/><stop offset="100%" stop-color="#888888"/></radialGradient><circle cx="0" cy="0" r="16.3" fill="url(#g10)" stroke="#000000" stroke-width="2.9"/></g>
    <g id="a11"><radialGradient id="g11" cx=".5" cy=".5" fx=".33" fy=".33" r=".66"><stop offset="0%" stop-color="#d5d5d5"/><stop offset="100%" stop-color="#acacac"/></radialGradient><circle cx="0" cy="0" r="16.3" fill="url(#g11)" stroke="#707070" stroke-width="2.9"/></g>
    <g id="a12"><radialGradient id="g12" cx=".5" cy=".5" fx=".33" fy=".33" r=".66"><stop offset="0%" stop-color="#dbdbdb"/><stop offset="100%" stop-color="#b8b8b8"/></radialGradient><circle cx="0" cy="0" r="16.3" fill="url(#g12)" stroke="#939393" stroke-width="2.9"/></g>
    <g id="a13"><radialGradient id="g13" cx=".5" cy=".5" fx=".33" fy=".33" r=".66"><stop offset="0%" stop-color="#c3c3c3"/><stop offset="100%" stop-color="#888888"/></radialGradient><circle cx="0" cy="0" r="16.3" fill="url(#g13)" stroke="#000000" stroke-width="2.9"/></g>
    <g id="a14"><radialGradient id="g14" cx=".5" cy=".5" fx=".33" fy=".33" r=".66"><stop offset="0%" stop-color="#c3c3c3"/><stop offset="100%" stop-color="#888888"/></radialGradient><circle cx="0" cy="0" r="16.3" fill="url(#g14)" stroke="#000000" stroke-width="2.9"/></g>
    <g id="a15"><radialGradient id="g15" cx=".5" cy=".5" fx=".33" fy=".33" r=".66"><stop offset="0%" stop-color="#dbdbdb"/><stop offset="100%" stop-color="#b8b8b8"/></radialGradient><circle cx="0" cy="0" r="16.3" fill="url(#g15)" stroke="#939393" stroke-width="2.9"/></g>
    <g id="a16"><radialGradient id="g16" cx=".5" cy=".5" fx=".33" fy=".33" r=".66"><stop offset="0%" stop-color="#cbcbcb"/><stop offset="100%" stop-color="#999999"/></radialGradient><circle cx="0" cy="0" r="16.3" fill="url(#g16)" stroke="#343434" stroke-width="2.9"/></g>
    <g id="a17"><radialGradient id="g17" cx=".5" cy=".5" fx=".33" fy=".33" r=".66"><stop offset="0%" stop-color="#c3c3c3"/><stop offset="100%" stop-color="#898989"/></radialGradient><circle cx="0" cy="0" r="16.3" fill="url(#g17)" stroke="#030303" stroke-width="2.9"/></g>
    <g id="a18"><radialGradient id="g18" cx=".5" cy=".5" fx=".33" fy=".33" r=".66"><stop offset="0%" stop-color="#c3c3c3"/><stop offset="100%" stop-color="#898989"/></radialGradient><circle cx="0" cy="0" r="16.3" fill="url(#g18)" stroke="#030303" stroke-width="2.9"/></g>
    <g id="a19"><radialGradient id="g19" cx=".5" cy=".5" fx=".33" fy=".33" r=".66"><stop offset="0%" stop-color="#cbcbcb"/><stop offset="100%" stop-color="#999999"/></radialGradient><circle cx="0" cy="0" r="16.3" fill="url(#g19)" stroke="#343434" stroke-width="2.9"/></g>
    <g id="a20"><radialGradient id="g20" cx=".5" cy=".5" fx=".33" fy=".33" r=".66"><stop offset="0%" stop-color="#c3c3c3"/><stop offset="100%" stop-color="#888888"/></radialGradient><circle cx="0" cy="0" r="16.3" fill="url(#g20)" stroke="#000000" stroke-width="2.9"/></g>
    <g id="a21"><radialGradient id="g21" cx=".5" cy=".5" fx=".33" fy=".33" r=".66"><stop offset="0%" stop-color="#dadada"/><stop offset="100%" stop-color="#b7b7b7"/></radialGradient><circle cx="0" cy="0" r="16.3" fill="url(#g21)" stroke="#919191" stroke-width="2.9"/></g>
    <g id="a22"><radialGradient id="g22" cx=".5" cy=".5" fx=".33" fy=".33" r=".66"><stop offset="0%" stop-color="#dadada"/><stop offset="100%" stop-color="#b7b7b7"/></radialGradient><circle cx="0" cy="0" r="16.3" fill="url(#g22)" stroke="#919191" stroke-width="2.9"/></g>
    <g id="a23"><radialGradient id="g23" cx=".5" cy=".5" fx=".33" fy=".33" r=".66"><stop offset="0%" stop-color="#c3c3c3"/><stop offset="100%" stop-color="#888888"/></radialGradient><circle cx="0" cy="0" r="16.3" fill="url(#g23)" stroke="#000000" stroke-width="2.9"/></g>
    <g id="a24"><radialGradient id="g24" cx=".5" cy=".5" fx=".33" fy=".33" r=".66"><stop offset="0%" stop-color="#c3c3c3"/><stop offset="100%" stop-color="#888888"/></radialGradient><circle cx="0" cy="0" r="16.3" fill="url(#g24)" stroke="#000000" stroke-width="2.9"/></g>
    <g id="a25"><radialGradient id="g25" cx=".5" cy=".5" fx=".33" fy=".33" r=".66"><stop offset="0%" stop-color="#dedede"/><stop offset="100%" stop-color="#bebebe"/></radialGradient><circle cx="0" cy="0" r="16.3" fill="url(#g25)" stroke="#a5a5a5" stroke-width="2.9"/></g>
    <g id="a26"><radialGradient id="g26" cx=".5" cy=".5" fx=".33" fy=".33" r=".66"><stop offset="0%" stop-color="#dedede"/><stop offset="100%" stop-color="#bebebe"/></radialGradient><circle cx="0" cy="0" r="16.3" fill="url(#g26)" stroke="#a5a5a5" stroke-width="2.9"/></g>
    <g id="a27"><radialGradient id="g27" cx=".5" cy=".5" fx=".33" fy=".33" r=".66"><stop offset="0%" stop-color="#c3c3c3"/><stop offset="100%" stop-color="#888888"/></radialGradient><circle cx="0" cy="0" r="16.3" fill="url(#g27)" stroke="#000000" stroke-width="2.9"/></g>
    <g id="a28"><radialGradient id="g28" cx=".5" cy=".5" fx=".33" fy=".33" r=".66"><stop offset="0%" stop-color="#c7c7c7"/><stop offset="100%" stop-color="#919191"/></radialGradient><circle cx="0" cy="0" r="16.3" fill="url(#g28)" stroke="#1d1d1d" stroke-width="2.9"/></g>
    <g id="a29"><radialGradient id="g29" cx=".5" cy=".5" fx=".33" fy=".33" r=".66"><stop offset="0%" stop-color="#c5c5c5"/><stop offset="100%" stop-color="#8c8c8c"/></radialGradient><circle cx="0" cy="0" r="16.3" fill="url(#g29)" stroke="#0e0e0e" stroke-width="2.9"/></g>
    <g id="a30"><radialGradient id="g30" cx=".5" cy=".5" fx=".33" fy=".33" r=".66"><stop offset="0%" stop-color="#c5c5c5"/><stop offset="100%" stop-color="#8c8c8c"/></radialGradient><circle cx="0" cy="0" r="16.3" fill="url(#g30)" stroke="#0e0e0e" stroke-width="2.9"/></g>
    <g id="a31"><radialGradient id="g31" cx=".5" cy=".5" fx=".33" fy=".33" r=".66"><stop offset="0%" stop-color="#c7c7c7"/><stop offset="100%" stop-color="#919191"/></radialGradient><circle cx="0" cy="0" r="16.3" fill="url(#g31)" stroke="#1d1d1d" stroke-width="2.9"/></g>
    <g id="a32"><radialGradient id="g32" cx=".5" cy=".5" fx=".33" fy=".33" r=".66"><stop offset="0%" stop-color="#6e84fa"/><stop offset="100%" stop-color="#2640c6"/></radialGradient><circle cx="0" cy="0" r="15.3" fill="url(#g32)" stroke="#000000" stroke-width="2.9"/></g>
    <g id="a33"><radialGradient id="g33" cx=".5" cy=".5" fx=".33" fy=".33" r=".66"><stop offset="0%" stop-color="#bbc5fc"/><stop offset="100%" stop-color="#99a5e4"/></radialGradient><circle cx="0" cy="0" r="15.3" fill="url(#g33)" stroke="#b2b2b2" stroke-width="2.9"/></g>
    <g id="a34"><radialGradient id="g34" cx=".5" cy=".5" fx=".33" fy=".33" r=".66"><stop offset="0%" stop-color="#bbc5fc"/><stop offset="100%" stop-color="#99a5e4"/></radialGradient><circle cx="0" cy="0" r="15.3" fill="url(#g34)" stroke="#b2b2b2" stroke-width="2.9"/></g>
    <g id="a35"><radialGradient id="g35" cx=".5" cy=".5" fx=".33" fy=".33" r=".66"><stop offset="0%" stop-color="#6e84fa"/><stop offset="100%" stop-color="#2640c6"/></radialGradient><circle cx="0" cy="0" r="15.3" fill="url(#g35)" stroke="#000000" stroke-width="2.9"/></g>
    <g id="a36"><radialGradient id="g36" cx=".5" cy=".5" fx=".33" fy=".33" r=".66"><stop offset="0%" stop-color="#6e84fa"/><stop offset="100%" stop-color="#2640c6"/></radialGradient><circle cx="0" cy="0" r="15.3" fill="url(#g36)" stroke="#000000" stroke-width="2.9"/></g>
    <g id="a37"><radialGradient id="g37" cx=".5" cy=".5" fx=".33" fy=".33" r=".66"><stop offset="0%" stop-color="#bdc7fc"/><stop offset="100%" stop-color="#9da8e5"/></radialGradient><circle cx="0" cy="0" r="15.3" fill="url(#g37)" stroke="#b2b2b2" stroke-width="2.9"/></g>
    <g id="a38"><radialGradient id="g38" cx=".5" cy=".5" fx=".33" fy=".33" r=".66"><stop offset="0%" stop-color="#bdc7fc"/><stop offset="100%" stop-color="#9da8e5"/></radialGradient><circle cx="0" cy="0" r="15.3" fill="url(#g38)" stroke="#b2b2b2" stroke-width="2.9"/></g>
    <g id="a39"><radialGradient id="g39" cx=".5" cy=".5" fx=".33" fy=".33" r=".66"><stop offset="0%" stop-color="#6e84fa"/><stop offset="100%" stop-color="#2640c6"/></radialGradient><circle cx="0" cy="0" r="15.3" fill="url(#g39)" stroke="#000000" stroke-width="2.9"/></g>
    <g id="a40"><radialGradient id="g40" cx=".5" cy=".5" fx=".33" fy=".33" r=".66"><stop offset="0%" stop-color="#8698fa"/><stop offset="100%" stop-color="#4a5fcf"/></radialGradient><circle cx="0" cy="0" r="15.3" fill="url(#g40)" stroke="#3c3c3c" stroke-width="2.9"/></g>
    <g id="a41"><radialGradient id="g41" cx=".5" cy=".5" fx=".33" fy=".33" r=".66"><stop offset="0%" stop-color="#6e84fa"/><stop offset="100%" stop-color="#2740c6"/></radialGradient><circle cx="0" cy="0" r="15.3" fill="url(#g41)" stroke="#010101" stroke-width="2.9"/></g>
    <g id="a42"><radialGradient id="g42" cx=".5" cy=".5" fx=".33" fy=".33" r=".66"><stop offset="0%" stop-color="#6e84fa"/><stop offset="100%" stop-color="#2740c6"/></radialGradient><circle cx="0" cy="0" r="15.3" fill="url(#g42)" stroke="#010101" stroke-width="2.9"/></g>
    <g id="a43"><radialGradient id="g43" cx=".5" cy=".5" fx=".33" fy=".33" r=".66"><stop offset="0%" stop-color="#8698fa"/><stop offset="100%" stop-color="#4a5fcf"/></radialGradient><circle cx="0" cy="0" r="15.3" fill="url(#g43)" stroke="#3c3c3c" stroke-width="2.9"/></g>
    <g id="a44"><radialGradient id="g44" cx=".5" cy=".5" fx=".33" fy=".33" r=".66"><stop offset="0%" stop-color="#92a3fb"/><stop offset="100%" stop-color="#5d70d4"/></radialGradient><circle cx="0" cy="0" r="15.3" fill="url(#g44)" stroke="#5c5c5c" stroke-width="2.9"/></g>
    <g id="a45"><radialGradient id="g45" cx=".5" cy=".5" fx=".33" fy=".33" r=".66"><stop offset="0%" stop-color="#6e84fa"/><stop offset="100%" stop-color="#2640c6"/></radialGradient><circle cx="0" cy="0" r="15.3" fill="url(#g45)" stroke="#000000" stroke-width="2.9"/></g>
    <g id="a46"><radialGradient id="g46" cx=".5" cy=".5" fx=".33" fy=".33" r=".66"><stop offset="0%" stop-color="#6e84fa"/><stop offset="100%" stop-color="#2640c6"/></radialGradient><circle cx="0" cy="0" r="15.3" fill="url(#g46)" stroke="#000000" stroke-width="2.9"/></g>
    <g id="a47"><radialGradient id="g47" cx=".5" cy=".5" fx=".33" fy=".33" r=".66"><stop offset="0%" stop-color="#92a3fb"/><stop offset="100%" stop-color="#5d70d4"/></radialGradient><circle cx="0" cy="0" r="15.3" fill="url(#g47)" stroke="#5c5c5c" stroke-width="2.9"/></g>
    <g id="a48"><radialGradient id="g48" cx=".5" cy=".5" fx=".33" fy=".33" r=".66"><stop offset="0%" stop-color="#ff5555"/><stop offset="100%" stop-color="#cc0a0a"/></radialGradient><circle cx="0" cy="0" r="14.6" fill="url(#g48)" stroke="#000000" stroke-width="2.9"/></g>
    <g id="a49"><radialGradient id="g49" cx=".5" cy=".5" fx=".33" fy=".33" r=".66"><stop offset="0%" stop-color="#ff8181"/><stop offset="100%" stop-color="#d94949"/></radialGradient><circle cx="0" cy="0" r="14.6" fill="url(#g49)" stroke="#5e5e5e" stroke-width="2.9"/></g>
    <g id="a50"><radialGradient id="g50" cx=".5" cy=".5" fx=".33" fy=".33" r=".66"><stop offset="0%" stop-color="#ff8181"/><stop offset="100%" stop-color="#d94949"/></radialGradient><circle cx="0" cy="0" r="14.6" fill="url(#g50)" stroke="#5e5e5e" stroke-width="2.9"/></g>
    <g id="a51"><radialGradient id="g51" cx=".5" cy=".5" fx=".33" fy=".33" r=".66"><stop offset="0%" stop-color="#ff5555"/><stop offset="100%" stop-color="#cc0a0a"/></radialGradient><circle cx="0" cy="0" r="14.6" fill="url(#g51)" stroke="#000000" stroke-width="2.9"/></g>
    <g id="a52"><radialGradient id="g52" cx=".5" cy=".5" fx=".33" fy=".33" r=".66"><stop offset="0%" stop-color="#ff9090"/><stop offset="100%" stop-color="#dd5f5f"/></radialGradient><circle cx="0" cy="0" r="14.6" fill="url(#g52)" stroke="#7e7e7e" stroke-width="2.9"/></g>
    <g id="a53"><radialGradient id="g53" cx=".5" cy=".5" fx=".33" fy=".33" r=".66"><stop offset="0%" stop-color="#ff5555"/><stop offset="100%" stop-color="#cc0a0a"/></radialGradient><circle cx="0" cy="0" r="14.6" fill="url(#g53)" stroke="#000000" stroke-width="2.9"/></g>
    <g id="a54"><radialGradient id="g54" cx=".5" cy=".5" fx=".33" fy=".33" r=".66"><stop offset="0%" stop-color="#ff5555"/><stop offset="100%" stop-color="#cc0a0a"/></radialGradient><circle cx="0" cy="0" r="14.6" fill="url(#g54)" stroke="#000000" stroke-width="2.9"/></g>
    <g id="a55"><radialGradient id="g55" cx=".5" cy=".5" fx=".33" fy=".33" r=".66"><stop offset="0%" stop-color="#ff9090"/><stop offset="100%" stop-color="#dd5f5f"/></radialGradient><circle cx="0" cy="0" r="14.6" fill="url(#g55)" stroke="#7e7e7e" stroke-width="2.9"/></g>
    <g id="a76"><radialGradient id="g76" cx=".5" cy=".5" fx=".33" fy=".33" r=".66"><stop offset="0%" stop-color="#ffffff"/><stop offset="100%" stop-color="#e1e1e1"/></radialGradient><circle cx="0" cy="0" r="8.6" fill="url(#g76)" stroke="#999999" stroke-width="2.9"/></g>
    <g id="a77"><radialGradient id="g77" cx=".5" cy=".5" fx=".33" fy=".33" r=".66"><stop offset="0%" stop-color="#ffffff"/><stop offset="100%" stop-color="#cccccc"/></radialGradient><circle cx="0" cy="0" r="8.6" fill="url(#g77)" stroke="#000000" stroke-width="2.9"/></g>
    <g id="a78"><radialGradient id="g78" cx=".5" cy=".5" fx=".33" fy=".33" r=".66"><stop offset="0%" stop-color="#ffffff"/><stop offset="100%" stop-color="#cccccc"/></radialGradient><circle cx="0" cy="0" r="8.6" fill="url(#g78)" stroke="#000000" stroke-width="2.9"/></g>
    <g id="a79"><radialGradient id="g79" cx=".5" cy=".5" fx=".33" fy=".33" r=".66"><stop offset="0%" stop-color="#ffffff"/><stop offset="100%" stop-color="#e1e1e1"/></radialGradient><circle cx="0" cy="0" r="8.6" fill="url(#g79)" stroke="#999999" stroke-width="2.9"/></g>
    <g id="a88"><radialGradient id="g88" cx=".5" cy=".5" fx=".33" fy=".33" r=".66"><stop offset="0%" stop-color="#ffffff"/><stop offset="100%" stop-color="#e7e7e7"/></radialGradient><circle cx="0" cy="0" r="8.6" fill="url(#g88)" stroke="#b2b2b2" stroke-width="2.9"/></g>
    <g id="a89"><radialGradient id="g89" cx=".5" cy=".5" fx=".33" fy=".33" r=".66"><stop offset="0%" stop-color="#ffffff"/><stop offset="100%" stop-color="#cccccc"/></radialGradient><circle cx="0" cy="0" r="8.6" fill="url(#g89)" stroke="#000000" stroke-width="2.9"/></g>
    <g id="a90"><radialGradient id="g90" cx=".5" cy=".5" fx=".33" fy=".33" r=".66"><stop offset="0%" stop-color="#ffffff"/><stop offset="100%" stop-color="#cccccc"/></radialGradient><circle cx="0" cy="0" r="8.6" fill="url(#g90)" stroke="#000000" stroke-width="2.9"/></g>
    <g id="a91"><radialGradient id="g91" cx=".5" cy=".5" fx=".33" fy=".33" r=".66"><stop offset="0%" stop-color="#ffffff"/><stop offset="100%" stop-color="#e7e7e7"/></radialGradient><circle cx="0" cy="0" r="8.6" fill="url(#g91)" stroke="#b2b2b2" stroke-width="2.9"/></g>
    <g id="a96"><radialGradient id="g96" cx=".5" cy=".5" fx=".33" fy=".33" r=".66"><stop offset="0%" stop-color="#ff7b7b"/><stop offset="100%" stop-color="#d74141"/></radialGradient><circle cx="0" cy="0" r="14.6" fill="url(#g96)" stroke="#525252" stroke-width="2.9"/></g>
    <g id="a97"><radialGradient id="g97" cx=".5" cy=".5" fx=".33" fy=".33" r=".66"><stop offset="0%" stop-color="#ff5555"/><stop offset="100%" stop-color="#cc0a0a"/></radialGradient><circle cx="0" cy="0" r="14.6" fill="url(#g97)" stroke="#000000" stroke-width="2.9"/></g>
    <g id="a98"><radialGradient id="g98" cx=".5" cy=".5" fx=".33" fy=".33" r=".66"><stop offset="0%" stop-color="#ff5555"/><stop offset="100%" stop-color="#cc0a0a"/></radialGradient><circle cx="0" cy="0" r="14.6" fill="url(#g98)" stroke="#000000" stroke-width="2.9"/></g>
    <g id="a99"><radialGradient id="g99" cx=".5" cy=".5" fx=".33" fy=".33" r=".66"><stop offset="0%" stop-color="#ff7b7b"/><stop offset="100%" stop-color="#d74141"/></radialGradient><circle cx="0" cy="0" r="14.6" fill="url(#g99)" stroke="#525252" stroke-width="2.9"/></g>
  </defs>
  <use x="257.4" y="189.6" xlink:href="#a37"/>
  <line x1="254.9" y1="176.2" x2="247.9" y2="137.7" stroke="#666666" stroke-width="7.2" stroke-linecap="round"/>
  <line x1="247.7" y1="198.8" x2="224.5" y2="221.1" stroke="#636363" stroke-width="7.2" stroke-linecap="round"/>
  <use x="594.1" y="230.4" xlink:href="#a38"/>
  <line x1="591.7" y1="243.8" x2="584.7" y2="282.3" stroke="#666666" stroke-width="7.2" stroke-linecap="round"/>
  <line x1="584.5" y1="221.2" x2="561.3" y2="198.9" stroke="#636363" stroke-width="7.2" stroke-linecap="round"/>
  <use x="580.6" y="425.1" xlink:href="#a91"/>
  <use x="243.8" y="754.9" xlink:href="#a88"/>
  <use x="567.3" y="127.5" xlink:href="#a34"/>
  <line x1="563.8" y1="140.6" x2="554.7" y2="175.2" stroke="#616161" stroke-width="7.2" stroke-linecap="round"/>
  <line x1="557.4" y1="118.6" x2="528.9" y2="92.8" stroke="#5e5e5e" stroke-width="7.2" stroke-linecap="round"/>
  <use x="230.5" y="292.5" xlink:href="#a33"/>
  <line x1="227.1" y1="279.4" x2="217.9" y2="244.8" stroke="#616161" stroke-width="7.2" stroke-linecap="round"/>
  <line x1="220.6" y1="301.4" x2="192.2" y2="327.2" stroke="#5e5e5e" stroke-width="7.2" stroke-linecap="round"/>
  <use x="245.3" y="123.5" xlink:href="#a25"/>
  <use x="582.1" y="296.5" xlink:href="#a26"/>
  <use x="214.2" y="230.9" xlink:href="#a1"/>
  <line x1="201.7" y1="227.3" x2="178.7" y2="220.8" stroke="#454545" stroke-width="7.2" stroke-linecap="round"/>
  <use x="551.0" y="189.1" xlink:href="#a2"/>
  <line x1="538.4" y1="192.7" x2="515.5" y2="199.2" stroke="#454545" stroke-width="7.2" stroke-linecap="round"/>
  <use x="530.3" y="701.0" xlink:href="#a79"/>
  <use x="193.5" y="479.0" xlink:href="#a76"/>
  <use x="138.2" y="693.1" xlink:href="#a12"/>
  <line x1="136.3" y1="707.5" x2="132.3" y2="736.4" stroke="#4d4d4d" stroke-width="7.2" stroke-linecap="round"/>
  <line x1="128.5" y1="682.7" x2="104.4" y2="656.8" stroke="#484848" stroke-width="7.2" stroke-linecap="round"/>
  <use x="475.0" y="486.9" xlink:href="#a15"/>
  <line x1="473.0" y1="472.5" x2="469.0" y2="443.6" stroke="#4d4d4d" stroke-width="7.2" stroke-linecap="round"/>
  <line x1="465.2" y1="497.3" x2="441.1" y2="523.2" stroke="#484848" stroke-width="7.2" stroke-linecap="round"/>
  <use x="181.6" y="336.8" xlink:href="#a21"/>
  <use x="518.4" y="83.2" xlink:href="#a22"/>
  <use x="443.7" y="592.5" xlink:href="#a7"/>
  <line x1="440.8" y1="578.4" x2="434.3" y2="547.8" stroke="#474747" stroke-width="7.2" stroke-linecap="round"/>
  <line x1="433.2" y1="601.4" x2="410.7" y2="620.3" stroke="#414141" stroke-width="7.2" stroke-linecap="round"/>
  <use x="106.9" y="587.5" xlink:href="#a4"/>
  <line x1="104.0" y1="601.6" x2="97.6" y2="632.2" stroke="#474747" stroke-width="7.2" stroke-linecap="round"/>
  <line x1="96.4" y1="578.6" x2="73.9" y2="559.7" stroke="#414141" stroke-width="7.2" stroke-linecap="round"/>
  <use x="467.3" y="430.7" xlink:href="#a55"/>
  <use x="130.5" y="749.3" xlink:href="#a52"/>
  <use x="431.4" y="533.7" xlink:href="#a11"/>
  <line x1="417.9" y1="533.5" x2="385.6" y2="533.1" stroke="#2f2f2f" stroke-width="7.2" stroke-linecap="round"/>
  <use x="94.6" y="646.3" xlink:href="#a8"/>
  <line x1="81.2" y1="646.5" x2="48.8" y2="646.9" stroke="#2f2f2f" stroke-width="7.2" stroke-linecap="round"/>
  <use x="167.5" y="217.6" xlink:href="#a49"/>
  <use x="504.2" y="202.4" xlink:href="#a50"/>
  <use x="400.8" y="628.6" xlink:href="#a47"/>
  <line x1="391.0" y1="620.2" x2="368.0" y2="600.5" stroke="#282828" stroke-width="7.2" stroke-linecap="round"/>
  <use x="64.0" y="551.4" xlink:href="#a44"/>
  <use x="48.7" y="422.4" xlink:href="#a96"/>
  <use x="385.4" y="757.6" xlink:href="#a99"/>
  <use x="36.2" y="647.1" xlink:href="#a40"/>
  <use x="372.9" y="532.9" xlink:href="#a43"/>
  <line x1="369.4" y1="546.2" x2="361.3" y2="577.4" stroke="#1f1f1f" stroke-width="7.2" stroke-linecap="round"/>
  <line x1="365.7" y1="522.0" x2="345.4" y2="491.6" stroke="#181818" stroke-width="7.2" stroke-linecap="round"/>
  <use x="357.6" y="591.5" xlink:href="#a19"/>
  <use x="694.4" y="588.5" xlink:href="#a16"/>
  <use x="337.7" y="480.0" xlink:href="#a31"/>
  <use x="674.4" y="700.0" xlink:href="#a28"/>
  <use x="61.6" y="100.0" xlink:href="#a30"/>
  <use x="398.3" y="320.0" xlink:href="#a29"/>
  <line x1="390.6" y1="308.4" x2="370.3" y2="278.0" stroke="#030303" stroke-width="7.2" stroke-linecap="round"/>
  <use x="41.6" y="211.5" xlink:href="#a18"/>
  <use x="378.4" y="208.5" xlink:href="#a17"/>
  <line x1="374.7" y1="222.6" x2="366.6" y2="253.8" stroke="#010101" stroke-width="7.2" stroke-linecap="round"/>
  <line x1="368.0" y1="199.5" x2="345.0" y2="179.8" stroke="#000000" stroke-width="7.2" stroke-linecap="round"/>
  <use x="363.1" y="267.1" xlink:href="#a41"/>
  <line x1="350.4" y1="266.9" x2="318.1" y2="266.5" stroke="#000000" stroke-width="7.2" stroke-linecap="round"/>
  <use x="699.8" y="152.9" xlink:href="#a42"/>
  <line x1="687.2" y1="153.1" x2="654.8" y2="153.5" stroke="#000000" stroke-width="7.2" stroke-linecap="round"/>
  <use x="687.3" y="377.6" xlink:href="#a98"/>
  <use x="350.6" y="42.4" xlink:href="#a97"/>
  <use x="335.2" y="171.4" xlink:href="#a45"/>
  <line x1="325.3" y1="179.7" x2="302.8" y2="198.6" stroke="#000000" stroke-width="7.2" stroke-linecap="round"/>
  <use x="672.0" y="248.6" xlink:href="#a46"/>
  <line x1="662.1" y1="240.3" x2="639.6" y2="221.4" stroke="#000000" stroke-width="7.2" stroke-linecap="round"/>
  <use x="568.5" y="582.4" xlink:href="#a51"/>
  <line x1="557.3" y1="579.2" x2="534.3" y2="572.7" stroke="#000000" stroke-width="7.2" stroke-linecap="round"/>
  <use x="231.8" y="597.6" xlink:href="#a48"/>
  <line x1="220.5" y1="600.8" x2="197.6" y2="607.3" stroke="#000000" stroke-width="7.2" stroke-linecap="round"/>
  <use x="304.6" y="266.3" xlink:href="#a9"/>
  <line x1="301.7" y1="252.2" x2="295.2" y2="221.6" stroke="#000000" stroke-width="7.2" stroke-linecap="round"/>
  <line x1="294.9" y1="276.8" x2="270.8" y2="302.7" stroke="#000000" stroke-width="7.2" stroke-linecap="round"/>
  <use x="641.4" y="153.7" xlink:href="#a10"/>
  <line x1="638.4" y1="167.8" x2="632.0" y2="198.4" stroke="#000000" stroke-width="7.2" stroke-linecap="round"/>
  <line x1="631.6" y1="143.2" x2="607.5" y2="117.3" stroke="#000000" stroke-width="7.2" stroke-linecap="round"/>
  <use x="268.7" y="369.3" xlink:href="#a53"/>
  <line x1="267.0" y1="356.4" x2="263.0" y2="327.5" stroke="#000000" stroke-width="7.2" stroke-linecap="round"/>
  <use x="605.5" y="50.7" xlink:href="#a54"/>
  <line x1="603.7" y1="63.6" x2="599.7" y2="92.5" stroke="#000000" stroke-width="7.2" stroke-linecap="round"/>
  <use x="292.3" y="207.5" xlink:href="#a5"/>
  <use x="629.1" y="212.5" xlink:href="#a6"/>
  <use x="554.4" y="463.2" xlink:href="#a23"/>
  <line x1="543.8" y1="472.8" x2="515.4" y2="498.6" stroke="#000000" stroke-width="7.2" stroke-linecap="round"/>
  <use x="217.6" y="716.8" xlink:href="#a20"/>
  <line x1="207.1" y1="707.2" x2="178.6" y2="681.4" stroke="#000000" stroke-width="7.2" stroke-linecap="round"/>
  <use x="597.8" y="106.9" xlink:href="#a14"/>
  <use x="261.0" y="313.1" xlink:href="#a13"/>
  <use x="205.7" y="99.0" xlink:href="#a77"/>
  <use x="542.5" y="321.0" xlink:href="#a78"/>
  <use x="521.8" y="569.1" xlink:href="#a3"/>
  <line x1="518.1" y1="555.2" x2="508.9" y2="520.6" stroke="#000000" stroke-width="7.2" stroke-linecap="round"/>
  <line x1="511.5" y1="578.9" x2="488.3" y2="601.2" stroke="#000000" stroke-width="7.2" stroke-linecap="round"/>
  <use x="185.0" y="610.9" xlink:href="#a0"/>
  <line x1="181.3" y1="624.8" x2="172.2" y2="659.4" stroke="#000000" stroke-width="7.2" stroke-linecap="round"/>
  <line x1="174.7" y1="601.1" x2="151.5" y2="578.8" stroke="#000000" stroke-width="7.2" stroke-linecap="round"/>
  <use x="490.7" y="676.5" xlink:href="#a27"/>
  <line x1="488.1" y1="662.3" x2="481.1" y2="623.8" stroke="#000000" stroke-width="7.2" stroke-linecap="round"/>
  <use x="153.9" y="503.5" xlink:href="#a24"/>
  <line x1="151.3" y1="517.7" x2="144.3" y2="556.2" stroke="#000000" stroke-width="7.2" stroke-linecap="round"/>
  <use x="168.7" y="672.5" xlink:href="#a32"/>
  <use x="505.5" y="507.5" xlink:href="#a35"/>
  <use x="155.4" y="374.9" xlink:href="#a89"/>
  <use x="492.2" y="45.1" xlink:href="#a90"/>
  <use x="478.6" y="610.4" xlink:href="#a39"/>
  <use x="141.9" y="569.6" xlink:href="#a36"/>
  <line x1="42.2" y1="780.0" x2="715.8" y2="780.0" stroke="#808080" stroke-width="2.9" stroke-dasharray="7.2,8.6" stroke-linecap="round"/>
  <line x1="42.2" y1="20.0" x2="715.8" y2="20.0" stroke="#808080" stroke-width="2.9" stroke-dasharray="7.2,8.6" stroke-linecap="round"/>
  <line x1="20.2" y1="780.0" x2="693.8" y2="780.0" stroke="#808080" stroke-width="2.9" stroke-dasharray="7.2,8.6" stroke-linecap="round"/>
  <line x1="20.2" y1="20.0" x2="693.8" y2="20.0" stroke="#808080" stroke-width="2.9" stroke-dasharray="7.2,8.6" stroke-linecap="round"/>
  <line x1="42.2" y1="780.0" x2="42.2" y2="20.0" stroke="#808080" stroke-width="2.9" stroke-dasharray="7.2,8.6" stroke-linecap="round"/>
  <line x1="715.8" y1="780.0" x2="715.8" y2="20.0" stroke="#808080" stroke-width="2.9" stroke-dasharray="7.2,8.6" stroke-linecap="round"/>
  <line x1="20.2" y1="780.0" x2="20.2" y2="20.0" stroke="#808080" stroke-width="2.9" stroke-dasharray="7.2,8.6" stroke-linecap="round"/>
  <line x1="693.8" y1="780.0" x2="693.8" y2="20.0" stroke="#808080" stroke-width="2.9" stroke-dasharray="7.2,8.6" stroke-linecap="round"/>
  <line x1="42.2" y1="780.0" x2="20.2" y2="780.0" stroke="#808080" stroke-width="2.9" stroke-dasharray="7.2,8.6" stroke-linecap="round"/>
  <line x1="715.8" y1="780.0" x2="693.8" y2="780.0" stroke="#808080" stroke-width="2.9" stroke-dasharray="7.2,8.6" stroke-linecap="round"/>
  <line x1="42.2" y1="20.0" x2="20.2" y2="20.0" stroke="#808080" stroke-width="2.9" stroke-dasharray="7.2,8.6" stroke-linecap="round"/>
  <line x1="715.8" y1="20.0" x2="693.8" y2="20.0" stroke="#808080" stroke-width="2.9" stroke-dasharray="7.2,8.6" stroke-linecap="round"/>
</svg>