<svg xmlns="http://www.w3.org/2000/svg" xmlns:xlink="http://www.w3.org/1999/xlink" width="711" height="800">
  <rect width="100%" height="100%" fill="#ffffff"/>
  <defs>
    <g id="a0"><radialGradient id="g0" cx=".5" cy=".5" fx=".33" fy=".33" r=".66"><stop offset="0%" stop-color="#c3c3c3"/><stop offset="100%" stop-color="#888888"/></radialGradient><circle cx="0" cy="0" r="48.0" fill="url(#g0)" stroke="#000000" stroke-width="8.5"/></g>
    <g id="a1"><radialGradient id="g1" cx=".5" cy=".5" fx=".33" fy=".33" r=".66"><stop offset="0%" stop-color="#c5c5c5"/><stop offset="100%" stop-color="#8d8d8d"/></radialGradient><circle cx="0" cy="0" r="48.0" fill="url(#g1)" stroke="#0f0f0f" stroke-width="8.5"/></g>
    <g id="a2"><radialGradient id="g2" cx=".5" cy=".5" fx=".33" fy=".33" r=".66"><stop offset="0%" stop-color="#c3c3c3"/><stop offset="100%" stop-color="#888888"/></radialGradient><circle cx="0" cy="0" r="48.0" fill="url(#g2)" stroke="#000000" stroke-width="8.5"/></g>
    <g id="a3"><radialGradient id="g3" cx=".5" cy=".5" fx=".33" fy=".33" r=".66"><stop offset="0%" stop-color="#c5c5c5"/><stop offset="100%" stop-color="#8d8d8d"/></radialGradient><circle cx="0" cy="0" r="48.0" fill="url(#g3)" stroke="#0f0f0f" stroke-width="8.5"/></g>
    <g id="a4"><radialGradient id="g4" cx=".5" cy=".5" fx=".33" fy=".33" r=".66"><stop offset="0%" stop-color="#c3c3c3"/><stop offset="100%" stop-color="#888888"/></radialGradient><circle cx="0" cy="0" r="48.0" fill="url(#g4)" stroke="#000000" stroke-width="8.5"/></g>
    <g id="a5"><radialGradient id="g5" cx=".5" cy=".5" fx=".33" fy=".33" r=".66"><stop offset="0%" stop-color="#c5c5c5"/><stop offset="100%" stop-color="#8d8d8d"/></radialGradient><circle cx="0" cy="0" r="48.0" fill="url(#g5)" stroke="#0f0f0f" stroke-width="8.5"/></g>
    <g id="a6"><radialGradient id="g6" cx=".5" cy=".5" fx=".33" fy=".33" r=".66"><stop offset="0%" stop-color="#ffffff"/><stop offset="100%" stop-color="#cdcdcd"/></radialGradient><circle cx="0" cy="0" r="25.2" fill="url(#g6)" stroke="#0c0c0c" stroke-width="8.5"/></g>
    <g id="a7"><radialGradient id="g7" cx=".5" cy=".5" fx=".33" fy=".33" r=".66"><stop offset="0%" stop-color="#ffffff"/><stop offset="100%" stop-color="#cccccc"/></radialGradient><circle cx="0" cy="0" r="25.2" fill="url(#g7)" stroke="#000000" stroke-width="8.5"/></g>
    <g id="a8"><radialGradient id="g8" cx=".5" cy=".5" fx=".33" fy=".33" r=".66"><stop offset="0%" stop-color="#ffffff"/><stop offset="100%" stop-color="#cccccc"/></radialGradient><circle cx="0" cy="0" r="25.2" fill="url(#g8)" stroke="#010101" stroke-width="8.5"/></g>
    <g id="a9"><radialGradient id="g9" cx=".5" cy=".5" fx=".33" fy=".33" r=".66"><stop offset="0%" stop-color="#ffffff"/><stop offset="100%" stop-color="#dfdfdf"/></radialGradient><circle cx="0" cy="0" r="25.2" fill="url(#g9)" stroke="#8d8d8d" stroke-width="8.5"/></g>
    <g id="a10"><radialGradient id="g10" cx=".5" cy=".5" fx=".33" fy=".33" r=".66"><stop offset="0%" stop-color="#ffffff"/><stop offset="100%" stop-color="#cccccc"/></radialGradient><circle cx="0" cy="0" r="25.2" fill="url(#g10)" stroke="#000000" stroke-width="8.5"/></g>
    <g id="a11"><radialGradient id="g11" cx=".5" cy=".5" fx=".33" fy=".33" r=".66"><stop offset="0%" stop-color="#ffffff"/><stop offset="100%" stop-color="#cdcdcd"/></radialGradient><circle cx="0" cy="0" r="25.2" fill="url(#g11)" stroke="#0c0c0c" stroke-width="8.5"/></g>
    <g id="a12"><radialGradient id="g12" cx=".5" cy=".5" fx=".33" fy=".33" r=".66"><stop offset="0%" stop-color="#ffffff"/><stop offset="100%" stop-color="#dfdfdf"/></radialGradient><circle cx="0" cy="0" r="25.2" fill="url(#g12)" stroke="#8d8d8d" stroke-width="8.5"/></g>
    <g id="a13"><radialGradient id="g13" cx=".5" cy=".5" fx=".33" fy=".33" r=".66"><stop offset="0%" stop-color="#ffffff"/><stop offset="100%" stop-color="#cccccc"/></radialGradient><circle cx="0" cy="0" r="25.2" fill="url(#g13)" stroke="#010101" stroke-width="8.5"/></g>
    <g id="a14"><radialGradient id="g14" cx=".5" cy=".5" fx=".33" fy=".33" r=".66"><stop offset="0%" stop-color="#ffffff"/><stop offset="100%" stop-color="#cccccc"/></radialGradient><circle cx="0" cy="0" r="25.2" fill="url(#g14)" stroke="#000000" stroke-width="8.5"/></g>
    <g id="a15"><radialGradient id="g15" cx=".5" cy=".5" fx=".33" fy=".33" r=".66"><stop offset="0%" stop-color="#ffffff"/><stop offset="100%" stop-color="#cdcdcd"/></radialGradient><circle cx="0" cy="0" r="25.2" fill="url(#g15)" stroke="#0c0c0c" stroke-width="8.5"/></g>
    <g id="a16"><radialGradient id="g16" cx=".5" cy=".5" fx=".33" fy=".33" r=".66"><stop offset="0%" stop-color="#ffffff"/><stop offset="100%" stop-color="#dfdfdf"/></radialGradient><circle cx="0" cy="0" r="25.2" fill="url(#g16)" stroke="#8d8d8d" stroke-width="8.5"/></g>
    <g id="a17"><radialGradient id="g17" cx=".5" cy=".5" fx=".33" fy=".33" r=".66"><stop offset="0%" stop-color="#ffffff"/><stop offset="100%" stop-color="#cccccc"/></radialGradient><circle cx="0" cy="0" r="25.2" fill="url(#g17)" stroke="#010101" stroke-width="8.5"/></g>
  </defs>
  <use x="176.4" y="503.4" xlink:href="#a16"/>
  <line x1="178.0" y1="502.5" x2="183.4" y2="499.4" stroke="#232323" stroke-width="21.2" stroke-linecap="round"/>
  <use x="355.5" y="193.2" xlink:href="#a12"/>
  <line x1="355.5" y1="195.0" x2="355.5" y2="201.3" stroke="#232323" stroke-width="21.2" stroke-linecap="round"/>
  <use x="534.6" y="503.4" xlink:href="#a9"/>
  <line x1="533.0" y1="502.5" x2="527.6" y2="499.3" stroke="#232323" stroke-width="21.2" stroke-linecap="round"/>
  <use x="186.3" y="497.7" xlink:href="#a5"/>
  <line x1="151.5" y1="517.8" x2="86.3" y2="555.4" stroke="#030303" stroke-width="21.2" stroke-linecap="round"/>
  <line x1="222.1" y1="518.3" x2="319.8" y2="574.7" stroke="#030303" stroke-width="21.2" stroke-linecap="round"/>
  <line x1="186.3" y1="456.4" x2="186.3" y2="343.6" stroke="#030303" stroke-width="21.2" stroke-linecap="round"/>
  <use x="355.5" y="204.7" xlink:href="#a3"/>
  <line x1="355.5" y1="164.5" x2="355.5" y2="89.1" stroke="#030303" stroke-width="21.2" stroke-linecap="round"/>
  <line x1="391.2" y1="225.3" x2="488.9" y2="281.7" stroke="#030303" stroke-width="21.2" stroke-linecap="round"/>
  <line x1="319.8" y1="225.3" x2="222.1" y2="281.7" stroke="#030303" stroke-width="21.2" stroke-linecap="round"/>
  <use x="524.7" y="497.7" xlink:href="#a1"/>
  <line x1="559.5" y1="517.8" x2="624.7" y2="555.4" stroke="#030303" stroke-width="21.2" stroke-linecap="round"/>
  <line x1="488.9" y1="518.3" x2="391.2" y2="574.7" stroke="#030303" stroke-width="21.2" stroke-linecap="round"/>
  <line x1="524.7" y1="456.4" x2="524.7" y2="343.6" stroke="#030303" stroke-width="21.2" stroke-linecap="round"/>
  <use x="355.5" y="732.0" xlink:href="#a6"/>
  <line x1="355.5" y1="710.9" x2="355.5" y2="635.5" stroke="#020202" stroke-width="21.2" stroke-linecap="round"/>
  <use x="643.0" y="234.0" xlink:href="#a11"/>
  <line x1="624.7" y1="244.6" x2="559.5" y2="282.2" stroke="#020202" stroke-width="21.2" stroke-linecap="round"/>
  <use x="68.0" y="234.0" xlink:href="#a15"/>
  <line x1="86.3" y1="244.6" x2="151.5" y2="282.2" stroke="#020202" stroke-width="21.2" stroke-linecap="round"/>
  <use x="355.5" y="68.0" xlink:href="#a13"/>
  <use x="68.0" y="566.0" xlink:href="#a17"/>
  <use x="643.0" y="566.0" xlink:href="#a8"/>
  <use x="355.5" y="595.3" xlink:href="#a0"/>
  <line x1="355.5" y1="598.7" x2="355.5" y2="605.0" stroke="#000000" stroke-width="21.2" stroke-linecap="round"/>
  <use x="524.7" y="302.3" xlink:href="#a2"/>
  <line x1="527.6" y1="300.6" x2="533.0" y2="297.5" stroke="#000000" stroke-width="21.2" stroke-linecap="round"/>
  <use x="186.3" y="302.3" xlink:href="#a4"/>
  <line x1="183.4" y1="300.7" x2="178.0" y2="297.5" stroke="#000000" stroke-width="21.2" stroke-linecap="round"/>
  <use x="355.5" y="606.8" xlink:href="#a7"/>
  <use x="534.6" y="296.6" xlink:href="#a10"/>
  <use x="176.4" y="296.6" xlink:href="#a14"/>
</svg>