<svg xmlns="http://www.w3.org/2000/svg" xmlns:xlink="http://www.w3.org/1999/xlink" width="800" height="799">
  <rect width="100%" height="100%" fill="#ffffff"/>
  <defs>
    <g id="a0"><radialGradient id="g0" cx=".5" cy=".5" fx=".33" fy=".33" r=".66"><stop offset="0%" stop-color="#8295fa"/><stop offset="100%" stop-color="#445ace"/></radialGradient><circle cx="0" cy="0" r="32.6" fill="url(#g0)" stroke="#333333" stroke-width="6.1"/></g>
    <g id="a1"><radialGradient id="g1" cx=".5" cy=".5" fx=".33" fy=".33" r=".66"><stop offset="0%" stop-color="#c3c3c3"/><stop offset="100%" stop-color="#898989"/></radialGradient><circle cx="0" cy="0" r="34.7" fill="url(#g1)" stroke="#030303" stroke-width="6.1"/></g>
    <g id="a2"><radialGradient id="g2" cx=".5" cy=".5" fx=".33" fy=".33" r=".66"><stop offset="0%" stop-color="#c3c3c3"/><stop offset="100%" stop-color="#888888"/></radialGradient><circle cx="0" cy="0" r="34.7" fill="url(#g2)" stroke="#000000" stroke-width="6.1"/></g>
    <g id="a3"><radialGradient id="g3" cx=".5" cy=".5" fx=".33" fy=".33" r=".66"><stop offset="0%" stop-color="#c3c3c3"/><stop offset="100%" stop-color="#898989"/></radialGradient><circle cx="0" cy="0" r="34.7" fill="url(#g3)" stroke="#030303" stroke-width="6.1"/></g>
    <g id="a4"><radialGradient id="g4" cx=".5" cy=".5" fx=".33" fy=".33" r=".66"><stop offset="0%" stop-color="#c3c3c3"/><stop offset="100%" stop-color="#888888"/></radialGradient><circle cx="0" cy="0" r="34.7" fill="url(#g4)" stroke="#000000" stroke-width="6.1"/></g>
    <g id="a5"><radialGradient id="g5" cx=".5" cy=".5" fx=".33" fy=".33" r=".66"><stop offset="0%" stop-color="#cbcbcb"/><stop offset="100%" stop-color="#989898"/></radialGradient><circle cx="0" cy="0" r="34.7" fill="url(#g5)" stroke="#323232" stroke-width="6.1"/></g>
    <g id="a6"><radialGradient id="g6" cx=".5" cy=".5" fx=".33" fy=".33" r=".66"><stop offset="0%" stop-color="#c6c6c6"/><stop offset="100%" stop-color="#8e8e8e"/></radialGradient><circle cx="0" cy="0" r="34.7" fill="url(#g6)" stroke="#141414" stroke-width="6.1"/></g>
    <g id="a7"><radialGradient id="g7" cx=".5" cy=".5" fx=".33" fy=".33" r=".66"><stop offset="0%" stop-color="#c3c3c3"/><stop offset="100%" stop-color="#888888"/></radialGradient><circle cx="0" cy="0" r="34.7" fill="url(#g7)" stroke="#000000" stroke-width="6.1"/></g>
    <g id="a8"><radialGradient id="g8" cx=".5" cy=".5" fx=".33" fy=".33" r=".66"><stop offset="0%" stop-color="#e3e3e3"/><stop offset="100%" stop-color="#c8c8c8"/></radialGradient><circle cx="0" cy="0" r="34.7" fill="url(#g8)" stroke="#b2b2b2" stroke-width="6.1"/></g>
    <g id="a9"><radialGradient id="g9" cx=".5" cy=".5" fx=".33" fy=".33" r=".66"><stop offset="0%" stop-color="#d9d9d9"/><stop offset="100%" stop-color="#b4b4b4"/></radialGradient><circle cx="0" cy="0" r="34.7" fill="url(#g9)" stroke="#878787" stroke-width="6.1"/></g>
    <g id="a10"><radialGradient id="g10" cx=".5" cy=".5" fx=".33" fy=".33" r=".66"><stop offset="0%" stop-color="#d1d1d1"/><stop offset="100%" stop-color="#a3a3a3"/></radialGradient><circle cx="0" cy="0" r="34.7" fill="url(#g10)" stroke="#555555" stroke-width="6.1"/></g>
    <g id="a11"><radialGradient id="g11" cx=".5" cy=".5" fx=".33" fy=".33" r=".66"><stop offset="0%" stop-color="#d9d9d9"/><stop offset="100%" stop-color="#b4b4b4"/></radialGradient><circle cx="0" cy="0" r="34.7" fill="url(#g11)" stroke="#878787" stroke-width="6.1"/></g>
    <g id="a12"><radialGradient id="g12" cx=".5" cy=".5" fx=".33" fy=".33" r=".66"><stop offset="0%" stop-color="#d1d1d1"/><stop offset="100%" stop-color="#a3a3a3"/></radialGradient><circle cx="0" cy="0" r="34.7" fill="url(#g12)" stroke="#555555" stroke-width="6.1"/></g>
    <g id="a13"><radialGradient id="g13" cx=".5" cy=".5" fx=".33" fy=".33" r=".66"><stop offset="0%" stop-color="#c3c3c3"/><stop offset="100%" stop-color="#888888"/></radialGradient><circle cx="0" cy="0" r="34.7" fill="url(#g13)" stroke="#000000" stroke-width="6.1"/></g>
    <g id="a14"><radialGradient id="g14" cx=".5" cy=".5" fx=".33" fy=".33" r=".66"><stop offset="0%" stop-color="#e3e3e3"/><stop offset="100%" stop-color="#c8c8c8"/></radialGradient><circle cx="0" cy="0" r="34.7" fill="url(#g14)" stroke="#b2b2b2" stroke-width="6.1"/></g>
    <g id="a15"><radialGradient id="g15" cx=".5" cy=".5" fx=".33" fy=".33" r=".66"><stop offset="0%" stop-color="#cacaca"/><stop offset="100%" stop-color="#979797"/></radialGradient><circle cx="0" cy="0" r="34.7" fill="url(#g15)" stroke="#2f2f2f" stroke-width="6.1"/></g>
    <g id="a16"><radialGradient id="g16" cx=".5" cy=".5" fx=".33" fy=".33" r=".66"><stop offset="0%" stop-color="#c6c6c6"/><stop offset="100%" stop-color="#8e8e8e"/></radialGradient><circle cx="0" cy="0" r="34.7" fill="url(#g16)" stroke="#141414" stroke-width="6.1"/></g>
    <g id="a17"><radialGradient id="g17" cx=".5" cy=".5" fx=".33" fy=".33" r=".66"><stop offset="0%" stop-color="#c3c3c3"/><stop offset="100%" stop-color="#898989"/></radialGradient><circle cx="0" cy="0" r="34.7" fill="url(#g17)" stroke="#040404" stroke-width="6.1"/></g>
    <g id="a18"><radialGradient id="g18" cx=".5" cy=".5" fx=".33" fy=".33" r=".66"><stop offset="0%" stop-color="#c3c3c3"/><stop offset="100%" stop-color="#888888"/></radialGradient><circle cx="0" cy="0" r="34.7" fill="url(#g18)" stroke="#000000" stroke-width="6.1"/></g>
    <g id="a19"><radialGradient id="g19" cx=".5" cy=".5" fx=".33" fy=".33" r=".66"><stop offset="0%" stop-color="#c3c3c3"/><stop offset="100%" stop-color="#898989"/></radialGradient><circle cx="0" cy="0" r="34.7" fill="url(#g19)" stroke="#040404" stroke-width="6.1"/></g>
    <g id="a20"><radialGradient id="g20" cx=".5" cy=".5" fx=".33" fy=".33" r=".66"><stop offset="0%" stop-color="#c3c3c3"/><stop offset="100%" stop-color="#888888"/></radialGradient><circle cx="0" cy="0" r="34.7" fill="url(#g20)" stroke="#000000" stroke-width="6.1"/></g>
    <g id="a21"><radialGradient id="g21" cx=".5" cy=".5" fx=".33" fy=".33" r=".66"><stop offset="0%" stop-color="#cacaca"/><stop offset="100%" stop-color="#979797"/></radialGradient><circle cx="0" cy="0" r="34.7" fill="url(#g21)" stroke="#2f2f2f" stroke-width="6.1"/></g>
    <g id="a22"><radialGradient id="g22" cx=".5" cy=".5" fx=".33" fy=".33" r=".66"><stop offset="0%" stop-color="#c6c6c6"/><stop offset="100%" stop-color="#8e8e8e"/></radialGradient><circle cx="0" cy="0" r="34.7" fill="url(#g22)" stroke="#131313" stroke-width="6.1"/></g>
    <g id="a23"><radialGradient id="g23" cx=".5" cy=".5" fx=".33" fy=".33" r=".66"><stop offset="0%" stop-color="#ededed"/><stop offset="100%" stop-color="#dbdbdb"/></radialGradient><circle cx="0" cy="0" r="34.7" fill="url(#g23)" stroke="#b2b2b2" stroke-width="6.1"/></g>
    <g id="a24"><radialGradient id="g24" cx=".5" cy=".5" fx=".33" fy=".33" r=".66"><stop offset="0%" stop-color="#e3e3e3"/><stop offset="100%" stop-color="#c8c8c8"/></radialGradient><circle cx="0" cy="0" r="34.7" fill="url(#g24)" stroke="#b2b2b2" stroke-width="6.1"/></g>
    <g id="a25"><radialGradient id="g25" cx=".5" cy=".5" fx=".33" fy=".33" r=".66"><stop offset="0%" stop-color="#d9d9d9"/><stop offset="100%" stop-color="#b4b4b4"/></radialGradient><circle cx="0" cy="0" r="34.7" fill="url(#g25)" stroke="#898989" stroke-width="6.1"/></g>
    <g id="a26"><radialGradient id="g26" cx=".5" cy=".5" fx=".33" fy=".33" r=".66"><stop offset="0%" stop-color="#d1d1d1"/><stop offset="100%" stop-color="#a4a4a4"/></radialGradient><circle cx="0" cy="0" r="34.7" fill="url(#g26)" stroke="#555555" stroke-width="6.1"/></g>
    <g id="a27"><radialGradient id="g27" cx=".5" cy=".5" fx=".33" fy=".33" r=".66"><stop offset="0%" stop-color="#d9d9d9"/><stop offset="100%" stop-color="#b4b4b4"/></radialGradient><circle cx="0" cy="0" r="34.7" fill="url(#g27)" stroke="#898989" stroke-width="6.1"/></g>
    <g id="a28"><radialGradient id="g28" cx=".5" cy=".5" fx=".33" fy=".33" r=".66"><stop offset="0%" stop-color="#d1d1d1"/><stop offset="100%" stop-color="#a4a4a4"/></radialGradient><circle cx="0" cy="0" r="34.7" fill="url(#g28)" stroke="#565656" stroke-width="6.1"/></g>
    <g id="a29"><radialGradient id="g29" cx=".5" cy=".5" fx=".33" fy=".33" r=".66"><stop offset="0%" stop-color="#ededed"/><stop offset="100%" stop-color="#dbdbdb"/></radialGradient><circle cx="0" cy="0" r="34.7" fill="url(#g29)" stroke="#b2b2b2" stroke-width="6.1"/></g>
    <g id="a30"><radialGradient id="g30" cx=".5" cy=".5" fx=".33" fy=".33" r=".66"><stop offset="0%" stop-color="#e3e3e3"/><stop offset="100%" stop-color="#c8c8c8"/></radialGradient><circle cx="0" cy="0" r="34.7" fill="url(#g30)" stroke="#b2b2b2" stroke-width="6.1"/></g>
    <g id="a31"><radialGradient id="g31" cx=".5" cy=".5" fx=".33" fy=".33" r=".66"><stop offset="0%" stop-color="#cacaca"/><stop offset="100%" stop-color="#979797"/></radialGradient><circle cx="0" cy="0" r="34.7" fill="url(#g31)" stroke="#2f2f2f" stroke-width="6.1"/></g>
    <g id="a32"><radialGradient id="g32" cx=".5" cy=".5" fx=".33" fy=".33" r=".66"><stop offset="0%" stop-color="#c6c6c6"/><stop offset="100%" stop-color="#8e8e8e"/></radialGradient><circle cx="0" cy="0" r="34.7" fill="url(#g32)" stroke="#141414" stroke-width="6.1"/></g>
    <g id="a33"><radialGradient id="g33" cx=".5" cy=".5" fx=".33" fy=".33" r=".66"><stop offset="0%" stop-color="#c3c3c3"/><stop offset="100%" stop-color="#898989"/></radialGradient><circle cx="0" cy="0" r="34.7" fill="url(#g33)" stroke="#040404" stroke-width="6.1"/></g>
    <g id="a34"><radialGradient id="g34" cx=".5" cy=".5" fx=".33" fy=".33" r=".66"><stop offset="0%" stop-color="#c3c3c3"/><stop offset="100%" stop-color="#888888"/></radialGradient><circle cx="0" cy="0" r="34.7" fill="url(#g34)" stroke="#000000" stroke-width="6.1"/></g>
    <g id="a35"><radialGradient id="g35" cx=".5" cy=".5" fx=".33" fy=".33" r=".66"><stop offset="0%" stop-color="#c3c3c3"/><stop offset="100%" stop-color="#898989"/></radialGradient><circle cx="0" cy="0" r="34.7" fill="url(#g35)" stroke="#040404" stroke-width="6.1"/></g>
    <g id="a36"><radialGradient id="g36" cx=".5" cy=".5" fx=".33" fy=".33" r=".66"><stop offset="0%" stop-color="#c3c3c3"/><stop offset="100%" stop-color="#888888"/></radialGradient><circle cx="0" cy="0" r="34.7" fill="url(#g36)" stroke="#000000" stroke-width="6.1"/></g>
    <g id="a37"><radialGradient id="g37" cx=".5" cy=".5" fx=".33" fy=".33" r=".66"><stop offset="0%" stop-color="#cacaca"/><stop offset="100%" stop-color="#979797"/></radialGradient><circle cx="0" cy="0" r="34.7" fill="url(#g37)" stroke="#2f2f2f" stroke-width="6.1"/></g>
    <g id="a38"><radialGradient id="g38" cx=".5" cy=".5" fx=".33" fy=".33" r=".66"><stop offset="0%" stop-color="#c6c6c6"/><stop offset="100%" stop-color="#8e8e8e"/></radialGradient><circle cx="0" cy="0" r="34.7" fill="url(#g38)" stroke="#131313" stroke-width="6.1"/></g>
    <g id="a39"><radialGradient id="g39" cx=".5" cy=".5" fx=".33" fy=".33" r=".66"><stop offset="0%" stop-color="#ededed"/><stop offset="100%" stop-color="#dbdbdb"/></radialGradient><circle cx="0" cy="0" r="34.7" fill="url(#g39)" stroke="#b2b2b2" stroke-width="6.1"/></g>
    <g id="a40"><radialGradient id="g40" cx=".5" cy=".5" fx=".33" fy=".33" r=".66"><stop offset="0%" stop-color="#e3e3e3"/><stop offset="100%" stop-color="#c8c8c8"/></radialGradient><circle cx="0" cy="0" r="34.7" fill="url(#g40)" stroke="#b2b2b2" stroke-width="6.1"/></g>
    <g id="a41"><radialGradient id="g41" cx=".5" cy=".5" fx=".33" fy=".33" r=".66"><stop offset="0%" stop-color="#d9d9d9"/><stop offset="100%" stop-color="#b4b4b4"/></radialGradient><circle cx="0" cy="0" r="34.7" fill="url(#g41)" stroke="#898989" stroke-width="6.1"/></g>
    <g id="a42"><radialGradient id="g42" cx=".5" cy=".5" fx=".33" fy=".33" r=".66"><stop offset="0%" stop-color="#d1d1d1"/><stop offset="100%" stop-color="#a4a4a4"/></radialGradient><circle cx="0" cy="0" r="34.7" fill="url(#g42)" stroke="#565656" stroke-width="6.1"/></g>
    <g id="a43"><radialGradient id="g43" cx=".5" cy=".5" fx=".33" fy=".33" r=".66"><stop offset="0%" stop-color="#d9d9d9"/><stop offset="100%" stop-color="#b4b4b4"/></radialGradient><circle cx="0" cy="0" r="34.7" fill="url(#g43)" stroke="#898989" stroke-width="6.1"/></g>
    <g id="a44"><radialGradient id="g44" cx=".5" cy=".5" fx=".33" fy=".33" r=".66"><stop offset="0%" stop-color="#d1d1d1"/><stop offset="100%" stop-color="#a4a4a4"/></radialGradient><circle cx="0" cy="0" r="34.7" fill="url(#g44)" stroke="#555555" stroke-width="6.1"/></g>
    <g id="a45"><radialGradient id="g45" cx=".5" cy=".5" fx=".33" fy=".33" r=".66"><stop offset="0%" stop-color="#ededed"/><stop offset="100%" stop-color="#dbdbdb"/></radialGradient><circle cx="0" cy="0" r="34.7" fill="url(#g45)" stroke="#b2b2b2" stroke-width="6.1"/></g>
    <g id="a46"><radialGradient id="g46" cx=".5" cy=".5" fx=".33" fy=".33" r=".66"><stop offset="0%" stop-color="#e3e3e3"/><stop offset="100%" stop-color="#c8c8c8"/></radialGradient><circle cx="0" cy="0" r="34.7" fill="url(#g46)" stroke="#b2b2b2" stroke-width="6.1"/></g>
    <g id="a47"><radialGradient id="g47" cx=".5" cy=".5" fx=".33" fy=".33" r=".66"><stop offset="0%" stop-color="#cacaca"/><stop offset="100%" stop-color="#979797"/></radialGradient><circle cx="0" cy="0" r="34.7" fill="url(#g47)" stroke="#2e2e2e" stroke-width="6.1"/></g>
    <g id="a48"><radialGradient id="g48" cx=".5" cy=".5" fx=".33" fy=".33" r=".66"><stop offset="0%" stop-color="#c6c6c6"/><stop offset="100%" stop-color="#8e8e8e"/></radialGradient><circle cx="0" cy="0" r="34.7" fill="url(#g48)" stroke="#141414" stroke-width="6.1"/></g>
    <g id="a49"><radialGradient id="g49" cx=".5" cy=".5" fx=".33" fy=".33" r=".66"><stop offset="0%" stop-color="#c3c3c3"/><stop offset="100%" stop-color="#898989"/></radialGradient><circle cx="0" cy="0" r="34.7" fill="url(#g49)" stroke="#040404" stroke-width="6.1"/></g>
    <g id="a50"><radialGradient id="g50" cx=".5" cy=".5" fx=".33" fy=".33" r=".66"><stop offset="0%" stop-color="#c3c3c3"/><stop offset="100%" stop-color="#888888"/></radialGradient><circle cx="0" cy="0" r="34.7" fill="url(#g50)" stroke="#000000" stroke-width="6.1"/></g>
    <g id="a51"><radialGradient id="g51" cx=".5" cy=".5" fx=".33" fy=".33" r=".66"><stop offset="0%" stop-color="#c3c3c3"/><stop offset="100%" stop-color="#898989"/></radialGradient><circle cx="0" cy="0" r="34.7" fill="url(#g51)" stroke="#040404" stroke-width="6.1"/></g>
    <g id="a52"><radialGradient id="g52" cx=".5" cy=".5" fx=".33" fy=".33" r=".66"><stop offset="0%" stop-color="#c3c3c3"/><stop offset="100%" stop-color="#888888"/></radialGradient><circle cx="0" cy="0" r="34.7" fill="url(#g52)" stroke="#000000" stroke-width="6.1"/></g>
    <g id="a53"><radialGradient id="g53" cx=".5" cy=".5" fx=".33" fy=".33" r=".66"><stop offset="0%" stop-color="#cacaca"/><stop offset="100%" stop-color="#979797"/></radialGradient><circle cx="0" cy="0" r="34.7" fill="url(#g53)" stroke="#2f2f2f" stroke-width="6.1"/></g>
    <g id="a54"><radialGradient id="g54" cx=".5" cy=".5" fx=".33" fy=".33" r=".66"><stop offset="0%" stop-color="#c6c6c6"/><stop offset="100%" stop-color="#8f8f8f"/></radialGradient><circle cx="0" cy="0" r="34.7" fill="url(#g54)" stroke="#151515" stroke-width="6.1"/></g>
    <g id="a55"><radialGradient id="g55" cx=".5" cy=".5" fx=".33" fy=".33" r=".66"><stop offset="0%" stop-color="#ededed"/><stop offset="100%" stop-color="#dbdbdb"/></radialGradient><circle cx="0" cy="0" r="34.7" fill="url(#g55)" stroke="#b2b2b2" stroke-width="6.1"/></g>
    <g id="a56"><radialGradient id="g56" cx=".5" cy=".5" fx=".33" fy=".33" r=".66"><stop offset="0%" stop-color="#e3e3e3"/><stop offset="100%" stop-color="#c8c8c8"/></radialGradient><circle cx="0" cy="0" r="34.7" fill="url(#g56)" stroke="#b2b2b2" stroke-width="6.1"/></g>
    <g id="a57"><radialGradient id="g57" cx=".5" cy=".5" fx=".33" fy=".33" r=".66"><stop offset="0%" stop-color="#d9d9d9"/><stop offset="100%" stop-color="#b4b4b4"/></radialGradient><circle cx="0" cy="0" r="34.7" fill="url(#g57)" stroke="#888888" stroke-width="6.1"/></g>
    <g id="a58"><radialGradient id="g58" cx=".5" cy=".5" fx=".33" fy=".33" r=".66"><stop offset="0%" stop-color="#d1d1d1"/><stop offset="100%" stop-color="#a4a4a4"/></radialGradient><circle cx="0" cy="0" r="34.7" fill="url(#g58)" stroke="#555555" stroke-width="6.1"/></g>
    <g id="a59"><radialGradient id="g59" cx=".5" cy=".5" fx=".33" fy=".33" r=".66"><stop offset="0%" stop-color="#d9d9d9"/><stop offset="100%" stop-color="#b4b4b4"/></radialGradient><circle cx="0" cy="0" r="34.7" fill="url(#g59)" stroke="#888888" stroke-width="6.1"/></g>
    <g id="a60"><radialGradient id="g60" cx=".5" cy=".5" fx=".33" fy=".33" r=".66"><stop offset="0%" stop-color="#d1d1d1"/><stop offset="100%" stop-color="#a4a4a4"/></radialGradient><circle cx="0" cy="0" r="34.7" fill="url(#g60)" stroke="#555555" stroke-width="6.1"/></g>
    <g id="a61"><radialGradient id="g61" cx=".5" cy=".5" fx=".33" fy=".33" r=".66"><stop offset="0%" stop-color="#c3c3c3"/><stop offset="100%" stop-color="#888888"/></radialGradient><circle cx="0" cy="0" r="34.7" fill="url(#g61)" stroke="#000000" stroke-width="6.1"/></g>
    <g id="a62"><radialGradient id="g62" cx=".5" cy=".5" fx=".33" fy=".33" r=".66"><stop offset="0%" stop-color="#e3e3e3"/><stop offset="100%" stop-color="#c9c9c9"/></radialGradient><circle cx="0" cy="0" r="34.7" fill="url(#g62)" stroke="#b2b2b2" stroke-width="6.1"/></g>
  </defs>
  <!-- cell box -->
  <line class="cell-edge" x1="54.5" y1="744.9" x2="745.4" y2="744.9" stroke="#333333" stroke-width="1.1" stroke-linecap="round"/>
  <line class="cell-edge" x1="54.5" y1="744.9" x2="745.4" y2="744.9" stroke="#333333" stroke-width="1.1" stroke-linecap="round"/>
  <line class="cell-edge" x1="54.5" y1="54.1" x2="745.4" y2="54.1" stroke="#333333" stroke-width="1.1" stroke-linecap="round"/>
  <line class="cell-edge" x1="54.5" y1="54.1" x2="745.4" y2="54.1" stroke="#333333" stroke-width="1.1" stroke-linecap="round"/>
  <line class="cell-edge" x1="54.5" y1="744.9" x2="54.5" y2="54.1" stroke="#333333" stroke-width="1.1" stroke-linecap="round"/>
  <line class="cell-edge" x1="54.5" y1="744.9" x2="54.5" y2="54.1" stroke="#333333" stroke-width="1.1" stroke-linecap="round"/>
  <line class="cell-edge" x1="745.4" y1="744.9" x2="745.4" y2="54.1" stroke="#333333" stroke-width="1.1" stroke-linecap="round"/>
  <line class="cell-edge" x1="745.4" y1="744.9" x2="745.4" y2="54.1" stroke="#333333" stroke-width="1.1" stroke-linecap="round"/>
  <line class="cell-edge" x1="54.5" y1="744.9" x2="54.5" y2="744.9" stroke="#333333" stroke-width="1.1" stroke-linecap="round"/>
  <line class="cell-edge" x1="54.5" y1="54.1" x2="54.5" y2="54.1" stroke="#333333" stroke-width="1.1" stroke-linecap="round"/>
  <line class="cell-edge" x1="745.4" y1="744.9" x2="745.4" y2="744.9" stroke="#333333" stroke-width="1.1" stroke-linecap="round"/>
  <line class="cell-edge" x1="745.4" y1="54.1" x2="745.4" y2="54.1" stroke="#333333" stroke-width="1.1" stroke-linecap="round"/>
  <use x="54.7" y="744.8" xlink:href="#a55"/>
  <line x1="59.7" y1="713.9" x2="109.4" y2="664.2" stroke="#838383" stroke-width="10.7" stroke-linecap="round"/>
  <line x1="72.7" y1="726.8" x2="122.3" y2="677.2" stroke="#838383" stroke-width="10.7" stroke-linecap="round"/>
  <line x1="85.6" y1="739.8" x2="135.3" y2="690.1" stroke="#838383" stroke-width="10.7" stroke-linecap="round"/>
  <use x="571.1" y="573.0" xlink:href="#a29"/>
  <line x1="553.2" y1="591.0" x2="504.0" y2="640.2" stroke="#838383" stroke-width="15.3" stroke-linecap="round"/>
  <line x1="589.1" y1="554.9" x2="640.5" y2="503.4" stroke="#838383" stroke-width="15.3" stroke-linecap="round"/>
  <use x="226.5" y="228.4" xlink:href="#a45"/>
  <line x1="208.5" y1="246.3" x2="159.3" y2="295.5" stroke="#838383" stroke-width="15.3" stroke-linecap="round"/>
  <line x1="244.5" y1="210.4" x2="296.1" y2="159.0" stroke="#838383" stroke-width="15.3" stroke-linecap="round"/>
  <use x="401.5" y="743.9" xlink:href="#a23"/>
  <line x1="419.4" y1="725.9" x2="468.3" y2="676.2" stroke="#838383" stroke-width="15.3" stroke-linecap="round"/>
  <use x="55.6" y="398.0" xlink:href="#a39"/>
  <line x1="73.6" y1="380.1" x2="123.3" y2="331.2" stroke="#838383" stroke-width="15.3" stroke-linecap="round"/>
  <use x="314.7" y="484.8" xlink:href="#a62"/>
  <line x1="296.4" y1="467.0" x2="244.3" y2="416.5" stroke="#5e5e5e" stroke-width="15.3" stroke-linecap="round"/>
  <line x1="332.5" y1="503.1" x2="383.0" y2="555.2" stroke="#5e5e5e" stroke-width="15.3" stroke-linecap="round"/>
  <use x="140.4" y="659.1" xlink:href="#a56"/>
  <use x="486.5" y="313.0" xlink:href="#a8"/>
  <line x1="468.6" y1="295.2" x2="418.9" y2="245.7" stroke="#5d5d5d" stroke-width="15.3" stroke-linecap="round"/>
  <line x1="504.3" y1="330.9" x2="553.8" y2="380.6" stroke="#5d5d5d" stroke-width="15.3" stroke-linecap="round"/>
  <use x="658.6" y="140.9" xlink:href="#a14"/>
  <use x="486.1" y="658.1" xlink:href="#a24"/>
  <line x1="468.0" y1="640.2" x2="418.9" y2="591.4" stroke="#5d5d5d" stroke-width="15.3" stroke-linecap="round"/>
  <line x1="504.0" y1="676.3" x2="553.2" y2="726.4" stroke="#5d5d5d" stroke-width="15.3" stroke-linecap="round"/>
  <use x="141.4" y="313.4" xlink:href="#a40"/>
  <line x1="159.3" y1="331.5" x2="208.1" y2="380.6" stroke="#5d5d5d" stroke-width="15.3" stroke-linecap="round"/>
  <line x1="123.2" y1="295.5" x2="73.1" y2="246.3" stroke="#5d5d5d" stroke-width="15.3" stroke-linecap="round"/>
  <use x="658.5" y="485.4" xlink:href="#a30"/>
  <line x1="683.0" y1="497.1" x2="733.0" y2="547.6" stroke="#5d5d5d" stroke-width="10.7" stroke-linecap="round"/>
  <line x1="670.0" y1="510.0" x2="720.0" y2="560.5" stroke="#5d5d5d" stroke-width="10.7" stroke-linecap="round"/>
  <line x1="640.5" y1="467.3" x2="589.6" y2="416.4" stroke="#5c5c5c" stroke-width="15.3" stroke-linecap="round"/>
  <use x="314.1" y="141.0" xlink:href="#a46"/>
  <line x1="296.0" y1="123.0" x2="245.4" y2="73.0" stroke="#5d5d5d" stroke-width="15.3" stroke-linecap="round"/>
  <line x1="332.2" y1="159.0" x2="383.1" y2="209.9" stroke="#5c5c5c" stroke-width="15.3" stroke-linecap="round"/>
  <use x="226.0" y="398.7" xlink:href="#a43"/>
  <line x1="244.6" y1="381.9" x2="296.0" y2="335.6" stroke="#3d3d3d" stroke-width="15.3" stroke-linecap="round"/>
  <line x1="208.1" y1="416.5" x2="157.0" y2="467.0" stroke="#3d3d3d" stroke-width="15.3" stroke-linecap="round"/>
  <use x="400.8" y="573.5" xlink:href="#a25"/>
  <line x1="417.6" y1="554.9" x2="463.9" y2="503.5" stroke="#3d3d3d" stroke-width="15.3" stroke-linecap="round"/>
  <line x1="383.0" y1="591.4" x2="332.5" y2="642.5" stroke="#3d3d3d" stroke-width="15.3" stroke-linecap="round"/>
  <use x="54.9" y="228.4" xlink:href="#a41"/>
  <line x1="72.8" y1="210.4" x2="123.8" y2="159.0" stroke="#3d3d3d" stroke-width="15.3" stroke-linecap="round"/>
  <use x="571.1" y="744.6" xlink:href="#a27"/>
  <line x1="589.1" y1="726.7" x2="640.5" y2="675.7" stroke="#3d3d3d" stroke-width="15.3" stroke-linecap="round"/>
  <use x="227.3" y="55.0" xlink:href="#a59"/>
  <line x1="215.9" y1="79.4" x2="166.1" y2="129.4" stroke="#3d3d3d" stroke-width="10.7" stroke-linecap="round"/>
  <line x1="202.9" y1="66.5" x2="153.1" y2="116.5" stroke="#3d3d3d" stroke-width="10.7" stroke-linecap="round"/>
  <use x="744.5" y="572.2" xlink:href="#a57"/>
  <line x1="726.5" y1="590.1" x2="676.5" y2="639.9" stroke="#3d3d3d" stroke-width="15.3" stroke-linecap="round"/>
  <use x="401.1" y="227.9" xlink:href="#a9"/>
  <line x1="383.4" y1="246.5" x2="332.3" y2="300.2" stroke="#3d3d3d" stroke-width="15.3" stroke-linecap="round"/>
  <line x1="419.4" y1="210.1" x2="471.5" y2="159.7" stroke="#3d3d3d" stroke-width="15.3" stroke-linecap="round"/>
  <use x="571.6" y="398.4" xlink:href="#a11"/>
  <line x1="553.0" y1="416.1" x2="499.3" y2="467.2" stroke="#3d3d3d" stroke-width="15.3" stroke-linecap="round"/>
  <line x1="589.4" y1="380.1" x2="639.8" y2="328.0" stroke="#3d3d3d" stroke-width="15.3" stroke-linecap="round"/>
  <use x="658.5" y="657.8" xlink:href="#a28"/>
  <line x1="640.5" y1="639.8" x2="589.6" y2="588.9" stroke="#242424" stroke-width="15.3" stroke-linecap="round"/>
  <use x="141.7" y="141.0" xlink:href="#a42"/>
  <line x1="159.7" y1="159.0" x2="210.6" y2="209.9" stroke="#242424" stroke-width="15.3" stroke-linecap="round"/>
  <use x="480.7" y="484.9" xlink:href="#a26"/>
  <line x1="460.7" y1="468.0" x2="409.5" y2="424.8" stroke="#252525" stroke-width="15.3" stroke-linecap="round"/>
  <line x1="499.3" y1="502.5" x2="553.0" y2="553.3" stroke="#242424" stroke-width="15.3" stroke-linecap="round"/>
  <use x="314.6" y="318.8" xlink:href="#a44"/>
  <line x1="331.5" y1="338.8" x2="374.7" y2="390.0" stroke="#252525" stroke-width="15.3" stroke-linecap="round"/>
  <line x1="297.0" y1="300.2" x2="246.2" y2="246.5" stroke="#242424" stroke-width="15.3" stroke-linecap="round"/>
  <use x="314.7" y="660.4" xlink:href="#a60"/>
  <line x1="296.4" y1="642.5" x2="244.3" y2="591.4" stroke="#242424" stroke-width="15.3" stroke-linecap="round"/>
  <use x="139.1" y="484.8" xlink:href="#a58"/>
  <line x1="157.0" y1="503.1" x2="208.1" y2="555.2" stroke="#242424" stroke-width="15.3" stroke-linecap="round"/>
  <use x="489.9" y="142.0" xlink:href="#a10"/>
  <line x1="515.6" y1="152.0" x2="566.2" y2="195.6" stroke="#252525" stroke-width="10.7" stroke-linecap="round"/>
  <line x1="503.6" y1="165.9" x2="554.2" y2="209.5" stroke="#252525" stroke-width="10.7" stroke-linecap="round"/>
  <line x1="471.3" y1="123.9" x2="418.3" y2="72.6" stroke="#242424" stroke-width="15.3" stroke-linecap="round"/>
  <use x="657.5" y="309.6" xlink:href="#a12"/>
  <line x1="640.5" y1="289.9" x2="597.0" y2="239.3" stroke="#252525" stroke-width="15.3" stroke-linecap="round"/>
  <line x1="675.6" y1="328.2" x2="726.9" y2="381.1" stroke="#242424" stroke-width="15.3" stroke-linecap="round"/>
  <use x="390.7" y="408.8" xlink:href="#a0"/>
  <line x1="374.7" y1="424.8" x2="331.5" y2="468.0" stroke="#131313" stroke-width="15.3" stroke-linecap="round"/>
  <use x="580.0" y="219.5" xlink:href="#a5"/>
  <line x1="597.0" y1="202.5" x2="641.0" y2="158.5" stroke="#131313" stroke-width="15.3" stroke-linecap="round"/>
  <use x="399.8" y="54.5" xlink:href="#a15"/>
  <line x1="389.0" y1="78.9" x2="339.4" y2="130.3" stroke="#111111" stroke-width="10.7" stroke-linecap="round"/>
  <line x1="375.8" y1="66.2" x2="326.2" y2="117.6" stroke="#111111" stroke-width="10.7" stroke-linecap="round"/>
  <use x="745.0" y="399.7" xlink:href="#a31"/>
  <line x1="733.3" y1="423.7" x2="681.9" y2="473.3" stroke="#111111" stroke-width="10.7" stroke-linecap="round"/>
  <line x1="720.6" y1="410.5" x2="669.2" y2="460.1" stroke="#111111" stroke-width="10.7" stroke-linecap="round"/>
  <use x="226.0" y="573.5" xlink:href="#a53"/>
  <line x1="244.6" y1="554.9" x2="296.0" y2="503.5" stroke="#121212" stroke-width="15.3" stroke-linecap="round"/>
  <line x1="208.1" y1="591.4" x2="159.3" y2="640.2" stroke="#121212" stroke-width="15.3" stroke-linecap="round"/>
  <use x="571.6" y="571.0" xlink:href="#a21"/>
  <line x1="553.8" y1="589.3" x2="504.3" y2="640.5" stroke="#121212" stroke-width="15.3" stroke-linecap="round"/>
  <line x1="589.4" y1="553.0" x2="639.8" y2="502.0" stroke="#111111" stroke-width="15.3" stroke-linecap="round"/>
  <use x="228.5" y="227.9" xlink:href="#a37"/>
  <line x1="210.2" y1="245.7" x2="159.0" y2="295.2" stroke="#121212" stroke-width="15.3" stroke-linecap="round"/>
  <line x1="246.5" y1="210.1" x2="297.5" y2="159.7" stroke="#111111" stroke-width="15.3" stroke-linecap="round"/>
  <use x="55.5" y="743.9" xlink:href="#a47"/>
  <line x1="73.6" y1="725.9" x2="123.3" y2="676.2" stroke="#121212" stroke-width="15.3" stroke-linecap="round"/>
  <use x="314.6" y="484.9" xlink:href="#a54"/>
  <line x1="297.0" y1="467.2" x2="246.2" y2="416.1" stroke="#060606" stroke-width="15.3" stroke-linecap="round"/>
  <line x1="332.3" y1="502.5" x2="383.4" y2="553.3" stroke="#060606" stroke-width="15.3" stroke-linecap="round"/>
  <use x="658.1" y="141.4" xlink:href="#a6"/>
  <line x1="682.6" y1="152.5" x2="733.8" y2="202.8" stroke="#060606" stroke-width="10.7" stroke-linecap="round"/>
  <line x1="669.7" y1="165.6" x2="720.9" y2="215.9" stroke="#060606" stroke-width="10.7" stroke-linecap="round"/>
  <line x1="640.4" y1="123.4" x2="590.2" y2="72.2" stroke="#060606" stroke-width="15.3" stroke-linecap="round"/>
  <use x="141.4" y="658.1" xlink:href="#a48"/>
  <line x1="123.2" y1="640.2" x2="73.1" y2="591.0" stroke="#060606" stroke-width="15.3" stroke-linecap="round"/>
  <line x1="159.3" y1="676.3" x2="208.5" y2="726.4" stroke="#060606" stroke-width="15.3" stroke-linecap="round"/>
  <use x="140.7" y="313.0" xlink:href="#a32"/>
  <line x1="159.0" y1="330.9" x2="210.2" y2="380.6" stroke="#060606" stroke-width="15.3" stroke-linecap="round"/>
  <use x="486.5" y="658.8" xlink:href="#a16"/>
  <line x1="468.6" y1="640.5" x2="418.9" y2="589.3" stroke="#060606" stroke-width="15.3" stroke-linecap="round"/>
  <use x="315.5" y="142.0" xlink:href="#a38"/>
  <line x1="332.6" y1="159.0" x2="376.5" y2="202.5" stroke="#050505" stroke-width="15.3" stroke-linecap="round"/>
  <use x="657.5" y="484.0" xlink:href="#a22"/>
  <line x1="640.5" y1="466.9" x2="597.0" y2="423.0" stroke="#050505" stroke-width="15.3" stroke-linecap="round"/>
  <use x="54.9" y="573.0" xlink:href="#a49"/>
  <line x1="72.8" y1="554.9" x2="123.8" y2="503.4" stroke="#000000" stroke-width="15.3" stroke-linecap="round"/>
  <use x="226.5" y="744.6" xlink:href="#a51"/>
  <line x1="244.6" y1="726.7" x2="296.1" y2="675.7" stroke="#000000" stroke-width="15.3" stroke-linecap="round"/>
  <use x="228.5" y="398.4" xlink:href="#a35"/>
  <line x1="246.5" y1="380.1" x2="297.5" y2="328.0" stroke="#000000" stroke-width="15.3" stroke-linecap="round"/>
  <line x1="210.6" y1="416.4" x2="159.7" y2="467.3" stroke="#000000" stroke-width="15.3" stroke-linecap="round"/>
  <use x="401.1" y="571.0" xlink:href="#a17"/>
  <line x1="419.4" y1="553.0" x2="471.5" y2="502.0" stroke="#000000" stroke-width="15.3" stroke-linecap="round"/>
  <line x1="383.1" y1="588.9" x2="332.2" y2="639.8" stroke="#000000" stroke-width="15.3" stroke-linecap="round"/>
  <use x="745.3" y="227.0" xlink:href="#a33"/>
  <line x1="727.3" y1="245.4" x2="676.1" y2="297.4" stroke="#000000" stroke-width="15.3" stroke-linecap="round"/>
  <use x="572.5" y="54.2" xlink:href="#a19"/>
  <line x1="554.1" y1="72.2" x2="502.1" y2="123.4" stroke="#000000" stroke-width="15.3" stroke-linecap="round"/>
  <use x="393.6" y="219.5" xlink:href="#a1"/>
  <line x1="376.5" y1="239.3" x2="332.6" y2="289.9" stroke="#000000" stroke-width="15.3" stroke-linecap="round"/>
  <line x1="413.3" y1="202.5" x2="464.0" y2="158.5" stroke="#000000" stroke-width="15.3" stroke-linecap="round"/>
  <use x="580.0" y="405.9" xlink:href="#a3"/>
  <line x1="560.2" y1="423.0" x2="509.6" y2="466.9" stroke="#000000" stroke-width="15.3" stroke-linecap="round"/>
  <line x1="597.0" y1="386.2" x2="641.0" y2="335.5" stroke="#000000" stroke-width="15.3" stroke-linecap="round"/>
  <use x="489.9" y="484.0" xlink:href="#a18"/>
  <line x1="465.0" y1="473.3" x2="412.1" y2="423.8" stroke="#000000" stroke-width="10.7" stroke-linecap="round"/>
  <line x1="477.5" y1="460.0" x2="424.6" y2="410.4" stroke="#000000" stroke-width="10.7" stroke-linecap="round"/>
  <use x="315.5" y="309.6" xlink:href="#a36"/>
  <line x1="339.5" y1="322.0" x2="389.1" y2="374.9" stroke="#000000" stroke-width="10.7" stroke-linecap="round"/>
  <line x1="326.1" y1="334.5" x2="375.7" y2="387.4" stroke="#000000" stroke-width="10.7" stroke-linecap="round"/>
  <use x="483.7" y="141.4" xlink:href="#a2"/>
  <line x1="508.4" y1="152.5" x2="560.5" y2="202.8" stroke="#000000" stroke-width="10.7" stroke-linecap="round"/>
  <line x1="495.7" y1="165.6" x2="547.8" y2="215.9" stroke="#000000" stroke-width="10.7" stroke-linecap="round"/>
  <use x="658.1" y="315.7" xlink:href="#a4"/>
  <line x1="633.9" y1="303.8" x2="583.6" y2="251.7" stroke="#000000" stroke-width="10.7" stroke-linecap="round"/>
  <line x1="647.0" y1="291.1" x2="596.7" y2="239.0" stroke="#000000" stroke-width="10.7" stroke-linecap="round"/>
  <use x="141.7" y="485.4" xlink:href="#a50"/>
  <line x1="159.6" y1="503.5" x2="209.4" y2="554.1" stroke="#000000" stroke-width="15.3" stroke-linecap="round"/>
  <use x="314.1" y="657.8" xlink:href="#a52"/>
  <line x1="289.5" y1="646.4" x2="239.0" y2="596.6" stroke="#000000" stroke-width="10.7" stroke-linecap="round"/>
  <line x1="302.4" y1="633.3" x2="251.8" y2="583.6" stroke="#000000" stroke-width="10.7" stroke-linecap="round"/>
  <use x="658.6" y="658.5" xlink:href="#a20"/>
  <use x="141.0" y="140.9" xlink:href="#a34"/>
  <use x="227.3" y="572.2" xlink:href="#a61"/>
  <use x="399.8" y="399.7" xlink:href="#a7"/>
  <use x="572.5" y="227.0" xlink:href="#a13"/>
  <!-- crystal axes -->
  <line x1="54.5" y1="744.9" x2="227.2" y2="744.9" stroke="#cc2222" stroke-width="3.4" stroke-linecap="round"/>
  <polygon points="227.2,744.9 215.2,749.5 215.2,740.4" fill="#cc2222"/>
  <text x="252.8" y="757.8" font-size="36.7" fill="#cc2222" font-family="Arial,sans-serif" text-anchor="middle" font-weight="bold">a</text>
  <line x1="54.5" y1="744.9" x2="54.5" y2="572.2" stroke="#22aa22" stroke-width="3.4" stroke-linecap="round"/>
  <polygon points="54.5,572.2 59.1,584.3 50.0,584.3" fill="#22aa22"/>
  <text x="54.5" y="559.5" font-size="36.7" fill="#22aa22" font-family="Arial,sans-serif" text-anchor="middle" font-weight="bold">b</text>
  <line x1="54.5" y1="744.9" x2="54.5" y2="744.9" stroke="#2266cc" stroke-width="3.4" stroke-linecap="round"/>
  <text x="58.5" y="744.9" font-size="36.7" fill="#2266cc" font-family="Arial,sans-serif" text-anchor="middle" font-weight="bold">c</text>
</svg>