<svg xmlns="http://www.w3.org/2000/svg" xmlns:xlink="http://www.w3.org/1999/xlink" width="734" height="800">
  <rect width="100%" height="100%" fill="#ffffff"/>
  <defs>
    <g id="a0"><radialGradient id="g0" cx=".5" cy=".5" fx=".33" fy=".33" r=".66"><stop offset="0%" stop-color="#c7c7c7"/><stop offset="100%" stop-color="#909090"/></radialGradient><circle cx="0" cy="0" r="30.7" fill="url(#g0)" stroke="#191919" stroke-width="5.4"/></g>
    <g id="a1"><radialGradient id="g1" cx=".5" cy=".5" fx=".33" fy=".33" r=".66"><stop offset="0%" stop-color="#c3c3c3"/><stop offset="100%" stop-color="#888888"/></radialGradient><circle cx="0" cy="0" r="30.7" fill="url(#g1)" stroke="#000000" stroke-width="5.4"/></g>
    <g id="a2"><radialGradient id="g2" cx=".5" cy=".5" fx=".33" fy=".33" r=".66"><stop offset="0%" stop-color="#c3c3c3"/><stop offset="100%" stop-color="#888888"/></radialGradient><circle cx="0" cy="0" r="30.7" fill="url(#g2)" stroke="#000000" stroke-width="5.4"/></g>
    <g id="a3"><radialGradient id="g3" cx=".5" cy=".5" fx=".33" fy=".33" r=".66"><stop offset="0%" stop-color="#c7c7c7"/><stop offset="100%" stop-color="#909090"/></radialGradient><circle cx="0" cy="0" r="30.7" fill="url(#g3)" stroke="#191919" stroke-width="5.4"/></g>
    <g id="a4"><radialGradient id="g4" cx=".5" cy=".5" fx=".33" fy=".33" r=".66"><stop offset="0%" stop-color="#d5d5d5"/><stop offset="100%" stop-color="#ababab"/></radialGradient><circle cx="0" cy="0" r="30.7" fill="url(#g4)" stroke="#6d6d6d" stroke-width="5.4"/></g>
    <g id="a5"><radialGradient id="g5" cx=".5" cy=".5" fx=".33" fy=".33" r=".66"><stop offset="0%" stop-color="#d5d5d5"/><stop offset="100%" stop-color="#ababab"/></radialGradient><circle cx="0" cy="0" r="30.7" fill="url(#g5)" stroke="#6e6e6e" stroke-width="5.4"/></g>
    <g id="a6"><radialGradient id="g6" cx=".5" cy=".5" fx=".33" fy=".33" r=".66"><stop offset="0%" stop-color="#ff6161"/><stop offset="100%" stop-color="#cf1b1b"/></radialGradient><circle cx="0" cy="0" r="27.5" fill="url(#g6)" stroke="#191919" stroke-width="5.4"/></g>
    <g id="a7"><radialGradient id="g7" cx=".5" cy=".5" fx=".33" fy=".33" r=".66"><stop offset="0%" stop-color="#ffffff"/><stop offset="100%" stop-color="#cfcfcf"/></radialGradient><circle cx="0" cy="0" r="16.1" fill="url(#g7)" stroke="#191919" stroke-width="5.4"/></g>
    <g id="a13"><radialGradient id="g13" cx=".5" cy=".5" fx=".33" fy=".33" r=".66"><stop offset="0%" stop-color="#c7c7c7"/><stop offset="100%" stop-color="#909090"/></radialGradient><circle cx="0" cy="0" r="30.7" fill="url(#g13)" stroke="#191919" stroke-width="5.4"/></g>
    <g id="a14"><radialGradient id="g14" cx=".5" cy=".5" fx=".33" fy=".33" r=".66"><stop offset="0%" stop-color="#c3c3c3"/><stop offset="100%" stop-color="#888888"/></radialGradient><circle cx="0" cy="0" r="30.7" fill="url(#g14)" stroke="#000000" stroke-width="5.4"/></g>
    <g id="a15"><radialGradient id="g15" cx=".5" cy=".5" fx=".33" fy=".33" r=".66"><stop offset="0%" stop-color="#c3c3c3"/><stop offset="100%" stop-color="#888888"/></radialGradient><circle cx="0" cy="0" r="30.7" fill="url(#g15)" stroke="#000000" stroke-width="5.4"/></g>
    <g id="a16"><radialGradient id="g16" cx=".5" cy=".5" fx=".33" fy=".33" r=".66"><stop offset="0%" stop-color="#c7c7c7"/><stop offset="100%" stop-color="#909090"/></radialGradient><circle cx="0" cy="0" r="30.7" fill="url(#g16)" stroke="#191919" stroke-width="5.4"/></g>
    <g id="a17"><radialGradient id="g17" cx=".5" cy=".5" fx=".33" fy=".33" r=".66"><stop offset="0%" stop-color="#d5d5d5"/><stop offset="100%" stop-color="#ababab"/></radialGradient><circle cx="0" cy="0" r="30.7" fill="url(#g17)" stroke="#6d6d6d" stroke-width="5.4"/></g>
    <g id="a18"><radialGradient id="g18" cx=".5" cy=".5" fx=".33" fy=".33" r=".66"><stop offset="0%" stop-color="#d5d5d5"/><stop offset="100%" stop-color="#ababab"/></radialGradient><circle cx="0" cy="0" r="30.7" fill="url(#g18)" stroke="#6d6d6d" stroke-width="5.4"/></g>
    <g id="a19"><radialGradient id="g19" cx=".5" cy=".5" fx=".33" fy=".33" r=".66"><stop offset="0%" stop-color="#ff6161"/><stop offset="100%" stop-color="#cf1b1b"/></radialGradient><circle cx="0" cy="0" r="27.5" fill="url(#g19)" stroke="#191919" stroke-width="5.4"/></g>
    <g id="a20"><radialGradient id="g20" cx=".5" cy=".5" fx=".33" fy=".33" r=".66"><stop offset="0%" stop-color="#ffffff"/><stop offset="100%" stop-color="#cfcfcf"/></radialGradient><circle cx="0" cy="0" r="16.1" fill="url(#g20)" stroke="#191919" stroke-width="5.4"/></g>
  </defs>
  <use x="500.5" y="419.1" xlink:href="#a5"/>
  <line x1="500.3" y1="447.9" x2="482.2" y2="508.5" stroke="#3d3d3d" stroke-width="9.5" stroke-linecap="round"/>
  <line x1="484.8" y1="443.2" x2="466.7" y2="503.8" stroke="#3d3d3d" stroke-width="9.5" stroke-linecap="round" stroke-dasharray="9.5,18.9"/>
  <line x1="496.5" y1="403.7" x2="505.4" y2="373.3" stroke="#222222" stroke-width="9.5" stroke-linecap="round" stroke-dasharray="9.5,18.9"/>
  <line x1="512.1" y1="408.2" x2="521.0" y2="377.9" stroke="#222222" stroke-width="9.5" stroke-linecap="round"/>
  <use x="233.9" y="310.9" xlink:href="#a18"/>
  <line x1="228.0" y1="339.0" x2="198.1" y2="394.7" stroke="#3d3d3d" stroke-width="9.5" stroke-linecap="round" stroke-dasharray="9.5,18.9"/>
  <line x1="213.7" y1="331.4" x2="183.8" y2="387.0" stroke="#3d3d3d" stroke-width="9.5" stroke-linecap="round"/>
  <line x1="233.5" y1="294.8" x2="248.9" y2="266.7" stroke="#222222" stroke-width="9.5" stroke-linecap="round"/>
  <line x1="247.7" y1="302.6" x2="263.1" y2="274.5" stroke="#222222" stroke-width="9.5" stroke-linecap="round" stroke-dasharray="9.5,18.9"/>
  <use x="466.5" y="532.6" xlink:href="#a4"/>
  <line x1="470.4" y1="548.1" x2="461.3" y2="578.5" stroke="#222222" stroke-width="9.5" stroke-linecap="round"/>
  <line x1="454.8" y1="543.5" x2="445.7" y2="573.8" stroke="#222222" stroke-width="9.5" stroke-linecap="round" stroke-dasharray="9.5,18.9"/>
  <use x="177.8" y="415.2" xlink:href="#a17"/>
  <line x1="178.5" y1="431.2" x2="163.7" y2="459.3" stroke="#222222" stroke-width="9.5" stroke-linecap="round" stroke-dasharray="9.5,18.9"/>
  <line x1="164.2" y1="423.6" x2="149.3" y2="451.7" stroke="#222222" stroke-width="9.5" stroke-linecap="round"/>
  <use x="544.7" y="246.5" xlink:href="#a6"/>
  <line x1="538.9" y1="270.6" x2="523.5" y2="335.6" stroke="#0e0e0e" stroke-width="13.5" stroke-linecap="round"/>
  <line x1="569.3" y1="243.4" x2="612.0" y2="238.0" stroke="#0e0e0e" stroke-width="13.5" stroke-linecap="round"/>
  <use x="517.1" y="362.4" xlink:href="#a0"/>
  <line x1="521.0" y1="377.9" x2="512.1" y2="408.2" stroke="#030303" stroke-width="9.5" stroke-linecap="round"/>
  <line x1="505.4" y1="373.3" x2="496.5" y2="403.7" stroke="#030303" stroke-width="9.5" stroke-linecap="round" stroke-dasharray="9.5,18.9"/>
  <use x="398.2" y="164.5" xlink:href="#a20"/>
  <line x1="383.8" y1="162.6" x2="340.6" y2="156.7" stroke="#0e0e0e" stroke-width="13.5" stroke-linecap="round"/>
  <use x="316.1" y="153.3" xlink:href="#a19"/>
  <line x1="304.9" y1="175.4" x2="275.2" y2="233.8" stroke="#0e0e0e" stroke-width="13.5" stroke-linecap="round"/>
  <use x="449.5" y="589.4" xlink:href="#a3"/>
  <line x1="445.7" y1="573.8" x2="454.8" y2="543.5" stroke="#030303" stroke-width="9.5" stroke-linecap="round" stroke-dasharray="9.5,18.9"/>
  <line x1="461.3" y1="578.5" x2="470.4" y2="548.1" stroke="#030303" stroke-width="9.5" stroke-linecap="round"/>
  <use x="262.7" y="258.4" xlink:href="#a13"/>
  <line x1="263.1" y1="274.5" x2="247.7" y2="302.6" stroke="#030303" stroke-width="9.5" stroke-linecap="round" stroke-dasharray="9.5,18.9"/>
  <line x1="248.9" y1="266.7" x2="233.5" y2="294.8" stroke="#030303" stroke-width="9.5" stroke-linecap="round"/>
  <use x="626.4" y="236.2" xlink:href="#a7"/>
  <use x="150.0" y="467.7" xlink:href="#a16"/>
  <line x1="149.3" y1="451.7" x2="164.2" y2="423.6" stroke="#030303" stroke-width="9.5" stroke-linecap="round"/>
  <line x1="163.7" y1="459.3" x2="178.5" y2="431.2" stroke="#030303" stroke-width="9.5" stroke-linecap="round" stroke-dasharray="9.5,18.9"/>
  <use x="177.8" y="415.2" xlink:href="#a15"/>
  <line x1="183.8" y1="387.0" x2="213.7" y2="331.4" stroke="#000000" stroke-width="9.5" stroke-linecap="round"/>
  <line x1="198.1" y1="394.7" x2="228.0" y2="339.0" stroke="#000000" stroke-width="9.5" stroke-linecap="round" stroke-dasharray="9.5,18.9"/>
  <use x="466.5" y="532.6" xlink:href="#a2"/>
  <line x1="466.7" y1="503.8" x2="484.8" y2="443.2" stroke="#000000" stroke-width="9.5" stroke-linecap="round" stroke-dasharray="9.5,18.9"/>
  <line x1="482.2" y1="508.5" x2="500.3" y2="447.9" stroke="#000000" stroke-width="9.5" stroke-linecap="round"/>
  <use x="233.9" y="310.9" xlink:href="#a14"/>
  <use x="500.5" y="419.1" xlink:href="#a1"/>
  <path d="M 391.2 298.7 C 392.2 299.4 392.0 302.1 392.1 303.9 C 392.2 305.6 392.2 307.5 391.7 309.1 C 391.3 310.8 390.2 312.2 389.6 313.9 C 389.0 315.5 388.5 317.2 388.1 318.9 C 387.6 320.6 387.4 322.4 387.0 324.1 C 386.7 325.9 386.5 327.7 386.2 329.4 C 385.8 331.1 385.5 332.9 385.0 334.6 C 384.6 336.3 384.1 338.0 383.5 339.6 C 382.8 341.2 382.1 342.8 381.3 344.3 C 380.4 345.9 379.3 347.2 378.5 348.8 C 377.8 350.3 377.2 352.0 376.6 353.6 C 376.0 355.3 375.4 356.9 374.7 358.6 C 374.1 360.2 373.6 361.9 372.8 363.5 C 372.1 365.1 371.1 366.4 370.3 368.0 C 369.5 369.6 368.8 371.1 368.3 372.8 C 367.7 374.5 367.5 376.3 367.1 378.0 C 366.8 379.7 366.6 381.5 366.3 383.2 C 365.9 385.0 365.5 386.7 365.1 388.4 C 364.7 390.1 364.3 391.9 363.7 393.5 C 363.1 395.2 362.3 396.7 361.4 398.2 C 360.6 399.7 359.5 401.0 358.7 402.6 C 357.9 404.1 357.4 405.8 356.7 407.4 C 356.1 409.1 355.5 410.7 354.9 412.4 C 354.3 414.0 353.9 415.8 353.1 417.3 C 352.3 418.8 351.0 420.0 350.2 421.5 C 349.3 423.0 348.6 424.6 347.9 426.2 C 347.1 427.7 346.5 429.4 345.9 431.0 C 345.3 432.7 344.9 434.4 344.3 436.1 C 343.6 437.7 342.9 439.2 342.1 440.8 C 341.3 442.3 340.1 443.6 339.4 445.2 C 338.7 446.8 338.3 448.6 337.9 450.3 C 337.4 452.0 337.2 453.7 336.9 455.5 C 336.5 457.2 336.2 459.0 335.9 460.7 C 335.5 462.4 335.1 464.2 334.5 465.8 C 333.9 467.5 333.4 469.2 332.5 470.6 C 331.5 471.9 330.0 472.8 328.8 474.0 C 327.6 475.2 326.5 476.7 325.3 477.7 C 324.0 478.7 322.5 480.2 321.4 480.0 C 320.3 479.8 319.1 478.1 318.5 476.6 C 317.9 475.2 317.8 473.1 317.7 471.4 C 317.7 469.6 317.9 467.8 318.1 466.1 C 318.3 464.3 318.4 462.5 318.7 460.8 C 319.0 459.0 319.3 457.3 319.7 455.6 C 320.1 453.8 320.5 452.1 321.1 450.5 C 321.7 448.8 322.3 447.2 323.1 445.6 C 323.9 444.1 325.0 442.8 325.9 441.2 C 326.7 439.7 327.3 438.0 327.9 436.4 C 328.6 434.8 329.2 433.1 329.8 431.5 C 330.4 429.9 330.9 428.1 331.7 426.6 C 332.4 425.0 333.5 423.7 334.4 422.2 C 335.2 420.7 336.1 419.2 336.8 417.6 C 337.6 416.1 338.2 414.4 338.8 412.7 C 339.4 411.1 339.9 409.4 340.5 407.8 C 341.2 406.1 341.7 404.4 342.4 402.9 C 343.2 401.3 344.5 400.1 345.2 398.5 C 345.9 396.9 346.5 395.2 346.9 393.5 C 347.4 391.8 347.6 390.1 348.0 388.3 C 348.3 386.6 348.5 384.8 348.9 383.1 C 349.2 381.4 349.6 379.6 350.1 377.9 C 350.5 376.2 350.8 374.4 351.4 372.8 C 352.1 371.2 353.1 369.8 354.0 368.4 C 354.9 366.9 355.8 365.4 356.6 363.9 C 357.4 362.3 358.0 360.7 358.6 359.0 C 359.2 357.4 359.7 355.7 360.3 354.0 C 360.9 352.4 361.4 350.6 362.2 349.1 C 362.9 347.6 364.3 346.4 365.1 344.8 C 365.8 343.3 366.3 341.5 366.8 339.8 C 367.3 338.2 367.5 336.4 367.9 334.7 C 368.2 332.9 368.4 331.2 368.8 329.4 C 369.1 327.7 369.5 326.0 370.0 324.2 C 370.4 322.5 370.7 320.7 371.4 319.1 C 372.0 317.6 373.1 316.2 374.0 314.7 C 374.9 313.3 375.9 311.8 376.7 310.3 C 377.6 308.8 378.3 307.2 379.1 305.7 C 380.0 304.2 380.7 302.4 381.9 301.3 C 383.1 300.3 384.9 300.1 386.4 299.6 C 388.0 299.2 390.3 298.0 391.2 298.7 Z" fill="#228b22" fill-rule="evenodd" stroke="none" opacity="0.850"/>
  <path d="M 258.8 371.9 C 259.4 373.5 259.8 375.3 260.1 377.0 C 260.5 378.7 260.9 380.5 261.0 382.2 C 261.1 383.9 261.1 385.7 260.9 387.5 C 260.7 389.2 260.3 391.0 259.9 392.6 C 259.4 394.3 258.8 396.0 258.0 397.5 C 257.2 399.0 256.0 400.3 255.0 401.6 C 253.9 402.9 252.8 404.3 251.6 405.5 C 250.4 406.7 249.2 407.8 247.9 408.8 C 246.5 409.8 245.1 410.5 243.6 411.4 C 242.2 412.2 240.7 412.9 239.3 413.7 C 237.8 414.5 236.4 415.2 234.9 416.0 C 233.5 416.8 232.1 417.7 230.6 418.4 C 229.1 419.2 227.7 419.9 226.1 420.4 C 224.6 420.9 223.0 421.1 221.4 421.4 C 219.8 421.7 218.2 422.1 216.6 422.0 C 215.0 422.0 213.4 421.4 211.8 421.0 C 210.2 420.6 208.5 420.5 207.1 419.8 C 205.6 419.1 204.4 417.8 203.1 416.8 C 201.7 415.8 200.4 414.8 199.1 413.8 C 197.8 412.7 196.5 411.7 195.2 410.7 C 193.9 409.6 192.6 408.5 191.3 407.5 C 190.0 406.4 188.8 405.3 187.4 404.4 C 186.0 403.5 184.5 402.7 183.1 401.9 C 181.6 401.2 180.2 400.4 178.7 399.6 C 177.3 398.8 175.8 398.0 174.4 397.2 C 173.0 396.3 171.6 395.4 170.2 394.5 C 168.8 393.6 167.4 392.8 166.0 391.9 C 164.6 391.0 163.2 390.1 161.9 389.0 C 160.6 388.0 159.2 387.0 158.1 385.7 C 157.0 384.5 156.1 383.0 155.3 381.5 C 154.6 379.9 154.0 378.2 153.5 376.6 C 153.1 374.9 152.7 373.2 152.5 371.4 C 152.3 369.7 152.2 367.9 152.2 366.1 C 152.1 364.4 152.0 362.6 152.0 360.8 C 151.9 359.1 151.9 357.3 152.0 355.5 C 152.0 353.7 152.0 352.0 152.1 350.2 C 152.1 348.4 152.2 346.7 152.4 344.9 C 152.5 343.2 152.7 341.4 153.0 339.7 C 153.4 338.0 154.0 336.3 154.6 334.7 C 155.3 333.1 156.0 331.5 157.0 330.1 C 158.0 328.7 159.2 327.6 160.5 326.5 C 161.7 325.3 163.1 324.4 164.5 323.5 C 165.9 322.5 167.3 321.7 168.7 320.9 C 170.1 320.0 171.6 319.2 173.0 318.4 C 174.5 317.6 175.9 316.8 177.4 316.2 C 178.9 315.7 180.6 315.4 182.2 315.1 C 183.7 314.8 185.4 314.4 187.0 314.4 C 188.5 314.4 190.1 314.9 191.7 315.2 C 193.3 315.6 194.9 315.8 196.4 316.5 C 197.9 317.1 199.2 318.1 200.6 319.1 C 201.9 320.0 203.2 321.1 204.5 322.2 C 205.9 323.2 207.2 324.2 208.5 325.2 C 209.8 326.2 211.1 327.3 212.4 328.4 C 213.7 329.5 214.9 330.6 216.2 331.6 C 217.6 332.5 219.1 333.3 220.5 334.1 C 222.0 334.9 223.4 335.6 224.9 336.4 C 226.3 337.2 227.8 337.9 229.2 338.8 C 230.6 339.6 232.0 340.6 233.4 341.4 C 234.8 342.3 236.2 343.2 237.6 344.1 C 239.0 345.0 240.4 345.8 241.8 346.8 C 243.1 347.7 244.5 348.6 245.8 349.8 C 247.0 350.9 248.2 352.1 249.2 353.5 C 250.2 354.9 251.0 356.4 251.9 357.9 C 252.7 359.4 253.6 361.0 254.3 362.5 C 255.1 364.0 255.8 365.6 256.6 367.2 C 257.3 368.8 258.2 370.3 258.8 371.9 Z" fill="#228b22" fill-rule="evenodd" stroke="none" opacity="0.850"/>
  <path d="M 520.4 483.5 C 520.9 485.2 521.5 486.9 521.7 488.6 C 521.8 490.3 521.5 492.0 521.2 493.7 C 520.8 495.4 520.2 497.1 519.5 498.6 C 518.7 500.2 517.8 501.6 516.7 502.8 C 515.6 504.1 514.2 505.0 512.8 505.9 C 511.4 506.8 510.0 507.7 508.5 508.3 C 507.0 509.0 505.5 509.3 503.9 509.7 C 502.4 510.1 500.8 510.7 499.2 510.8 C 497.6 510.9 496.0 510.6 494.4 510.4 C 492.9 510.2 491.3 509.8 489.7 509.5 C 488.1 509.2 486.5 508.8 485.0 508.5 C 483.4 508.1 481.8 507.8 480.3 507.4 C 478.7 507.0 477.1 506.7 475.5 506.3 C 474.0 506.0 472.4 505.6 470.8 505.2 C 469.3 504.8 467.7 504.4 466.1 504.1 C 464.6 503.7 463.0 503.2 461.4 502.8 C 459.9 502.4 458.3 502.0 456.7 501.7 C 455.2 501.4 453.5 501.3 452.0 500.9 C 450.4 500.5 448.8 500.1 447.4 499.5 C 445.9 498.8 444.6 497.8 443.2 496.8 C 441.9 495.9 440.5 494.9 439.4 493.6 C 438.3 492.4 437.2 491.0 436.5 489.5 C 435.7 488.0 435.5 486.2 435.1 484.5 C 434.6 482.8 434.1 481.1 433.9 479.4 C 433.7 477.6 433.9 475.8 433.9 474.1 C 433.9 472.3 433.8 470.5 434.0 468.8 C 434.3 467.1 434.9 465.4 435.6 463.8 C 436.2 462.2 436.8 460.5 437.8 459.2 C 438.8 457.8 440.1 456.7 441.4 455.8 C 442.7 454.8 444.2 454.1 445.7 453.5 C 447.2 452.9 448.8 452.6 450.4 452.3 C 452.0 452.0 453.6 452.0 455.2 451.9 C 456.8 451.9 458.4 451.8 460.0 451.8 C 461.6 451.8 463.2 451.9 464.8 452.0 C 466.4 452.1 468.0 452.1 469.6 452.3 C 471.2 452.5 472.8 452.9 474.4 453.2 C 476.0 453.5 477.5 453.8 479.1 454.2 C 480.7 454.5 482.3 454.9 483.8 455.2 C 485.4 455.6 487.0 456.1 488.5 456.3 C 490.1 456.6 491.7 456.5 493.3 456.7 C 494.9 456.8 496.6 456.7 498.1 457.1 C 499.7 457.6 501.1 458.5 502.5 459.3 C 503.9 460.2 505.2 461.2 506.4 462.4 C 507.6 463.5 508.6 464.9 509.6 466.3 C 510.6 467.6 511.5 469.1 512.5 470.5 C 513.5 471.8 514.6 473.2 515.6 474.5 C 516.6 475.9 517.8 477.2 518.6 478.7 C 519.3 480.2 519.9 481.9 520.4 483.5 Z" fill="#228b22" fill-rule="evenodd" stroke="none" opacity="0.850"/>
  <path d="M 472.0 186.5 C 472.7 188.1 473.3 189.8 473.7 191.5 C 474.1 193.3 474.2 195.1 474.4 196.8 C 474.5 198.6 474.7 200.4 474.7 202.2 C 474.7 204.0 474.6 205.7 474.6 207.5 C 474.5 209.3 474.5 211.1 474.3 212.9 C 474.0 214.6 473.6 216.4 473.1 218.0 C 472.6 219.7 472.0 221.4 471.1 223.0 C 470.3 224.5 469.4 226.0 468.3 227.2 C 467.1 228.5 465.7 229.4 464.3 230.4 C 463.0 231.4 461.6 232.4 460.2 233.2 C 458.8 234.1 457.3 234.9 455.9 235.8 C 454.4 236.6 453.0 237.6 451.5 238.2 C 450.0 238.9 448.5 239.4 446.9 239.8 C 445.3 240.2 443.7 240.5 442.0 240.6 C 440.4 240.7 438.8 240.7 437.3 240.3 C 435.7 240.0 434.1 239.2 432.7 238.4 C 431.3 237.5 429.8 236.6 428.8 235.3 C 427.7 234.0 427.0 232.3 426.4 230.7 C 425.7 229.0 425.1 227.3 424.8 225.6 C 424.5 223.9 424.6 222.0 424.5 220.3 C 424.4 218.5 424.3 216.7 424.4 214.9 C 424.6 213.1 425.1 211.4 425.4 209.7 C 425.8 207.9 426.1 206.1 426.7 204.5 C 427.3 202.9 428.3 201.4 429.2 199.9 C 430.1 198.4 431.1 197.0 432.1 195.6 C 433.2 194.2 434.1 192.8 435.2 191.5 C 436.3 190.2 437.5 188.9 438.7 187.7 C 439.9 186.5 441.3 185.5 442.6 184.4 C 443.9 183.4 445.2 182.2 446.5 181.3 C 447.9 180.3 449.3 179.5 450.8 178.9 C 452.4 178.3 454.0 178.1 455.6 177.9 C 457.2 177.7 458.9 177.4 460.4 177.6 C 462.0 177.9 463.6 178.6 465.1 179.4 C 466.5 180.1 468.1 180.9 469.3 182.1 C 470.4 183.3 471.2 185.0 472.0 186.5 Z" fill="#228b22" fill-rule="evenodd" stroke="none" opacity="0.850"/>
</svg>